<?xml version="1.0" encoding="utf-8" standalone="no"?>
<!DOCTYPE svg PUBLIC "-//W3C//DTD SVG 1.1//EN"
  "http://www.w3.org/Graphics/SVG/1.1/DTD/svg11.dtd">
<svg xmlns:xlink="http://www.w3.org/1999/xlink" width="460.8pt" height="345.6pt" viewBox="0 0 460.8 345.6" xmlns="http://www.w3.org/2000/svg" version="1.1">
 <metadata>
  <rdf:RDF xmlns:dc="http://purl.org/dc/elements/1.1/" xmlns:cc="http://creativecommons.org/ns#" xmlns:rdf="http://www.w3.org/1999/02/22-rdf-syntax-ns#">
   <cc:Work>
    <dc:type rdf:resource="http://purl.org/dc/dcmitype/StillImage"/>
    <dc:date>2023-01-17T22:30:55.866150</dc:date>
    <dc:format>image/svg+xml</dc:format>
    <dc:creator>
     <cc:Agent>
      <dc:title>Matplotlib v3.6.2, https://matplotlib.org/</dc:title>
     </cc:Agent>
    </dc:creator>
   </cc:Work>
  </rdf:RDF>
 </metadata>
 <defs>
  <style type="text/css">*{stroke-linejoin: round; stroke-linecap: butt}</style>
 </defs>
 <g id="figure_1">
  <g id="patch_1">
   <path d="M 0 345.6 
L 460.8 345.6 
L 460.8 0 
L 0 0 
z
" style="fill: #ffffff"/>
  </g>
  <g id="axes_1">
   <g id="patch_2">
    <path d="M 63.844138 300.004 
L 440.064 300.004 
L 440.064 20.736 
L 63.844138 20.736 
z
" style="fill: #ffffff"/>
   </g>
   <g id="matplotlib.axis_1">
    <g id="xtick_1">
     <g id="line2d_1">
      <path d="M 80.945041 300.004 
L 80.945041 20.736 
" clip-path="url(#pea9fc6f038)" style="fill: none; stroke: #cccccc; stroke-width: 0.8; stroke-linecap: round"/>
     </g>
     <g id="text_1">
      <!-- 0 -->
      <g style="fill: #262626" transform="translate(76.051416 320.90175) scale(0.176 -0.176)">
       <defs>
        <path id="ArialMT-30" d="M 266 2259 
Q 266 3072 433 3567 
Q 600 4063 929 4331 
Q 1259 4600 1759 4600 
Q 2128 4600 2406 4451 
Q 2684 4303 2865 4023 
Q 3047 3744 3150 3342 
Q 3253 2941 3253 2259 
Q 3253 1453 3087 958 
Q 2922 463 2592 192 
Q 2263 -78 1759 -78 
Q 1097 -78 719 397 
Q 266 969 266 2259 
z
M 844 2259 
Q 844 1131 1108 757 
Q 1372 384 1759 384 
Q 2147 384 2411 759 
Q 2675 1134 2675 2259 
Q 2675 3391 2411 3762 
Q 2147 4134 1753 4134 
Q 1366 4134 1134 3806 
Q 844 3388 844 2259 
z
" transform="scale(0.015625)"/>
       </defs>
       <use xlink:href="#ArialMT-30"/>
      </g>
     </g>
    </g>
    <g id="xtick_2">
     <g id="line2d_2">
      <path d="M 166.879226 300.004 
L 166.879226 20.736 
" clip-path="url(#pea9fc6f038)" style="fill: none; stroke: #cccccc; stroke-width: 0.8; stroke-linecap: round"/>
     </g>
     <g id="text_2">
      <!-- 50 -->
      <g style="fill: #262626" transform="translate(157.091976 320.90175) scale(0.176 -0.176)">
       <defs>
        <path id="ArialMT-35" d="M 266 1200 
L 856 1250 
Q 922 819 1161 601 
Q 1400 384 1738 384 
Q 2144 384 2425 690 
Q 2706 997 2706 1503 
Q 2706 1984 2436 2262 
Q 2166 2541 1728 2541 
Q 1456 2541 1237 2417 
Q 1019 2294 894 2097 
L 366 2166 
L 809 4519 
L 3088 4519 
L 3088 3981 
L 1259 3981 
L 1013 2750 
Q 1425 3038 1878 3038 
Q 2478 3038 2890 2622 
Q 3303 2206 3303 1553 
Q 3303 931 2941 478 
Q 2500 -78 1738 -78 
Q 1113 -78 717 272 
Q 322 622 266 1200 
z
" transform="scale(0.015625)"/>
       </defs>
       <use xlink:href="#ArialMT-35"/>
       <use xlink:href="#ArialMT-30" x="55.615234"/>
      </g>
     </g>
    </g>
    <g id="xtick_3">
     <g id="line2d_3">
      <path d="M 252.813411 300.004 
L 252.813411 20.736 
" clip-path="url(#pea9fc6f038)" style="fill: none; stroke: #cccccc; stroke-width: 0.8; stroke-linecap: round"/>
     </g>
     <g id="text_3">
      <!-- 100 -->
      <g style="fill: #262626" transform="translate(238.132536 320.90175) scale(0.176 -0.176)">
       <defs>
        <path id="ArialMT-31" d="M 2384 0 
L 1822 0 
L 1822 3584 
Q 1619 3391 1289 3197 
Q 959 3003 697 2906 
L 697 3450 
Q 1169 3672 1522 3987 
Q 1875 4303 2022 4600 
L 2384 4600 
L 2384 0 
z
" transform="scale(0.015625)"/>
       </defs>
       <use xlink:href="#ArialMT-31"/>
       <use xlink:href="#ArialMT-30" x="55.615234"/>
       <use xlink:href="#ArialMT-30" x="111.230469"/>
      </g>
     </g>
    </g>
    <g id="xtick_4">
     <g id="line2d_4">
      <path d="M 338.747596 300.004 
L 338.747596 20.736 
" clip-path="url(#pea9fc6f038)" style="fill: none; stroke: #cccccc; stroke-width: 0.8; stroke-linecap: round"/>
     </g>
     <g id="text_4">
      <!-- 150 -->
      <g style="fill: #262626" transform="translate(324.066721 320.90175) scale(0.176 -0.176)">
       <use xlink:href="#ArialMT-31"/>
       <use xlink:href="#ArialMT-35" x="55.615234"/>
       <use xlink:href="#ArialMT-30" x="111.230469"/>
      </g>
     </g>
    </g>
    <g id="xtick_5">
     <g id="line2d_5">
      <path d="M 424.681781 300.004 
L 424.681781 20.736 
" clip-path="url(#pea9fc6f038)" style="fill: none; stroke: #cccccc; stroke-width: 0.8; stroke-linecap: round"/>
     </g>
     <g id="text_5">
      <!-- 200 -->
      <g style="fill: #262626" transform="translate(410.000906 320.90175) scale(0.176 -0.176)">
       <defs>
        <path id="ArialMT-32" d="M 3222 541 
L 3222 0 
L 194 0 
Q 188 203 259 391 
Q 375 700 629 1000 
Q 884 1300 1366 1694 
Q 2113 2306 2375 2664 
Q 2638 3022 2638 3341 
Q 2638 3675 2398 3904 
Q 2159 4134 1775 4134 
Q 1369 4134 1125 3890 
Q 881 3647 878 3216 
L 300 3275 
Q 359 3922 746 4261 
Q 1134 4600 1788 4600 
Q 2447 4600 2831 4234 
Q 3216 3869 3216 3328 
Q 3216 3053 3103 2787 
Q 2991 2522 2730 2228 
Q 2469 1934 1863 1422 
Q 1356 997 1212 845 
Q 1069 694 975 541 
L 3222 541 
z
" transform="scale(0.015625)"/>
       </defs>
       <use xlink:href="#ArialMT-32"/>
       <use xlink:href="#ArialMT-30" x="55.615234"/>
       <use xlink:href="#ArialMT-30" x="111.230469"/>
      </g>
     </g>
    </g>
   </g>
   <g id="matplotlib.axis_2">
    <g id="ytick_1">
     <g id="line2d_6">
      <path d="M 63.844138 242.284857 
L 440.064 242.284857 
" clip-path="url(#pea9fc6f038)" style="fill: none; stroke: #cccccc; stroke-width: 0.8; stroke-linecap: round"/>
     </g>
     <g id="text_6">
      <!-- $\mathdefault{10^{-4}}$ -->
      <g style="fill: #262626" transform="translate(20.696138 251.271857) scale(0.176 -0.176)">
       <defs>
        <path id="ArialMT-2212" d="M 3381 1997 
L 356 1997 
L 356 2522 
L 3381 2522 
L 3381 1997 
z
" transform="scale(0.015625)"/>
        <path id="ArialMT-34" d="M 2069 0 
L 2069 1097 
L 81 1097 
L 81 1613 
L 2172 4581 
L 2631 4581 
L 2631 1613 
L 3250 1613 
L 3250 1097 
L 2631 1097 
L 2631 0 
L 2069 0 
z
M 2069 1613 
L 2069 3678 
L 634 1613 
L 2069 1613 
z
" transform="scale(0.015625)"/>
       </defs>
       <use xlink:href="#ArialMT-31" transform="translate(0 0.201563)"/>
       <use xlink:href="#ArialMT-30" transform="translate(55.615234 0.201563)"/>
       <use xlink:href="#ArialMT-2212" transform="translate(112.972813 69.895313) scale(0.7)"/>
       <use xlink:href="#ArialMT-34" transform="translate(153.851719 69.895313) scale(0.7)"/>
      </g>
     </g>
    </g>
    <g id="ytick_2">
     <g id="line2d_7">
      <path d="M 63.844138 157.064564 
L 440.064 157.064564 
" clip-path="url(#pea9fc6f038)" style="fill: none; stroke: #cccccc; stroke-width: 0.8; stroke-linecap: round"/>
     </g>
     <g id="text_7">
      <!-- $\mathdefault{10^{-3}}$ -->
      <g style="fill: #262626" transform="translate(20.696138 166.139564) scale(0.176 -0.176)">
       <defs>
        <path id="ArialMT-33" d="M 269 1209 
L 831 1284 
Q 928 806 1161 595 
Q 1394 384 1728 384 
Q 2125 384 2398 659 
Q 2672 934 2672 1341 
Q 2672 1728 2419 1979 
Q 2166 2231 1775 2231 
Q 1616 2231 1378 2169 
L 1441 2663 
Q 1497 2656 1531 2656 
Q 1891 2656 2178 2843 
Q 2466 3031 2466 3422 
Q 2466 3731 2256 3934 
Q 2047 4138 1716 4138 
Q 1388 4138 1169 3931 
Q 950 3725 888 3313 
L 325 3413 
Q 428 3978 793 4289 
Q 1159 4600 1703 4600 
Q 2078 4600 2393 4439 
Q 2709 4278 2876 4000 
Q 3044 3722 3044 3409 
Q 3044 3113 2884 2869 
Q 2725 2625 2413 2481 
Q 2819 2388 3044 2092 
Q 3269 1797 3269 1353 
Q 3269 753 2831 336 
Q 2394 -81 1725 -81 
Q 1122 -81 723 278 
Q 325 638 269 1209 
z
" transform="scale(0.015625)"/>
       </defs>
       <use xlink:href="#ArialMT-31" transform="translate(0 0.99375)"/>
       <use xlink:href="#ArialMT-30" transform="translate(55.615234 0.99375)"/>
       <use xlink:href="#ArialMT-2212" transform="translate(112.972813 70.6875) scale(0.7)"/>
       <use xlink:href="#ArialMT-33" transform="translate(153.851719 70.6875) scale(0.7)"/>
      </g>
     </g>
    </g>
    <g id="ytick_3">
     <g id="line2d_8">
      <path d="M 63.844138 71.844271 
L 440.064 71.844271 
" clip-path="url(#pea9fc6f038)" style="fill: none; stroke: #cccccc; stroke-width: 0.8; stroke-linecap: round"/>
     </g>
     <g id="text_8">
      <!-- $\mathdefault{10^{-2}}$ -->
      <g style="fill: #262626" transform="translate(20.696138 80.919271) scale(0.176 -0.176)">
       <use xlink:href="#ArialMT-31" transform="translate(0 0.99375)"/>
       <use xlink:href="#ArialMT-30" transform="translate(55.615234 0.99375)"/>
       <use xlink:href="#ArialMT-2212" transform="translate(112.972813 70.6875) scale(0.7)"/>
       <use xlink:href="#ArialMT-32" transform="translate(153.851719 70.6875) scale(0.7)"/>
      </g>
     </g>
    </g>
    <g id="ytick_4"/>
    <g id="ytick_5"/>
    <g id="ytick_6"/>
    <g id="ytick_7"/>
    <g id="ytick_8"/>
    <g id="ytick_9"/>
    <g id="ytick_10"/>
    <g id="ytick_11"/>
    <g id="ytick_12"/>
    <g id="ytick_13"/>
    <g id="ytick_14"/>
    <g id="ytick_15"/>
    <g id="ytick_16"/>
    <g id="ytick_17"/>
    <g id="ytick_18"/>
    <g id="ytick_19"/>
    <g id="ytick_20"/>
    <g id="ytick_21"/>
    <g id="ytick_22"/>
    <g id="ytick_23"/>
    <g id="ytick_24"/>
    <g id="ytick_25"/>
    <g id="ytick_26"/>
    <g id="ytick_27"/>
    <g id="ytick_28"/>
   </g>
   <g id="PolyCollection_1">
    <defs>
     <path id="m74ed734706" d="M 80.945041 -304.092205 
L 80.945041 -261.260519 
L 82.663725 -231.3751 
L 84.382408 -231.3751 
L 86.101092 -219.559196 
L 87.819776 -208.7342 
L 89.53846 -205.65693 
L 91.257143 -188.541139 
L 92.975827 -175.486965 
L 94.694511 -175.539882 
L 96.413194 -168.518611 
L 98.131878 -175.539882 
L 99.850562 -168.518611 
L 101.569245 -168.45463 
L 103.287929 -168.518611 
L 105.006613 -165.729728 
L 106.725297 -168.518611 
L 108.44398 -138.621682 
L 110.162664 -138.621682 
L 111.881348 -138.621682 
L 113.600031 -144.077416 
L 115.318715 -138.621682 
L 117.037399 -138.621682 
L 118.756082 -138.621682 
L 120.474766 -138.621682 
L 122.19345 -138.621682 
L 123.912134 -143.823015 
L 125.630817 -138.621682 
L 127.349501 -138.621682 
L 129.068185 -143.823015 
L 130.786868 -138.621682 
L 132.505552 -143.823015 
L 134.224236 -143.823015 
L 135.942919 -143.542812 
L 137.661603 -143.816036 
L 139.380287 -138.621682 
L 141.098971 -138.621682 
L 142.817654 -143.427433 
L 144.536338 -143.427433 
L 146.255022 -132.56795 
L 147.973705 -138.621682 
L 149.692389 -138.621682 
L 151.411073 -144.077416 
L 153.129756 -144.077416 
L 154.84844 -143.701506 
L 156.567124 -143.542812 
L 158.285807 -138.621682 
L 160.004491 -143.823015 
L 161.723175 -138.621682 
L 163.441859 -138.621682 
L 165.160542 -138.621682 
L 166.879226 -143.433883 
L 168.59791 -130.499553 
L 170.316593 -130.499553 
L 172.035277 -130.499553 
L 173.753961 -130.499553 
L 175.472644 -130.499553 
L 177.191328 -130.499553 
L 178.910012 -113.474542 
L 180.628696 -113.474542 
L 182.347379 -113.474542 
L 184.066063 -111.636418 
L 185.784747 -113.474542 
L 187.50343 -113.474542 
L 189.222114 -113.474542 
L 190.940798 -113.474542 
L 192.659481 -113.474542 
L 194.378165 -113.474542 
L 196.096849 -113.474542 
L 197.815533 -113.474542 
L 199.534216 -115.22568 
L 201.2529 -113.474542 
L 202.971584 -113.474542 
L 204.690267 -116.429109 
L 206.408951 -113.474542 
L 208.127635 -119.628396 
L 209.846318 -108.21628 
L 211.565002 -115.22568 
L 213.283686 -113.474542 
L 215.00237 -113.474542 
L 216.721053 -113.474542 
L 218.439737 -113.474542 
L 220.158421 -113.474542 
L 221.877104 -118.009143 
L 223.595788 -113.474542 
L 225.314472 -113.474542 
L 227.033155 -113.474542 
L 228.751839 -113.474542 
L 230.470523 -115.22568 
L 232.189207 -113.474542 
L 233.90789 -111.554656 
L 235.626574 -108.21628 
L 237.345258 -115.182896 
L 239.063941 -113.474542 
L 240.782625 -115.22568 
L 242.501309 -113.474542 
L 244.219992 -115.22568 
L 245.938676 -115.22568 
L 247.65736 -113.474542 
L 249.376044 -113.474542 
L 251.094727 -113.474542 
L 252.813411 -113.474542 
L 254.532095 -111.554656 
L 256.250778 -113.474542 
L 257.969462 -113.474542 
L 259.688146 -113.474542 
L 261.406829 -115.182896 
L 263.125513 -113.474542 
L 264.844197 -113.474542 
L 266.562881 -115.182896 
L 268.281564 -115.22568 
L 270.000248 -118.077833 
L 271.718932 -113.474542 
L 273.437615 -113.474542 
L 275.156299 -113.474542 
L 276.874983 -113.474542 
L 278.593666 -113.474542 
L 280.31235 -113.474542 
L 282.031034 -115.22568 
L 283.749718 -118.077833 
L 285.468401 -113.474542 
L 287.187085 -113.474542 
L 288.905769 -113.474542 
L 290.624452 -113.474542 
L 292.343136 -115.182896 
L 294.06182 -115.182896 
L 295.780503 -113.474542 
L 297.499187 -118.077833 
L 299.217871 -113.474542 
L 300.936555 -113.474542 
L 302.655238 -113.474542 
L 304.373922 -115.182896 
L 306.092606 -113.474542 
L 307.811289 -113.474542 
L 309.529973 -113.474542 
L 311.248657 -113.474542 
L 312.96734 -118.077833 
L 314.686024 -113.429684 
L 316.404708 -117.969461 
L 318.123392 -113.474542 
L 319.842075 -118.077833 
L 321.560759 -113.474542 
L 323.279443 -113.474542 
L 324.998126 -115.182896 
L 326.71681 -113.474542 
L 328.435494 -113.474542 
L 330.154177 -113.474542 
L 331.872861 -118.038224 
L 333.591545 -113.474542 
L 335.310229 -113.474542 
L 337.028912 -108.21628 
L 338.747596 -119.590413 
L 340.46628 -113.474542 
L 342.184963 -113.474542 
L 343.903647 -113.474542 
L 345.622331 -113.474542 
L 347.341014 -113.474542 
L 349.059698 -115.22568 
L 350.778382 -113.474542 
L 352.497066 -115.14456 
L 354.215749 -108.860618 
L 355.934433 -78.556366 
L 357.653117 -77.245261 
L 359.3718 -81.453341 
L 361.090484 -77.245261 
L 362.809168 -77.245261 
L 364.527851 -82.723666 
L 366.246535 -75.850481 
L 367.965219 -77.245261 
L 369.683903 -78.589381 
L 371.402586 -77.245261 
L 373.12127 -77.245261 
L 374.839954 -77.245261 
L 376.558637 -77.245261 
L 378.277321 -77.245261 
L 379.996005 -77.245261 
L 381.714688 -82.723666 
L 383.433372 -72.961189 
L 385.152056 -72.961189 
L 386.87074 -80.340212 
L 388.589423 -72.961189 
L 390.308107 -72.961189 
L 392.026791 -72.961189 
L 393.745474 -72.219681 
L 395.464158 -72.219681 
L 397.182842 -72.961189 
L 398.901525 -72.961189 
L 400.620209 -72.961189 
L 402.338893 -72.961189 
L 404.057576 -72.961189 
L 405.77626 -73.688133 
L 407.494944 -72.961189 
L 409.213628 -72.961189 
L 410.932311 -72.219681 
L 412.650995 -73.670132 
L 414.369679 -72.961189 
L 416.088362 -80.340212 
L 417.807046 -80.340212 
L 419.52573 -72.961189 
L 421.244413 -72.961189 
L 422.963097 -72.942831 
L 422.963097 -152.42515 
L 422.963097 -152.42515 
L 421.244413 -153.4506 
L 419.52573 -149.833547 
L 417.807046 -153.4506 
L 416.088362 -153.4506 
L 414.369679 -152.42515 
L 412.650995 -149.833547 
L 410.932311 -149.833547 
L 409.213628 -152.42515 
L 407.494944 -153.4506 
L 405.77626 -152.42515 
L 404.057576 -153.4506 
L 402.338893 -153.457431 
L 400.620209 -152.42515 
L 398.901525 -152.42515 
L 397.182842 -153.4506 
L 395.464158 -152.42515 
L 393.745474 -152.42515 
L 392.026791 -150.548503 
L 390.308107 -152.42515 
L 388.589423 -152.42515 
L 386.87074 -182.370685 
L 385.152056 -182.370685 
L 383.433372 -182.370685 
L 381.714688 -180.751864 
L 379.996005 -182.830785 
L 378.277321 -179.474092 
L 376.558637 -180.796291 
L 374.839954 -182.488627 
L 373.12127 -182.488627 
L 371.402586 -182.488627 
L 369.683903 -178.978083 
L 367.965219 -182.497219 
L 366.246535 -182.830785 
L 364.527851 -182.488627 
L 362.809168 -182.830785 
L 361.090484 -182.830785 
L 359.3718 -182.488627 
L 357.653117 -182.497219 
L 355.934433 -179.440742 
L 354.215749 -182.952097 
L 352.497066 -182.941641 
L 350.778382 -181.251895 
L 349.059698 -183.684393 
L 347.341014 -182.941641 
L 345.622331 -182.309236 
L 343.903647 -183.684393 
L 342.184963 -183.158811 
L 340.46628 -181.796179 
L 338.747596 -183.177453 
L 337.028912 -183.897261 
L 335.310229 -183.897261 
L 333.591545 -184.882627 
L 331.872861 -183.158811 
L 330.154177 -183.158811 
L 328.435494 -183.158811 
L 326.71681 -182.309236 
L 324.998126 -180.478194 
L 323.279443 -183.177453 
L 321.560759 -183.158811 
L 319.842075 -183.922217 
L 318.123392 -183.158811 
L 316.404708 -183.897261 
L 314.686024 -183.922217 
L 312.96734 -183.158811 
L 311.248657 -183.897261 
L 309.529973 -181.265264 
L 307.811289 -183.158811 
L 306.092606 -183.177453 
L 304.373922 -183.158811 
L 302.655238 -183.897261 
L 300.936555 -183.158811 
L 299.217871 -182.330715 
L 297.499187 -183.158811 
L 295.780503 -181.265264 
L 294.06182 -183.158811 
L 292.343136 -183.158811 
L 290.624452 -183.158811 
L 288.905769 -188.452149 
L 287.187085 -187.558481 
L 285.468401 -187.558481 
L 283.749718 -187.558481 
L 282.031034 -187.558481 
L 280.31235 -187.558481 
L 278.593666 -187.558481 
L 276.874983 -188.452149 
L 275.156299 -186.890216 
L 273.437615 -186.890216 
L 271.718932 -187.558481 
L 270.000248 -187.558481 
L 268.281564 -187.558481 
L 266.562881 -187.581088 
L 264.844197 -186.890216 
L 263.125513 -186.864536 
L 261.406829 -187.581088 
L 259.688146 -187.558481 
L 257.969462 -187.558481 
L 256.250778 -186.907071 
L 254.532095 -188.452149 
L 252.813411 -188.452149 
L 251.094727 -188.452149 
L 249.376044 -186.890216 
L 247.65736 -187.558481 
L 245.938676 -187.558481 
L 244.219992 -187.558481 
L 242.501309 -188.452149 
L 240.782625 -187.558481 
L 239.063941 -188.452149 
L 237.345258 -186.890216 
L 235.626574 -186.907071 
L 233.90789 -187.558481 
L 232.189207 -186.890216 
L 230.470523 -188.452149 
L 228.751839 -187.558481 
L 227.033155 -188.452149 
L 225.314472 -186.890216 
L 223.595788 -187.558481 
L 221.877104 -188.452149 
L 220.158421 -187.558481 
L 218.439737 -190.534614 
L 216.721053 -190.349034 
L 215.00237 -190.349034 
L 213.283686 -190.162518 
L 211.565002 -190.349034 
L 209.846318 -203.416715 
L 208.127635 -202.982712 
L 206.408951 -203.416715 
L 204.690267 -202.993624 
L 202.971584 -201.336187 
L 201.2529 -203.416715 
L 199.534216 -200.15624 
L 197.815533 -203.416715 
L 196.096849 -203.416715 
L 194.378165 -203.416715 
L 192.659481 -202.982712 
L 190.940798 -203.416715 
L 189.222114 -203.416715 
L 187.50343 -202.982712 
L 185.784747 -202.982712 
L 184.066063 -202.993624 
L 182.347379 -203.416715 
L 180.628696 -202.993624 
L 178.910012 -203.416715 
L 177.191328 -200.864951 
L 175.472644 -203.008523 
L 173.753961 -200.876805 
L 172.035277 -204.001384 
L 170.316593 -200.864951 
L 168.59791 -204.0192 
L 166.879226 -204.030086 
L 165.160542 -203.039115 
L 163.441859 -202.982712 
L 161.723175 -204.001384 
L 160.004491 -204.001384 
L 158.285807 -202.217281 
L 156.567124 -203.039115 
L 154.84844 -204.001384 
L 153.129756 -205.152106 
L 151.411073 -204.001384 
L 149.692389 -204.001384 
L 147.973705 -204.001384 
L 146.255022 -204.001384 
L 144.536338 -203.039115 
L 142.817654 -205.132451 
L 141.098971 -204.001384 
L 139.380287 -203.039115 
L 137.661603 -204.030086 
L 135.942919 -204.001384 
L 134.224236 -210.307123 
L 132.505552 -210.944389 
L 130.786868 -210.879126 
L 129.068185 -210.879126 
L 127.349501 -211.704243 
L 125.630817 -211.704243 
L 123.912134 -234.198034 
L 122.19345 -234.606886 
L 120.474766 -234.198034 
L 118.756082 -234.198034 
L 117.037399 -230.790378 
L 115.318715 -269.538493 
L 113.600031 -269.717414 
L 111.881348 -269.542768 
L 110.162664 -269.538493 
L 108.44398 -269.542768 
L 106.725297 -269.544319 
L 105.006613 -275.275484 
L 103.287929 -274.254513 
L 101.569245 -274.265614 
L 99.850562 -274.254513 
L 98.131878 -274.832317 
L 96.413194 -274.832317 
L 94.694511 -274.832317 
L 92.975827 -272.139473 
L 91.257143 -280.464499 
L 89.53846 -280.464499 
L 87.819776 -280.919238 
L 86.101092 -282.498073 
L 84.382408 -282.524439 
L 82.663725 -285.63973 
L 80.945041 -304.092205 
z
" style="stroke: #4c72b0; stroke-opacity: 0.2; stroke-width: 0.8"/>
    </defs>
    <g clip-path="url(#pea9fc6f038)">
     <use xlink:href="#m74ed734706" x="0" y="345.6" style="fill: #4c72b0; fill-opacity: 0.2; stroke: #4c72b0; stroke-opacity: 0.2; stroke-width: 0.8"/>
    </g>
   </g>
   <g id="PolyCollection_2">
    <defs>
     <path id="md8464320a5" d="M 80.945041 -309.205497 
L 80.945041 -226.428336 
L 82.663725 -226.428336 
L 84.382408 -206.236424 
L 86.101092 -206.848493 
L 87.819776 -204.260141 
L 89.53846 -204.260141 
L 91.257143 -198.70601 
L 92.975827 -195.935855 
L 94.694511 -195.935855 
L 96.413194 -187.069569 
L 98.131878 -177.290865 
L 99.850562 -176.793207 
L 101.569245 -175.581366 
L 103.287929 -168.880606 
L 105.006613 -168.933387 
L 106.725297 -168.933387 
L 108.44398 -166.716044 
L 110.162664 -158.125647 
L 111.881348 -143.380741 
L 113.600031 -145.728232 
L 115.318715 -143.380741 
L 117.037399 -143.380741 
L 118.756082 -145.768033 
L 120.474766 -143.380741 
L 122.19345 -145.768033 
L 123.912134 -143.380741 
L 125.630817 -143.380741 
L 127.349501 -143.380741 
L 129.068185 -143.380741 
L 130.786868 -145.768033 
L 132.505552 -143.380741 
L 134.224236 -143.380741 
L 135.942919 -140.828779 
L 137.661603 -145.728232 
L 139.380287 -143.380741 
L 141.098971 -143.380741 
L 142.817654 -144.122782 
L 144.536338 -144.122782 
L 146.255022 -143.380741 
L 147.973705 -143.380741 
L 149.692389 -144.141614 
L 151.411073 -143.380741 
L 153.129756 -143.380741 
L 154.84844 -144.141614 
L 156.567124 -145.768033 
L 158.285807 -143.380741 
L 160.004491 -143.380741 
L 161.723175 -143.380741 
L 163.441859 -143.380741 
L 165.160542 -143.380741 
L 166.879226 -145.768033 
L 168.59791 -139.596719 
L 170.316593 -139.596719 
L 172.035277 -140.328749 
L 173.753961 -139.596719 
L 175.472644 -139.596719 
L 177.191328 -138.171959 
L 178.910012 -138.932425 
L 180.628696 -138.932425 
L 182.347379 -138.932425 
L 184.066063 -138.932425 
L 185.784747 -137.060566 
L 187.50343 -137.060566 
L 189.222114 -137.843972 
L 190.940798 -137.060566 
L 192.659481 -137.060566 
L 194.378165 -137.060566 
L 196.096849 -137.824587 
L 197.815533 -137.060566 
L 199.534216 -137.843972 
L 201.2529 -137.060566 
L 202.971584 -137.843972 
L 204.690267 -137.060566 
L 206.408951 -137.843972 
L 208.127635 -137.843972 
L 209.846318 -136.26022 
L 211.565002 -137.843972 
L 213.283686 -137.060566 
L 215.00237 -137.060566 
L 216.721053 -137.060566 
L 218.439737 -137.040767 
L 220.158421 -137.060566 
L 221.877104 -137.060566 
L 223.595788 -136.26022 
L 225.314472 -137.843972 
L 227.033155 -137.824587 
L 228.751839 -137.060566 
L 230.470523 -137.060566 
L 232.189207 -137.060566 
L 233.90789 -137.060566 
L 235.626574 -137.060566 
L 237.345258 -137.060566 
L 239.063941 -137.060566 
L 240.782625 -137.060566 
L 242.501309 -137.843972 
L 244.219992 -136.26022 
L 245.938676 -137.060566 
L 247.65736 -137.843972 
L 249.376044 -137.060566 
L 251.094727 -137.824587 
L 252.813411 -137.843972 
L 254.532095 -137.060566 
L 256.250778 -137.060566 
L 257.969462 -137.060566 
L 259.688146 -137.843972 
L 261.406829 -137.060566 
L 263.125513 -137.060566 
L 264.844197 -137.843972 
L 266.562881 -137.060566 
L 268.281564 -137.060566 
L 270.000248 -137.060566 
L 271.718932 -137.060566 
L 273.437615 -137.060566 
L 275.156299 -137.843972 
L 276.874983 -137.060566 
L 278.593666 -137.060566 
L 280.31235 -137.843972 
L 282.031034 -137.060566 
L 283.749718 -137.060566 
L 285.468401 -137.060566 
L 287.187085 -137.060566 
L 288.905769 -137.060566 
L 290.624452 -137.824587 
L 292.343136 -137.060566 
L 294.06182 -137.843972 
L 295.780503 -136.26022 
L 297.499187 -137.060566 
L 299.217871 -136.26022 
L 300.936555 -137.060566 
L 302.655238 -138.611137 
L 304.373922 -137.060566 
L 306.092606 -137.060566 
L 307.811289 -138.592151 
L 309.529973 -137.060566 
L 311.248657 -137.843972 
L 312.96734 -137.060566 
L 314.686024 -137.060566 
L 316.404708 -137.060566 
L 318.123392 -137.060566 
L 319.842075 -137.040767 
L 321.560759 -137.060566 
L 323.279443 -137.060566 
L 324.998126 -137.060566 
L 326.71681 -137.040767 
L 328.435494 -137.060566 
L 330.154177 -137.060566 
L 331.872861 -137.843972 
L 333.591545 -137.380768 
L 335.310229 -137.060566 
L 337.028912 -137.040767 
L 338.747596 -137.060566 
L 340.46628 -137.060566 
L 342.184963 -137.843972 
L 343.903647 -137.832664 
L 345.622331 -137.060566 
L 347.341014 -136.26022 
L 349.059698 -135.019985 
L 350.778382 -135.017714 
L 352.497066 -134.929056 
L 354.215749 -133.285083 
L 355.934433 -134.929056 
L 357.653117 -134.929056 
L 359.3718 -133.285083 
L 361.090484 -135.019985 
L 362.809168 -134.929056 
L 364.527851 -134.929056 
L 366.246535 -134.929056 
L 367.965219 -134.929056 
L 369.683903 -133.682401 
L 371.402586 -134.403435 
L 373.12127 -134.403435 
L 374.839954 -133.682401 
L 376.558637 -134.403435 
L 378.277321 -133.648183 
L 379.996005 -133.682401 
L 381.714688 -133.036803 
L 383.433372 -133.682401 
L 385.152056 -129.7353 
L 386.87074 -104.943059 
L 388.589423 -105.507992 
L 390.308107 -104.943059 
L 392.026791 -104.943059 
L 393.745474 -104.943059 
L 395.464158 -104.928495 
L 397.182842 -104.943059 
L 398.901525 -104.943059 
L 400.620209 -104.943059 
L 402.338893 -104.943059 
L 404.057576 -104.943059 
L 405.77626 -104.943059 
L 407.494944 -104.943059 
L 409.213628 -105.506632 
L 410.932311 -104.943059 
L 412.650995 -104.943059 
L 414.369679 -88.040169 
L 416.088362 -76.141334 
L 417.807046 -76.173028 
L 419.52573 -79.116059 
L 421.244413 -79.116059 
L 422.963097 -76.173028 
L 422.963097 -142.352145 
L 422.963097 -142.352145 
L 421.244413 -142.352145 
L 419.52573 -144.820732 
L 417.807046 -141.620583 
L 416.088362 -142.352145 
L 414.369679 -142.356883 
L 412.650995 -148.227359 
L 410.932311 -148.633147 
L 409.213628 -149.50466 
L 407.494944 -149.329521 
L 405.77626 -148.111767 
L 404.057576 -148.111767 
L 402.338893 -149.329521 
L 400.620209 -149.50466 
L 398.901525 -149.50466 
L 397.182842 -149.329521 
L 395.464158 -147.934452 
L 393.745474 -149.50466 
L 392.026791 -149.329521 
L 390.308107 -149.329521 
L 388.589423 -148.111767 
L 386.87074 -149.50466 
L 385.152056 -168.66135 
L 383.433372 -169.467182 
L 381.714688 -168.956433 
L 379.996005 -168.956433 
L 378.277321 -169.467182 
L 376.558637 -168.956433 
L 374.839954 -168.66135 
L 373.12127 -168.66135 
L 371.402586 -168.66135 
L 369.683903 -168.943243 
L 367.965219 -168.943243 
L 366.246535 -168.943243 
L 364.527851 -169.722285 
L 362.809168 -168.943243 
L 361.090484 -169.707469 
L 359.3718 -169.707469 
L 357.653117 -168.943243 
L 355.934433 -168.962543 
L 354.215749 -169.707469 
L 352.497066 -169.707469 
L 350.778382 -169.707469 
L 349.059698 -168.943243 
L 347.341014 -169.386555 
L 345.622331 -171.066909 
L 343.903647 -169.37829 
L 342.184963 -169.707469 
L 340.46628 -169.37829 
L 338.747596 -168.918767 
L 337.028912 -169.722285 
L 335.310229 -169.707469 
L 333.591545 -169.37829 
L 331.872861 -168.906909 
L 330.154177 -169.707469 
L 328.435494 -169.37829 
L 326.71681 -169.707469 
L 324.998126 -169.386555 
L 323.279443 -169.722285 
L 321.560759 -169.707469 
L 319.842075 -169.37829 
L 318.123392 -170.863787 
L 316.404708 -170.863787 
L 314.686024 -171.18007 
L 312.96734 -171.18007 
L 311.248657 -170.295524 
L 309.529973 -171.18007 
L 307.811289 -171.18007 
L 306.092606 -170.863787 
L 304.373922 -171.194721 
L 302.655238 -170.863787 
L 300.936555 -171.18007 
L 299.217871 -170.863787 
L 297.499187 -170.863787 
L 295.780503 -171.761624 
L 294.06182 -171.18007 
L 292.343136 -171.18007 
L 290.624452 -170.863787 
L 288.905769 -171.18007 
L 287.187085 -171.18007 
L 285.468401 -170.863787 
L 283.749718 -170.863787 
L 282.031034 -170.863787 
L 280.31235 -170.863787 
L 278.593666 -171.194721 
L 276.874983 -171.761624 
L 275.156299 -171.194721 
L 273.437615 -170.863787 
L 271.718932 -170.295524 
L 270.000248 -171.18007 
L 268.281564 -170.863787 
L 266.562881 -171.18007 
L 264.844197 -171.18007 
L 263.125513 -170.295524 
L 261.406829 -171.18007 
L 259.688146 -171.18007 
L 257.969462 -170.863787 
L 256.250778 -169.544455 
L 254.532095 -171.18007 
L 252.813411 -170.309838 
L 251.094727 -171.18007 
L 249.376044 -171.18007 
L 247.65736 -170.863787 
L 245.938676 -170.863787 
L 244.219992 -170.863787 
L 242.501309 -170.863787 
L 240.782625 -171.18007 
L 239.063941 -170.871727 
L 237.345258 -169.524995 
L 235.626574 -170.863787 
L 233.90789 -171.18007 
L 232.189207 -169.544455 
L 230.470523 -170.871727 
L 228.751839 -171.18007 
L 227.033155 -170.863787 
L 225.314472 -171.18007 
L 223.595788 -171.18007 
L 221.877104 -170.863787 
L 220.158421 -171.18007 
L 218.439737 -171.18007 
L 216.721053 -170.863787 
L 215.00237 -171.18007 
L 213.283686 -171.194721 
L 211.565002 -170.863787 
L 209.846318 -170.863787 
L 208.127635 -186.216626 
L 206.408951 -186.216626 
L 204.690267 -186.216626 
L 202.971584 -186.216626 
L 201.2529 -186.216626 
L 199.534216 -186.006242 
L 197.815533 -186.006242 
L 196.096849 -186.216626 
L 194.378165 -187.062475 
L 192.659481 -186.216626 
L 190.940798 -186.006242 
L 189.222114 -186.216626 
L 187.50343 -186.006242 
L 185.784747 -186.216626 
L 184.066063 -186.216626 
L 182.347379 -186.006242 
L 180.628696 -186.216626 
L 178.910012 -186.006242 
L 177.191328 -187.070532 
L 175.472644 -186.216626 
L 173.753961 -186.216626 
L 172.035277 -186.216626 
L 170.316593 -186.216626 
L 168.59791 -186.006242 
L 166.879226 -186.006242 
L 165.160542 -187.062475 
L 163.441859 -186.006242 
L 161.723175 -186.777632 
L 160.004491 -186.006242 
L 158.285807 -186.784779 
L 156.567124 -186.777632 
L 154.84844 -186.777632 
L 153.129756 -186.006242 
L 151.411073 -186.025724 
L 149.692389 -186.006242 
L 147.973705 -186.777632 
L 146.255022 -186.777632 
L 144.536338 -186.006242 
L 142.817654 -186.777632 
L 141.098971 -186.777632 
L 139.380287 -186.777632 
L 137.661603 -186.006242 
L 135.942919 -186.777632 
L 134.224236 -185.066849 
L 132.505552 -186.777632 
L 130.786868 -186.777632 
L 129.068185 -186.006242 
L 127.349501 -187.765716 
L 125.630817 -186.777632 
L 123.912134 -186.777632 
L 122.19345 -186.006242 
L 120.474766 -186.777632 
L 118.756082 -186.025724 
L 117.037399 -186.777632 
L 115.318715 -184.284955 
L 113.600031 -186.006242 
L 111.881348 -186.777632 
L 110.162664 -208.453586 
L 108.44398 -210.857569 
L 106.725297 -220.053608 
L 105.006613 -218.704451 
L 103.287929 -218.704451 
L 101.569245 -219.51966 
L 99.850562 -219.947643 
L 98.131878 -219.51966 
L 96.413194 -221.682975 
L 94.694511 -222.929545 
L 92.975827 -221.687299 
L 91.257143 -221.682975 
L 89.53846 -222.692848 
L 87.819776 -222.692848 
L 86.101092 -229.038688 
L 84.382408 -229.378959 
L 82.663725 -289.255013 
L 80.945041 -309.205497 
z
" style="stroke: #dd8452; stroke-opacity: 0.2; stroke-width: 0.8"/>
    </defs>
    <g clip-path="url(#pea9fc6f038)">
     <use xlink:href="#md8464320a5" x="0" y="345.6" style="fill: #dd8452; fill-opacity: 0.2; stroke: #dd8452; stroke-opacity: 0.2; stroke-width: 0.8"/>
    </g>
   </g>
   <g id="PolyCollection_3">
    <defs>
     <path id="m4350ac0eaa" d="M 80.945041 -312.17 
L 80.945041 -245.554383 
L 82.663725 -200.10843 
L 84.382408 -198.114814 
L 86.101092 -194.717266 
L 87.819776 -177.092094 
L 89.53846 -171.700871 
L 91.257143 -176.033361 
L 92.975827 -177.092094 
L 94.694511 -171.700871 
L 96.413194 -171.700871 
L 98.131878 -165.388196 
L 99.850562 -180.776367 
L 101.569245 -176.033361 
L 103.287929 -177.092094 
L 105.006613 -171.700871 
L 106.725297 -163.328223 
L 108.44398 -156.389487 
L 110.162664 -152.707822 
L 111.881348 -153.060962 
L 113.600031 -153.060962 
L 115.318715 -156.389487 
L 117.037399 -156.389487 
L 118.756082 -152.707822 
L 120.474766 -153.060962 
L 122.19345 -153.060962 
L 123.912134 -134.505618 
L 125.630817 -135.054014 
L 127.349501 -105.298201 
L 129.068185 -105.141576 
L 130.786868 -104.605456 
L 132.505552 -103.881217 
L 134.224236 -103.667053 
L 135.942919 -103.282755 
L 137.661603 -103.31205 
L 139.380287 -103.667053 
L 141.098971 -103.658219 
L 142.817654 -103.31205 
L 144.536338 -103.31205 
L 146.255022 -103.31205 
L 147.973705 -103.31205 
L 149.692389 -103.667053 
L 151.411073 -103.667053 
L 153.129756 -103.31205 
L 154.84844 -103.31205 
L 156.567124 -103.667053 
L 158.285807 -103.667053 
L 160.004491 -103.31205 
L 161.723175 -103.667053 
L 163.441859 -103.282755 
L 165.160542 -103.667053 
L 166.879226 -103.31205 
L 168.59791 -103.667053 
L 170.316593 -103.31205 
L 172.035277 -103.658219 
L 173.753961 -104.226254 
L 175.472644 -104.230829 
L 177.191328 -103.31205 
L 178.910012 -103.667053 
L 180.628696 -103.311318 
L 182.347379 -103.31205 
L 184.066063 -103.31205 
L 185.784747 -103.658219 
L 187.50343 -103.31205 
L 189.222114 -103.658219 
L 190.940798 -103.667053 
L 192.659481 -103.667053 
L 194.378165 -103.31205 
L 196.096849 -103.31205 
L 197.815533 -103.667053 
L 199.534216 -103.881217 
L 201.2529 -103.667053 
L 202.971584 -103.667053 
L 204.690267 -103.667053 
L 206.408951 -103.311318 
L 208.127635 -103.667053 
L 209.846318 -103.31205 
L 211.565002 -103.31205 
L 213.283686 -103.667053 
L 215.00237 -103.667053 
L 216.721053 -103.875878 
L 218.439737 -104.043256 
L 220.158421 -103.31205 
L 221.877104 -103.31205 
L 223.595788 -103.311318 
L 225.314472 -104.043256 
L 227.033155 -103.31205 
L 228.751839 -103.881217 
L 230.470523 -103.667053 
L 232.189207 -103.875878 
L 233.90789 -103.282755 
L 235.626574 -103.31205 
L 237.345258 -103.282755 
L 239.063941 -103.658219 
L 240.782625 -103.31205 
L 242.501309 -103.31205 
L 244.219992 -104.226254 
L 245.938676 -103.31205 
L 247.65736 -103.282755 
L 249.376044 -103.667053 
L 251.094727 -104.230829 
L 252.813411 -103.667053 
L 254.532095 -103.31205 
L 256.250778 -103.658219 
L 257.969462 -103.667053 
L 259.688146 -103.667053 
L 261.406829 -103.31205 
L 263.125513 -103.667053 
L 264.844197 -103.31205 
L 266.562881 -103.31205 
L 268.281564 -104.043256 
L 270.000248 -103.881217 
L 271.718932 -103.31205 
L 273.437615 -103.667053 
L 275.156299 -103.667053 
L 276.874983 -103.311318 
L 278.593666 -103.282755 
L 280.31235 -103.667053 
L 282.031034 -103.658219 
L 283.749718 -103.31205 
L 285.468401 -103.667053 
L 287.187085 -103.667053 
L 288.905769 -103.667053 
L 290.624452 -103.667053 
L 292.343136 -103.31205 
L 294.06182 -103.667053 
L 295.780503 -103.881217 
L 297.499187 -103.667053 
L 299.217871 -103.31205 
L 300.936555 -103.282755 
L 302.655238 -103.667053 
L 304.373922 -103.667053 
L 306.092606 -103.311318 
L 307.811289 -103.667053 
L 309.529973 -103.31205 
L 311.248657 -103.667053 
L 312.96734 -103.875878 
L 314.686024 -103.667053 
L 316.404708 -103.667053 
L 318.123392 -103.311318 
L 319.842075 -103.31205 
L 321.560759 -103.31205 
L 323.279443 -103.31205 
L 324.998126 -103.311318 
L 326.71681 -103.31205 
L 328.435494 -103.31205 
L 330.154177 -103.667053 
L 331.872861 -103.667053 
L 333.591545 -103.881217 
L 335.310229 -103.667053 
L 337.028912 -103.31205 
L 338.747596 -103.31205 
L 340.46628 -103.31205 
L 342.184963 -103.31205 
L 343.903647 -103.31205 
L 345.622331 -103.282755 
L 347.341014 -103.658219 
L 349.059698 -103.31205 
L 350.778382 -102.924029 
L 352.497066 -103.31205 
L 354.215749 -103.667053 
L 355.934433 -103.282755 
L 357.653117 -102.905819 
L 359.3718 -102.924029 
L 361.090484 -103.094767 
L 362.809168 -102.924029 
L 364.527851 -102.924029 
L 366.246535 -103.282755 
L 367.965219 -102.924029 
L 369.683903 -103.094767 
L 371.402586 -103.282755 
L 373.12127 -103.094767 
L 374.839954 -103.094767 
L 376.558637 -103.094767 
L 378.277321 -102.924029 
L 379.996005 -103.094767 
L 381.714688 -102.905819 
L 383.433372 -103.094767 
L 385.152056 -103.282755 
L 386.87074 -102.905819 
L 388.589423 -102.923574 
L 390.308107 -103.094767 
L 392.026791 -102.905819 
L 393.745474 -102.924029 
L 395.464158 -102.734205 
L 397.182842 -103.282755 
L 398.901525 -103.094767 
L 400.620209 -103.094767 
L 402.338893 -102.924029 
L 404.057576 -102.905819 
L 405.77626 -73.949737 
L 407.494944 -73.949737 
L 409.213628 -73.949737 
L 410.932311 -75.196082 
L 412.650995 -76.402253 
L 414.369679 -75.196082 
L 416.088362 -76.402253 
L 417.807046 -76.402253 
L 419.52573 -76.750991 
L 421.244413 -75.196082 
L 422.963097 -75.196082 
L 422.963097 -108.028557 
L 422.963097 -108.028557 
L 421.244413 -107.87917 
L 419.52573 -108.028557 
L 417.807046 -108.028557 
L 416.088362 -108.028557 
L 414.369679 -107.882912 
L 412.650995 -108.028557 
L 410.932311 -108.028557 
L 409.213628 -107.87917 
L 407.494944 -108.028557 
L 405.77626 -108.028557 
L 404.057576 -108.69227 
L 402.338893 -108.667184 
L 400.620209 -108.69227 
L 398.901525 -108.676689 
L 397.182842 -108.66694 
L 395.464158 -108.533333 
L 393.745474 -108.50446 
L 392.026791 -108.529901 
L 390.308107 -108.676689 
L 388.589423 -108.66694 
L 386.87074 -108.529901 
L 385.152056 -108.676689 
L 383.433372 -108.66694 
L 381.714688 -108.529901 
L 379.996005 -108.66694 
L 378.277321 -108.533333 
L 376.558637 -108.676689 
L 374.839954 -108.529901 
L 373.12127 -108.529901 
L 371.402586 -108.529901 
L 369.683903 -108.69227 
L 367.965219 -108.676689 
L 366.246535 -108.533333 
L 364.527851 -108.529901 
L 362.809168 -108.533333 
L 361.090484 -108.69227 
L 359.3718 -108.50446 
L 357.653117 -108.69227 
L 355.934433 -108.676689 
L 354.215749 -144.139437 
L 352.497066 -144.129719 
L 350.778382 -144.139437 
L 349.059698 -144.139437 
L 347.341014 -144.129719 
L 345.622331 -144.139437 
L 343.903647 -144.129719 
L 342.184963 -144.014098 
L 340.46628 -144.014098 
L 338.747596 -144.139437 
L 337.028912 -144.139437 
L 335.310229 -144.139437 
L 333.591545 -144.139437 
L 331.872861 -144.011129 
L 330.154177 -144.011129 
L 328.435494 -144.129719 
L 326.71681 -144.011129 
L 324.998126 -144.011129 
L 323.279443 -144.139437 
L 321.560759 -144.139437 
L 319.842075 -144.011129 
L 318.123392 -144.139437 
L 316.404708 -144.011129 
L 314.686024 -144.011129 
L 312.96734 -144.139437 
L 311.248657 -144.129961 
L 309.529973 -144.014098 
L 307.811289 -144.139437 
L 306.092606 -144.129961 
L 304.373922 -143.895137 
L 302.655238 -144.011129 
L 300.936555 -144.014098 
L 299.217871 -144.011129 
L 297.499187 -144.014098 
L 295.780503 -144.129719 
L 294.06182 -143.895137 
L 292.343136 -144.139437 
L 290.624452 -144.139437 
L 288.905769 -144.129961 
L 287.187085 -144.139437 
L 285.468401 -144.011129 
L 283.749718 -144.011129 
L 282.031034 -144.139437 
L 280.31235 -144.139437 
L 278.593666 -144.257616 
L 276.874983 -144.129961 
L 275.156299 -144.011129 
L 273.437615 -144.011129 
L 271.718932 -144.011129 
L 270.000248 -144.139437 
L 268.281564 -144.011129 
L 266.562881 -144.011129 
L 264.844197 -144.139437 
L 263.125513 -144.011129 
L 261.406829 -144.129719 
L 259.688146 -144.139437 
L 257.969462 -143.704871 
L 256.250778 -144.129719 
L 254.532095 -144.011129 
L 252.813411 -143.895137 
L 251.094727 -144.257616 
L 249.376044 -144.011129 
L 247.65736 -144.129719 
L 245.938676 -144.014098 
L 244.219992 -144.129719 
L 242.501309 -143.892158 
L 240.782625 -143.895137 
L 239.063941 -144.011129 
L 237.345258 -143.895137 
L 235.626574 -144.011129 
L 233.90789 -144.011129 
L 232.189207 -144.014098 
L 230.470523 -144.139437 
L 228.751839 -144.139437 
L 227.033155 -144.139437 
L 225.314472 -144.011129 
L 223.595788 -144.011129 
L 221.877104 -144.011129 
L 220.158421 -144.014098 
L 218.439737 -144.014098 
L 216.721053 -144.014098 
L 215.00237 -144.011129 
L 213.283686 -144.129719 
L 211.565002 -144.011129 
L 209.846318 -143.895137 
L 208.127635 -143.895137 
L 206.408951 -144.139437 
L 204.690267 -144.139437 
L 202.971584 -144.011129 
L 201.2529 -144.129719 
L 199.534216 -143.895137 
L 197.815533 -143.700057 
L 196.096849 -144.129719 
L 194.378165 -144.129961 
L 192.659481 -144.011129 
L 190.940798 -144.014098 
L 189.222114 -144.014098 
L 187.50343 -144.139437 
L 185.784747 -144.129961 
L 184.066063 -144.011129 
L 182.347379 -144.011129 
L 180.628696 -144.129719 
L 178.910012 -143.700057 
L 177.191328 -144.139437 
L 175.472644 -144.139437 
L 173.753961 -144.129719 
L 172.035277 -144.014098 
L 170.316593 -144.011129 
L 168.59791 -144.011129 
L 166.879226 -143.895137 
L 165.160542 -144.011129 
L 163.441859 -144.129961 
L 161.723175 -144.129961 
L 160.004491 -144.011129 
L 158.285807 -144.011129 
L 156.567124 -144.139437 
L 154.84844 -144.011129 
L 153.129756 -144.011129 
L 151.411073 -144.011129 
L 149.692389 -143.700057 
L 147.973705 -143.700057 
L 146.255022 -144.129719 
L 144.536338 -144.139437 
L 142.817654 -144.129961 
L 141.098971 -144.129719 
L 139.380287 -143.895137 
L 137.661603 -192.471693 
L 135.942919 -192.535777 
L 134.224236 -192.535777 
L 132.505552 -226.759318 
L 130.786868 -226.759318 
L 129.068185 -226.846113 
L 127.349501 -226.846113 
L 125.630817 -227.473582 
L 123.912134 -227.473582 
L 122.19345 -228.737767 
L 120.474766 -227.788511 
L 118.756082 -228.693393 
L 117.037399 -228.2382 
L 115.318715 -228.2382 
L 113.600031 -228.2382 
L 111.881348 -228.2382 
L 110.162664 -228.2382 
L 108.44398 -228.2382 
L 106.725297 -230.584081 
L 105.006613 -233.689476 
L 103.287929 -233.746168 
L 101.569245 -233.746168 
L 99.850562 -233.441517 
L 98.131878 -233.746168 
L 96.413194 -233.690894 
L 94.694511 -233.441517 
L 92.975827 -233.746168 
L 91.257143 -233.746168 
L 89.53846 -236.147195 
L 87.819776 -233.746168 
L 86.101092 -239.148271 
L 84.382408 -239.148271 
L 82.663725 -257.297739 
L 80.945041 -312.17 
z
" style="stroke: #55a868; stroke-opacity: 0.2; stroke-width: 0.8"/>
    </defs>
    <g clip-path="url(#pea9fc6f038)">
     <use xlink:href="#m4350ac0eaa" x="0" y="345.6" style="fill: #55a868; fill-opacity: 0.2; stroke: #55a868; stroke-opacity: 0.2; stroke-width: 0.8"/>
    </g>
   </g>
   <g id="PolyCollection_4">
    <defs>
     <path id="m02211cecd5" d="M 80.945041 -289.732268 
L 80.945041 -244.77204 
L 82.663725 -220.157014 
L 84.382408 -207.673124 
L 86.101092 -207.703625 
L 87.819776 -206.387378 
L 89.53846 -170.154696 
L 91.257143 -170.154696 
L 92.975827 -168.773327 
L 94.694511 -178.644518 
L 96.413194 -168.773327 
L 98.131878 -168.773327 
L 99.850562 -168.773327 
L 101.569245 -170.154696 
L 103.287929 -141.399557 
L 105.006613 -138.326603 
L 106.725297 -138.326603 
L 108.44398 -138.326603 
L 110.162664 -138.956776 
L 111.881348 -138.941152 
L 113.600031 -138.31071 
L 115.318715 -138.941152 
L 117.037399 -138.326603 
L 118.756082 -138.956776 
L 120.474766 -138.326603 
L 122.19345 -138.941152 
L 123.912134 -134.975213 
L 125.630817 -138.326603 
L 127.349501 -138.326603 
L 129.068185 -138.326603 
L 130.786868 -140.76474 
L 132.505552 -141.340412 
L 134.224236 -138.326603 
L 135.942919 -138.326603 
L 137.661603 -138.326603 
L 139.380287 -138.326603 
L 141.098971 -138.326603 
L 142.817654 -138.326603 
L 144.536338 -137.685514 
L 146.255022 -138.326603 
L 147.973705 -138.941152 
L 149.692389 -138.326603 
L 151.411073 -138.326603 
L 153.129756 -138.326603 
L 154.84844 -138.326603 
L 156.567124 -138.326603 
L 158.285807 -138.326603 
L 160.004491 -138.326603 
L 161.723175 -138.941152 
L 163.441859 -138.326603 
L 165.160542 -137.673172 
L 166.879226 -137.188611 
L 168.59791 -137.188611 
L 170.316593 -138.326603 
L 172.035277 -137.188611 
L 173.753961 -137.188611 
L 175.472644 -138.326603 
L 177.191328 -137.188611 
L 178.910012 -128.496654 
L 180.628696 -128.496654 
L 182.347379 -129.758524 
L 184.066063 -128.496654 
L 185.784747 -128.496654 
L 187.50343 -127.343229 
L 189.222114 -128.496654 
L 190.940798 -128.496654 
L 192.659481 -128.496654 
L 194.378165 -129.587661 
L 196.096849 -128.496654 
L 197.815533 -128.468252 
L 199.534216 -129.762192 
L 201.2529 -128.496654 
L 202.971584 -128.496654 
L 204.690267 -128.496654 
L 206.408951 -128.496654 
L 208.127635 -128.496654 
L 209.846318 -128.496654 
L 211.565002 -128.496654 
L 213.283686 -129.762192 
L 215.00237 -129.615217 
L 216.721053 -128.496654 
L 218.439737 -128.496654 
L 220.158421 -126.668366 
L 221.877104 -126.714612 
L 223.595788 -124.378673 
L 225.314472 -122.170658 
L 227.033155 -122.170658 
L 228.751839 -122.750613 
L 230.470523 -122.765364 
L 232.189207 -122.163551 
L 233.90789 -121.56624 
L 235.626574 -122.170658 
L 237.345258 -122.170658 
L 239.063941 -122.170658 
L 240.782625 -121.177476 
L 242.501309 -122.750613 
L 244.219992 -121.79797 
L 245.938676 -122.170658 
L 247.65736 -122.170658 
L 249.376044 -123.137884 
L 251.094727 -121.56624 
L 252.813411 -122.170658 
L 254.532095 -122.750613 
L 256.250778 -123.128616 
L 257.969462 -122.170658 
L 259.688146 -122.170658 
L 261.406829 -122.170658 
L 263.125513 -121.56624 
L 264.844197 -122.170658 
L 266.562881 -122.170658 
L 268.281564 -121.796482 
L 270.000248 -122.141173 
L 271.718932 -122.749887 
L 273.437615 -123.072569 
L 275.156299 -122.141173 
L 276.874983 -122.141173 
L 278.593666 -123.05722 
L 280.31235 -123.05722 
L 282.031034 -122.141173 
L 283.749718 -122.132778 
L 285.468401 -122.141173 
L 287.187085 -122.141173 
L 288.905769 -122.141173 
L 290.624452 -122.141173 
L 292.343136 -122.141173 
L 294.06182 -122.141173 
L 295.780503 -122.141173 
L 297.499187 -122.749887 
L 299.217871 -121.506274 
L 300.936555 -122.132774 
L 302.655238 -122.141173 
L 304.373922 -121.506274 
L 306.092606 -121.505771 
L 307.811289 -121.505771 
L 309.529973 -122.140844 
L 311.248657 -122.133667 
L 312.96734 -122.133667 
L 314.686024 -122.133667 
L 316.404708 -122.133667 
L 318.123392 -122.751088 
L 319.842075 -122.133667 
L 321.560759 -122.133667 
L 323.279443 -122.133667 
L 324.998126 -121.80305 
L 326.71681 -123.05331 
L 328.435494 -122.133667 
L 330.154177 -122.125437 
L 331.872861 -122.133667 
L 333.591545 -122.133667 
L 335.310229 -123.05331 
L 337.028912 -122.735777 
L 338.747596 -122.12532 
L 340.46628 -122.133547 
L 342.184963 -122.133547 
L 343.903647 -122.133547 
L 345.622331 -122.133547 
L 347.341014 -122.133547 
L 349.059698 -122.133547 
L 350.778382 -122.751088 
L 352.497066 -122.133547 
L 354.215749 -121.505527 
L 355.934433 -122.133547 
L 357.653117 -122.133547 
L 359.3718 -122.133547 
L 361.090484 -121.80305 
L 362.809168 -121.505527 
L 364.527851 -122.133547 
L 366.246535 -122.133547 
L 367.965219 -121.505527 
L 369.683903 -122.133547 
L 371.402586 -122.133547 
L 373.12127 -123.07636 
L 374.839954 -123.076276 
L 376.558637 -122.133339 
L 378.277321 -122.133339 
L 379.996005 -122.133339 
L 381.714688 -121.79564 
L 383.433372 -122.133339 
L 385.152056 -122.133339 
L 386.87074 -122.133339 
L 388.589423 -122.125118 
L 390.308107 -121.803049 
L 392.026791 -122.117773 
L 393.745474 -122.133339 
L 395.464158 -122.133339 
L 397.182842 -122.133339 
L 398.901525 -122.133339 
L 400.620209 -122.133339 
L 402.338893 -123.068154 
L 404.057576 -122.133339 
L 405.77626 -122.133339 
L 407.494944 -122.133339 
L 409.213628 -123.076258 
L 410.932311 -122.133339 
L 412.650995 -122.133339 
L 414.369679 -122.133339 
L 416.088362 -122.125118 
L 417.807046 -122.133339 
L 419.52573 -121.149789 
L 421.244413 -122.133339 
L 422.963097 -122.133339 
L 422.963097 -201.973435 
L 422.963097 -201.973435 
L 421.244413 -201.940304 
L 419.52573 -201.973435 
L 417.807046 -201.939454 
L 416.088362 -201.939454 
L 414.369679 -201.939454 
L 412.650995 -201.973435 
L 410.932311 -202.155425 
L 409.213628 -202.155425 
L 407.494944 -202.155425 
L 405.77626 -201.828741 
L 404.057576 -201.973435 
L 402.338893 -201.973435 
L 400.620209 -201.973435 
L 398.901525 -201.939455 
L 397.182842 -201.977996 
L 395.464158 -201.973435 
L 393.745474 -201.973435 
L 392.026791 -202.155425 
L 390.308107 -202.155425 
L 388.589423 -201.939455 
L 386.87074 -201.973435 
L 385.152056 -201.973435 
L 383.433372 -201.973435 
L 381.714688 -201.973435 
L 379.996005 -202.155426 
L 378.277321 -201.973435 
L 376.558637 -201.973435 
L 374.839954 -201.940305 
L 373.12127 -201.939455 
L 371.402586 -201.939455 
L 369.683903 -201.828754 
L 367.965219 -201.977996 
L 366.246535 -202.155437 
L 364.527851 -201.973435 
L 362.809168 -201.973435 
L 361.090484 -201.977996 
L 359.3718 -202.155437 
L 357.653117 -201.977996 
L 355.934433 -202.155437 
L 354.215749 -201.939455 
L 352.497066 -201.973435 
L 350.778382 -202.155437 
L 349.059698 -202.155437 
L 347.341014 -201.973435 
L 345.622331 -201.973435 
L 343.903647 -201.973435 
L 342.184963 -202.155437 
L 340.46628 -201.940305 
L 338.747596 -201.973435 
L 337.028912 -202.155437 
L 335.310229 -201.973435 
L 333.591545 -202.155437 
L 331.872861 -201.973435 
L 330.154177 -201.973435 
L 328.435494 -201.973435 
L 326.71681 -201.973435 
L 324.998126 -202.155437 
L 323.279443 -202.265181 
L 321.560759 -201.973435 
L 319.842075 -201.831539 
L 318.123392 -201.71772 
L 316.404708 -202.155437 
L 314.686024 -201.973435 
L 312.96734 -202.265181 
L 311.248657 -201.973435 
L 309.529973 -201.973435 
L 307.811289 -201.939598 
L 306.092606 -201.973563 
L 304.373922 -201.978153 
L 302.655238 -202.155978 
L 300.936555 -201.832074 
L 299.217871 -201.94046 
L 297.499187 -201.978174 
L 295.780503 -201.832074 
L 294.06182 -201.940461 
L 292.343136 -201.940461 
L 290.624452 -201.973603 
L 288.905769 -202.155998 
L 287.187085 -201.973603 
L 285.468401 -201.93961 
L 283.749718 -201.829313 
L 282.031034 -201.973603 
L 280.31235 -202.155998 
L 278.593666 -202.155998 
L 276.874983 -201.973603 
L 275.156299 -201.940461 
L 273.437615 -201.978174 
L 271.718932 -201.973603 
L 270.000248 -201.973603 
L 268.281564 -202.155998 
L 266.562881 -202.155998 
L 264.844197 -201.973603 
L 263.125513 -201.832738 
L 261.406829 -201.94644 
L 259.688146 -202.155998 
L 257.969462 -201.973603 
L 256.250778 -202.155998 
L 254.532095 -202.155998 
L 252.813411 -202.155998 
L 251.094727 -201.94644 
L 249.376044 -201.832738 
L 247.65736 -201.973603 
L 245.938676 -201.973603 
L 244.219992 -201.973603 
L 242.501309 -202.155998 
L 240.782625 -201.978174 
L 239.063941 -201.832738 
L 237.345258 -202.155998 
L 235.626574 -202.155998 
L 233.90789 -201.94644 
L 232.189207 -202.001005 
L 230.470523 -202.001005 
L 228.751839 -202.619772 
L 227.033155 -202.403597 
L 225.314472 -202.619772 
L 223.595788 -203.772835 
L 221.877104 -204.053995 
L 220.158421 -203.778596 
L 218.439737 -204.367261 
L 216.721053 -204.322481 
L 215.00237 -204.322481 
L 213.283686 -204.322481 
L 211.565002 -204.322481 
L 209.846318 -204.488053 
L 208.127635 -204.322481 
L 206.408951 -204.094192 
L 204.690267 -204.322481 
L 202.971584 -204.488053 
L 201.2529 -204.488053 
L 199.534216 -203.786519 
L 197.815533 -204.488053 
L 196.096849 -204.326629 
L 194.378165 -204.322481 
L 192.659481 -204.322481 
L 190.940798 -204.488053 
L 189.222114 -204.488053 
L 187.50343 -204.094192 
L 185.784747 -203.786519 
L 184.066063 -204.488053 
L 182.347379 -204.322481 
L 180.628696 -204.488053 
L 178.910012 -204.322481 
L 177.191328 -204.671077 
L 175.472644 -204.671077 
L 173.753961 -205.200854 
L 172.035277 -205.200854 
L 170.316593 -205.200854 
L 168.59791 -205.200854 
L 166.879226 -209.204719 
L 165.160542 -208.721839 
L 163.441859 -209.5028 
L 161.723175 -209.197044 
L 160.004491 -209.5028 
L 158.285807 -213.332394 
L 156.567124 -213.332394 
L 154.84844 -212.911111 
L 153.129756 -212.907716 
L 151.411073 -213.043288 
L 149.692389 -213.332394 
L 147.973705 -209.758588 
L 146.255022 -214.132749 
L 144.536338 -214.543677 
L 142.817654 -214.132749 
L 141.098971 -213.868302 
L 139.380287 -213.868302 
L 137.661603 -214.132749 
L 135.942919 -214.543677 
L 134.224236 -214.132749 
L 132.505552 -213.868302 
L 130.786868 -214.132749 
L 129.068185 -214.143078 
L 127.349501 -214.132749 
L 125.630817 -214.543677 
L 123.912134 -215.030181 
L 122.19345 -214.132749 
L 120.474766 -213.868302 
L 118.756082 -214.132749 
L 117.037399 -214.132749 
L 115.318715 -214.132749 
L 113.600031 -214.543677 
L 111.881348 -214.543677 
L 110.162664 -214.132749 
L 108.44398 -214.132749 
L 106.725297 -221.791468 
L 105.006613 -221.791468 
L 103.287929 -223.271552 
L 101.569245 -226.70119 
L 99.850562 -225.789144 
L 98.131878 -226.70119 
L 96.413194 -226.70119 
L 94.694511 -240.298834 
L 92.975827 -240.298834 
L 91.257143 -239.429525 
L 89.53846 -240.665116 
L 87.819776 -265.25889 
L 86.101092 -263.994804 
L 84.382408 -263.994804 
L 82.663725 -285.296753 
L 80.945041 -289.732268 
z
" style="stroke: #8172b3; stroke-opacity: 0.2; stroke-width: 0.8"/>
    </defs>
    <g clip-path="url(#pea9fc6f038)">
     <use xlink:href="#m02211cecd5" x="0" y="345.6" style="fill: #8172b3; fill-opacity: 0.2; stroke: #8172b3; stroke-opacity: 0.2; stroke-width: 0.8"/>
    </g>
   </g>
   <g id="PolyCollection_5">
    <defs>
     <path id="m123ad049d3" d="M 80.945041 -299.310711 
L 80.945041 -264.211072 
L 82.663725 -234.574272 
L 84.382408 -204.881846 
L 86.101092 -201.469085 
L 87.819776 -191.993988 
L 89.53846 -193.197316 
L 91.257143 -190.995202 
L 92.975827 -190.995202 
L 94.694511 -189.269006 
L 96.413194 -183.770558 
L 98.131878 -178.84873 
L 99.850562 -171.622117 
L 101.569245 -172.077731 
L 103.287929 -171.24762 
L 105.006613 -171.24762 
L 106.725297 -171.24762 
L 108.44398 -142.878689 
L 110.162664 -142.878689 
L 111.881348 -143.357176 
L 113.600031 -142.878689 
L 115.318715 -138.452292 
L 117.037399 -130.07415 
L 118.756082 -129.184014 
L 120.474766 -129.20653 
L 122.19345 -129.20653 
L 123.912134 -130.096132 
L 125.630817 -120.632603 
L 127.349501 -121.07408 
L 129.068185 -121.07408 
L 130.786868 -121.07408 
L 132.505552 -121.07408 
L 134.224236 -121.510353 
L 135.942919 -121.07408 
L 137.661603 -121.499508 
L 139.380287 -121.07408 
L 141.098971 -121.510353 
L 142.817654 -121.07408 
L 144.536338 -121.510353 
L 146.255022 -121.063107 
L 147.973705 -121.07408 
L 149.692389 -121.07408 
L 151.411073 -121.499508 
L 153.129756 -121.510353 
L 154.84844 -121.499508 
L 156.567124 -121.07408 
L 158.285807 -121.07408 
L 160.004491 -121.07408 
L 161.723175 -121.07408 
L 163.441859 -121.07408 
L 165.160542 -128.285733 
L 166.879226 -121.07408 
L 168.59791 -121.510353 
L 170.316593 -121.07408 
L 172.035277 -120.114806 
L 173.753961 -128.057102 
L 175.472644 -120.043679 
L 177.191328 -120.114806 
L 178.910012 -120.041899 
L 180.628696 -114.339321 
L 182.347379 -117.377883 
L 184.066063 -114.339321 
L 185.784747 -114.339321 
L 187.50343 -117.377883 
L 189.222114 -117.377883 
L 190.940798 -117.377883 
L 192.659481 -114.339321 
L 194.378165 -117.377883 
L 196.096849 -114.339321 
L 197.815533 -114.339321 
L 199.534216 -106.20658 
L 201.2529 -105.840756 
L 202.971584 -105.840756 
L 204.690267 -105.840756 
L 206.408951 -105.226983 
L 208.127635 -105.840756 
L 209.846318 -105.825535 
L 211.565002 -106.444515 
L 213.283686 -105.840756 
L 215.00237 -106.429541 
L 216.721053 -106.444515 
L 218.439737 -105.840756 
L 220.158421 -114.509004 
L 221.877104 -105.840756 
L 223.595788 -105.840756 
L 225.314472 -106.429541 
L 227.033155 -105.840756 
L 228.751839 -105.840756 
L 230.470523 -94.284563 
L 232.189207 -94.284563 
L 233.90789 -95.086803 
L 235.626574 -95.107146 
L 237.345258 -95.891938 
L 239.063941 -94.284563 
L 240.782625 -91.439827 
L 242.501309 -89.502337 
L 244.219992 -89.406159 
L 245.938676 -88.010438 
L 247.65736 -88.010438 
L 249.376044 -88.010438 
L 251.094727 -88.616628 
L 252.813411 -88.616628 
L 254.532095 -88.010438 
L 256.250778 -88.616628 
L 257.969462 -88.616628 
L 259.688146 -88.010438 
L 261.406829 -88.616628 
L 263.125513 -88.601594 
L 264.844197 -88.010438 
L 266.562881 -88.010438 
L 268.281564 -88.010438 
L 270.000248 -88.010438 
L 271.718932 -88.010438 
L 273.437615 -88.010438 
L 275.156299 -88.010438 
L 276.874983 -88.601594 
L 278.593666 -88.616628 
L 280.31235 -88.601594 
L 282.031034 -88.616628 
L 283.749718 -88.616628 
L 285.468401 -88.010438 
L 287.187085 -87.394154 
L 288.905769 -88.010438 
L 290.624452 -89.21305 
L 292.343136 -87.394154 
L 294.06182 -88.010438 
L 295.780503 -88.616628 
L 297.499187 -88.010438 
L 299.217871 -88.616628 
L 300.936555 -88.010438 
L 302.655238 -88.010438 
L 304.373922 -88.616628 
L 306.092606 -86.489986 
L 307.811289 -85.863827 
L 309.529973 -85.847631 
L 311.248657 -86.505903 
L 312.96734 -85.863827 
L 314.686024 -87.121383 
L 316.404708 -85.863827 
L 318.123392 -86.505903 
L 319.842075 -85.863827 
L 321.560759 -86.489986 
L 323.279443 -85.210414 
L 324.998126 -86.505903 
L 326.71681 -85.863827 
L 328.435494 -84.864642 
L 330.154177 -84.864642 
L 331.872861 -84.864642 
L 333.591545 -84.193186 
L 335.310229 -85.507789 
L 337.028912 -84.848003 
L 338.747596 -77.268276 
L 340.46628 -77.268276 
L 342.184963 -74.794267 
L 343.903647 -74.794267 
L 345.622331 -77.578702 
L 347.341014 -77.578702 
L 349.059698 -74.794267 
L 350.778382 -81.842292 
L 352.497066 -69.487041 
L 354.215749 -74.794267 
L 355.934433 -74.794267 
L 357.653117 -74.794267 
L 359.3718 -74.794267 
L 361.090484 -74.794267 
L 362.809168 -74.794267 
L 364.527851 -74.742921 
L 366.246535 -74.794267 
L 367.965219 -77.511584 
L 369.683903 -74.794267 
L 371.402586 -77.578702 
L 373.12127 -69.487041 
L 374.839954 -74.794267 
L 376.558637 -74.794267 
L 378.277321 -74.794267 
L 379.996005 -74.794267 
L 381.714688 -77.578702 
L 383.433372 -74.794267 
L 385.152056 -74.794267 
L 386.87074 -74.794267 
L 388.589423 -74.794267 
L 390.308107 -72.682756 
L 392.026791 -72.682756 
L 393.745474 -74.794267 
L 395.464158 -77.578702 
L 397.182842 -77.578702 
L 398.901525 -72.606136 
L 400.620209 -74.742921 
L 402.338893 -77.058657 
L 404.057576 -74.794267 
L 405.77626 -74.73048 
L 407.494944 -74.794267 
L 409.213628 -74.794267 
L 410.932311 -77.114935 
L 412.650995 -58.29 
L 414.369679 -60.116913 
L 416.088362 -60.116913 
L 417.807046 -60.116913 
L 419.52573 -60.116913 
L 421.244413 -60.116913 
L 422.963097 -60.116913 
L 422.963097 -139.416692 
L 422.963097 -139.416692 
L 421.244413 -139.416692 
L 419.52573 -138.267907 
L 417.807046 -140.269381 
L 416.088362 -140.807135 
L 414.369679 -138.537197 
L 412.650995 -140.807135 
L 410.932311 -140.381502 
L 409.213628 -141.608411 
L 407.494944 -140.78636 
L 405.77626 -141.608411 
L 404.057576 -140.78636 
L 402.338893 -140.78636 
L 400.620209 -142.578266 
L 398.901525 -140.381502 
L 397.182842 -140.869804 
L 395.464158 -141.712491 
L 393.745474 -140.890532 
L 392.026791 -140.869804 
L 390.308107 -140.869804 
L 388.589423 -141.491284 
L 386.87074 -142.300152 
L 385.152056 -141.470889 
L 383.433372 -142.300152 
L 381.714688 -142.278039 
L 379.996005 -142.278039 
L 378.277321 -142.278039 
L 376.558637 -142.278039 
L 374.839954 -142.300152 
L 373.12127 -142.300152 
L 371.402586 -140.154457 
L 369.683903 -141.470889 
L 367.965219 -141.470889 
L 366.246535 -141.491284 
L 364.527851 -141.002591 
L 362.809168 -142.300152 
L 361.090484 -140.990505 
L 359.3718 -142.278039 
L 357.653117 -142.278039 
L 355.934433 -141.470889 
L 354.215749 -142.278039 
L 352.497066 -142.278039 
L 350.778382 -142.278039 
L 349.059698 -142.300152 
L 347.341014 -143.183328 
L 345.622331 -141.470889 
L 343.903647 -142.278039 
L 342.184963 -142.300152 
L 340.46628 -143.950807 
L 338.747596 -144.27265 
L 337.028912 -146.62516 
L 335.310229 -142.958766 
L 333.591545 -144.637131 
L 331.872861 -144.640439 
L 330.154177 -144.637131 
L 328.435494 -144.769236 
L 326.71681 -144.769236 
L 324.998126 -144.77796 
L 323.279443 -145.116596 
L 321.560759 -145.116596 
L 319.842075 -144.769236 
L 318.123392 -144.769236 
L 316.404708 -144.769236 
L 314.686024 -144.769236 
L 312.96734 -144.769236 
L 311.248657 -145.116596 
L 309.529973 -144.769236 
L 307.811289 -144.637131 
L 306.092606 -146.022415 
L 304.373922 -144.769236 
L 302.655238 -144.769236 
L 300.936555 -144.769236 
L 299.217871 -144.640439 
L 297.499187 -144.1212 
L 295.780503 -144.769236 
L 294.06182 -146.38829 
L 292.343136 -146.38829 
L 290.624452 -146.38829 
L 288.905769 -146.813771 
L 287.187085 -145.906811 
L 285.468401 -147.806737 
L 283.749718 -147.80014 
L 282.031034 -147.806737 
L 280.31235 -147.806737 
L 278.593666 -147.806737 
L 276.874983 -147.819104 
L 275.156299 -147.806737 
L 273.437615 -148.301211 
L 271.718932 -148.374617 
L 270.000248 -146.926298 
L 268.281564 -146.926298 
L 266.562881 -148.374617 
L 264.844197 -148.374617 
L 263.125513 -148.374617 
L 261.406829 -148.374617 
L 259.688146 -148.298214 
L 257.969462 -146.926298 
L 256.250778 -148.374617 
L 254.532095 -148.374617 
L 252.813411 -148.453348 
L 251.094727 -152.151367 
L 249.376044 -154.780921 
L 247.65736 -152.164339 
L 245.938676 -154.780921 
L 244.219992 -152.289782 
L 242.501309 -152.272168 
L 240.782625 -152.462903 
L 239.063941 -152.479464 
L 237.345258 -152.606909 
L 235.626574 -152.606909 
L 233.90789 -152.479464 
L 232.189207 -152.479464 
L 230.470523 -152.606909 
L 228.751839 -160.967486 
L 227.033155 -160.967486 
L 225.314472 -160.632285 
L 223.595788 -160.967486 
L 221.877104 -160.967486 
L 220.158421 -160.967486 
L 218.439737 -160.302514 
L 216.721053 -160.632285 
L 215.00237 -158.559444 
L 213.283686 -160.632285 
L 211.565002 -160.967486 
L 209.846318 -161.793859 
L 208.127635 -161.793859 
L 206.408951 -161.812228 
L 204.690267 -161.793859 
L 202.971584 -161.070277 
L 201.2529 -161.051537 
L 199.534216 -161.134155 
L 197.815533 -162.60099 
L 196.096849 -161.874839 
L 194.378165 -161.874839 
L 192.659481 -174.02154 
L 190.940798 -172.848332 
L 189.222114 -172.291732 
L 187.50343 -172.832036 
L 185.784747 -173.478359 
L 184.066063 -173.478359 
L 182.347379 -173.492036 
L 180.628696 -173.478359 
L 178.910012 -173.46197 
L 177.191328 -174.02154 
L 175.472644 -174.032144 
L 173.753961 -173.478359 
L 172.035277 -174.02154 
L 170.316593 -173.584716 
L 168.59791 -174.02154 
L 166.879226 -173.478359 
L 165.160542 -174.02154 
L 163.441859 -174.485074 
L 161.723175 -173.478359 
L 160.004491 -173.481021 
L 158.285807 -173.584716 
L 156.567124 -173.584716 
L 154.84844 -173.584716 
L 153.129756 -173.478359 
L 151.411073 -173.584716 
L 149.692389 -173.5957 
L 147.973705 -173.584716 
L 146.255022 -173.584716 
L 144.536338 -175.921844 
L 142.817654 -175.921844 
L 141.098971 -175.921844 
L 139.380287 -175.921844 
L 137.661603 -175.395537 
L 135.942919 -175.890056 
L 134.224236 -175.921844 
L 132.505552 -175.953062 
L 130.786868 -177.729323 
L 129.068185 -175.921844 
L 127.349501 -177.150468 
L 125.630817 -175.921844 
L 123.912134 -176.449154 
L 122.19345 -176.41574 
L 120.474766 -177.760347 
L 118.756082 -176.41574 
L 117.037399 -176.41574 
L 115.318715 -196.206005 
L 113.600031 -200.111106 
L 111.881348 -200.111106 
L 110.162664 -199.256146 
L 108.44398 -199.233962 
L 106.725297 -201.066201 
L 105.006613 -201.082958 
L 103.287929 -201.066201 
L 101.569245 -204.08168 
L 99.850562 -204.039659 
L 98.131878 -217.260783 
L 96.413194 -217.260783 
L 94.694511 -217.275681 
L 92.975827 -218.659515 
L 91.257143 -218.659515 
L 89.53846 -218.738534 
L 87.819776 -218.738534 
L 86.101092 -218.994555 
L 84.382408 -283.888403 
L 82.663725 -284.577662 
L 80.945041 -299.310711 
z
" style="stroke: #c44e52; stroke-opacity: 0.2; stroke-width: 0.8"/>
    </defs>
    <g clip-path="url(#pea9fc6f038)">
     <use xlink:href="#m123ad049d3" x="0" y="345.6" style="fill: #c44e52; fill-opacity: 0.2; stroke: #c44e52; stroke-opacity: 0.2; stroke-width: 0.8"/>
    </g>
   </g>
   <g id="line2d_9">
    <path d="M 80.945041 58.052702 
L 82.663725 79.723533 
L 84.382408 82.314161 
L 86.101092 88.519408 
L 87.819776 90.779548 
L 89.53846 91.639516 
L 91.257143 96.076062 
L 92.975827 102.037646 
L 98.131878 102.037646 
L 99.850562 102.355701 
L 105.006613 102.355701 
L 106.725297 108.076356 
L 108.44398 110.543332 
L 115.318715 110.543332 
L 117.037399 138.054406 
L 123.912134 138.054406 
L 125.630817 158.185433 
L 134.224236 158.185433 
L 135.942919 162.947353 
L 166.879226 162.947353 
L 168.59791 165.235971 
L 177.191328 165.235971 
L 178.910012 167.769396 
L 209.846318 167.769396 
L 211.565002 176.53591 
L 218.439737 176.53591 
L 220.158421 179.616378 
L 288.905769 179.616378 
L 290.624452 186.455428 
L 342.184963 186.455428 
L 343.903647 186.872065 
L 350.778382 186.872065 
L 352.497066 187.516247 
L 354.215749 187.516247 
L 355.934433 192.150397 
L 381.714688 192.150397 
L 383.433372 192.409366 
L 386.87074 192.409366 
L 388.589423 217.051159 
L 422.963097 217.051159 
L 422.963097 217.051159 
" clip-path="url(#pea9fc6f038)" style="fill: none; stroke: #4c72b0; stroke-width: 2.5; stroke-linecap: round"/>
   </g>
   <g id="line2d_10">
    <path d="M 80.945041 61.95433 
L 82.663725 76.891216 
L 84.382408 125.974052 
L 86.101092 125.974052 
L 87.819776 131.257242 
L 89.53846 131.257242 
L 91.257143 134.5954 
L 94.694511 134.5954 
L 96.413194 137.316705 
L 98.131878 142.502574 
L 101.569245 142.502574 
L 103.287929 143.978234 
L 106.725297 143.978234 
L 108.44398 153.20425 
L 110.162664 156.810335 
L 111.881348 176.382394 
L 166.879226 176.382394 
L 168.59791 177.288205 
L 175.472644 177.288205 
L 177.191328 177.937228 
L 184.066063 177.937228 
L 185.784747 178.434073 
L 208.127635 178.434073 
L 209.846318 188.856228 
L 318.123392 188.856228 
L 319.842075 191.05255 
L 347.341014 191.05255 
L 349.059698 191.703926 
L 367.965219 191.703926 
L 369.683903 192.072921 
L 383.433372 192.072921 
L 385.152056 192.550665 
L 386.87074 213.106099 
L 409.213628 213.106099 
L 410.932311 214.209607 
L 412.650995 214.209607 
L 414.369679 224.833738 
L 416.088362 226.50868 
L 422.963097 226.50868 
L 422.963097 226.50868 
" clip-path="url(#pea9fc6f038)" style="fill: none; stroke: #dd8452; stroke-width: 2.5; stroke-linecap: round"/>
   </g>
   <g id="line2d_11">
    <path d="M 80.945041 59.652499 
L 82.663725 109.606312 
L 84.382408 121.046434 
L 86.101092 121.046434 
L 87.819776 131.418114 
L 105.006613 131.418114 
L 106.725297 140.364587 
L 108.44398 145.172625 
L 118.756082 145.172625 
L 120.474766 145.303198 
L 122.19345 145.303198 
L 123.912134 148.188687 
L 125.630817 148.188687 
L 127.349501 153.614157 
L 129.068185 153.614157 
L 130.786868 153.837182 
L 132.505552 153.837182 
L 134.224236 187.232532 
L 137.661603 187.232532 
L 139.380287 222.293885 
L 354.215749 222.293885 
L 355.934433 239.25692 
L 404.057576 239.25692 
L 405.77626 247.246884 
L 422.963097 247.246884 
L 422.963097 247.246884 
" clip-path="url(#pea9fc6f038)" style="fill: none; stroke: #55a868; stroke-width: 2.5; stroke-linecap: round"/>
   </g>
   <g id="line2d_12">
    <path d="M 80.945041 71.924075 
L 84.382408 101.384876 
L 86.101092 101.384876 
L 87.819776 102.970587 
L 89.53846 127.479231 
L 91.257143 127.479231 
L 92.975827 127.666285 
L 94.694511 127.666285 
L 96.413194 137.526644 
L 101.569245 137.526644 
L 103.287929 145.504612 
L 105.006613 146.166989 
L 106.725297 146.166989 
L 108.44398 156.453376 
L 146.255022 156.453376 
L 147.973705 157.250864 
L 158.285807 157.250864 
L 160.004491 165.190267 
L 166.879226 165.190267 
L 168.59791 168.287544 
L 177.191328 168.287544 
L 178.910012 171.377216 
L 216.721053 171.377216 
L 218.439737 172.367922 
L 220.158421 172.628576 
L 223.595788 172.628576 
L 225.314472 175.114023 
L 228.751839 175.114023 
L 230.470523 175.460287 
L 422.963097 175.505932 
L 422.963097 175.505932 
" clip-path="url(#pea9fc6f038)" style="fill: none; stroke: #8172b3; stroke-width: 2.5; stroke-linecap: round"/>
   </g>
   <g id="line2d_13">
    <path d="M 80.945041 57.738772 
L 82.663725 77.023657 
L 84.382408 84.722448 
L 86.101092 135.910505 
L 87.819776 139.103493 
L 92.975827 139.213537 
L 94.694511 140.343354 
L 96.413194 142.086158 
L 98.131878 142.086158 
L 99.850562 154.327785 
L 101.569245 154.437505 
L 103.287929 156.517951 
L 106.725297 156.517951 
L 108.44398 166.057964 
L 113.600031 166.057964 
L 115.318715 170.678537 
L 117.037399 186.108118 
L 123.912134 186.108118 
L 125.630817 187.754757 
L 144.536338 187.754757 
L 146.255022 190.6854 
L 170.316593 190.6854 
L 172.035277 190.889596 
L 178.910012 190.889596 
L 180.628696 191.940345 
L 192.659481 191.940345 
L 194.378165 200.334498 
L 197.815533 200.334498 
L 199.534216 201.952298 
L 201.2529 202.084903 
L 209.846318 202.084903 
L 211.565002 202.760602 
L 228.751839 202.760602 
L 230.470523 211.794405 
L 239.063941 211.794405 
L 240.782625 212.747835 
L 242.501309 213.072422 
L 244.219992 213.072422 
L 245.938676 213.286643 
L 251.094727 213.308825 
L 252.813411 216.263169 
L 271.718932 216.263169 
L 273.437615 216.737491 
L 285.468401 216.737491 
L 287.187085 217.916959 
L 294.06182 217.916959 
L 295.780503 219.796922 
L 304.373922 219.796922 
L 306.092606 220.55584 
L 326.71681 220.55584 
L 328.435494 221.126939 
L 333.591545 221.126939 
L 335.310229 221.412565 
L 337.028912 221.412565 
L 338.747596 222.500115 
L 340.46628 222.500115 
L 342.184963 226.884286 
L 388.589423 226.884286 
L 390.308107 227.253666 
L 400.620209 227.253666 
L 402.338893 227.407164 
L 410.932311 227.407164 
L 412.650995 231.36193 
L 416.088362 231.36193 
L 417.807046 234.224912 
L 422.963097 234.224912 
L 422.963097 234.224912 
" clip-path="url(#pea9fc6f038)" style="fill: none; stroke: #c44e52; stroke-width: 2.5; stroke-linecap: round"/>
   </g>
   <g id="patch_3">
    <path d="M 63.844138 300.004 
L 63.844138 20.736 
" style="fill: none; stroke: #cccccc; stroke-linejoin: miter; stroke-linecap: square"/>
   </g>
   <g id="patch_4">
    <path d="M 440.064 300.004 
L 440.064 20.736 
" style="fill: none; stroke: #cccccc; stroke-linejoin: miter; stroke-linecap: square"/>
   </g>
   <g id="patch_5">
    <path d="M 63.844138 300.004 
L 440.064 300.004 
" style="fill: none; stroke: #cccccc; stroke-linejoin: miter; stroke-linecap: square"/>
   </g>
   <g id="patch_6">
    <path d="M 63.844138 20.736 
L 440.064 20.736 
" style="fill: none; stroke: #cccccc; stroke-linejoin: miter; stroke-linecap: square"/>
   </g>
  </g>
 </g>
 <defs>
  <clipPath id="pea9fc6f038">
   <rect x="63.844138" y="20.736" width="376.219862" height="279.268"/>
  </clipPath>
 </defs>
</svg>
