<?xml version="1.0" encoding="utf-8" standalone="no"?>
<!DOCTYPE svg PUBLIC "-//W3C//DTD SVG 1.1//EN"
  "http://www.w3.org/Graphics/SVG/1.1/DTD/svg11.dtd">
<svg height="345.6pt" version="1.1" viewBox="0 0 460.8 345.6" width="460.8pt" xmlns="http://www.w3.org/2000/svg" xmlns:xlink="http://www.w3.org/1999/xlink">
 <metadata>
  <rdf:RDF xmlns:cc="http://creativecommons.org/ns#" xmlns:dc="http://purl.org/dc/elements/1.1/" xmlns:rdf="http://www.w3.org/1999/02/22-rdf-syntax-ns#">
   <cc:Work>
    <dc:type rdf:resource="http://purl.org/dc/dcmitype/StillImage"/>
    <dc:date>2023-05-30T18:07:24.986342</dc:date>
    <dc:format>image/svg+xml</dc:format>
    <dc:creator>
     <cc:Agent>
      <dc:title>Matplotlib v3.4.3, https://matplotlib.org/</dc:title>
     </cc:Agent>
    </dc:creator>
   </cc:Work>
  </rdf:RDF>
 </metadata>
 <defs>
  <style type="text/css">*{stroke-linecap:butt;stroke-linejoin:round;}</style>
 </defs>
 <g id="figure_1">
  <g id="patch_1">
   <path d="M 0 345.6 
L 460.8 345.6 
L 460.8 0 
L 0 0 
z
" style="fill:#ffffff;"/>
  </g>
  <g id="axes_1">
   <g id="patch_2">
    <path d="M 63.697888 300.004 
L 431.891106 300.004 
L 431.891106 20.736 
L 63.697888 20.736 
z
" style="fill:#ffffff;"/>
   </g>
   <g id="matplotlib.axis_1">
    <g id="xtick_1">
     <g id="line2d_1">
      <path clip-path="url(#p937de3ce02)" d="M 79.594202 300.004 
L 79.594202 20.736 
" style="fill:none;stroke:#cccccc;stroke-linecap:round;stroke-width:0.8;"/>
     </g>
     <g id="text_1">
      <!-- 0 -->
      <g style="fill:#262626;" transform="translate(74.700577 320.90175)scale(0.176 -0.176)">
       <defs>
        <path d="M 266 2259 
Q 266 3072 433 3567 
Q 600 4063 929 4331 
Q 1259 4600 1759 4600 
Q 2128 4600 2406 4451 
Q 2684 4303 2865 4023 
Q 3047 3744 3150 3342 
Q 3253 2941 3253 2259 
Q 3253 1453 3087 958 
Q 2922 463 2592 192 
Q 2263 -78 1759 -78 
Q 1097 -78 719 397 
Q 266 969 266 2259 
z
M 844 2259 
Q 844 1131 1108 757 
Q 1372 384 1759 384 
Q 2147 384 2411 759 
Q 2675 1134 2675 2259 
Q 2675 3391 2411 3762 
Q 2147 4134 1753 4134 
Q 1366 4134 1134 3806 
Q 844 3388 844 2259 
z
" id="ArialMT-30" transform="scale(0.015625)"/>
       </defs>
       <use xlink:href="#ArialMT-30"/>
      </g>
     </g>
    </g>
    <g id="xtick_2">
     <g id="line2d_2">
      <path clip-path="url(#p937de3ce02)" d="M 163.568388 300.004 
L 163.568388 20.736 
" style="fill:none;stroke:#cccccc;stroke-linecap:round;stroke-width:0.8;"/>
     </g>
     <g id="text_2">
      <!-- 10000 -->
      <g style="fill:#262626;" transform="translate(139.100263 320.90175)scale(0.176 -0.176)">
       <defs>
        <path d="M 2384 0 
L 1822 0 
L 1822 3584 
Q 1619 3391 1289 3197 
Q 959 3003 697 2906 
L 697 3450 
Q 1169 3672 1522 3987 
Q 1875 4303 2022 4600 
L 2384 4600 
L 2384 0 
z
" id="ArialMT-31" transform="scale(0.015625)"/>
       </defs>
       <use xlink:href="#ArialMT-31"/>
       <use x="55.615234" xlink:href="#ArialMT-30"/>
       <use x="111.230469" xlink:href="#ArialMT-30"/>
       <use x="166.845703" xlink:href="#ArialMT-30"/>
       <use x="222.460938" xlink:href="#ArialMT-30"/>
      </g>
     </g>
    </g>
    <g id="xtick_3">
     <g id="line2d_3">
      <path clip-path="url(#p937de3ce02)" d="M 247.542574 300.004 
L 247.542574 20.736 
" style="fill:none;stroke:#cccccc;stroke-linecap:round;stroke-width:0.8;"/>
     </g>
     <g id="text_3">
      <!-- 20000 -->
      <g style="fill:#262626;" transform="translate(223.074449 320.90175)scale(0.176 -0.176)">
       <defs>
        <path d="M 3222 541 
L 3222 0 
L 194 0 
Q 188 203 259 391 
Q 375 700 629 1000 
Q 884 1300 1366 1694 
Q 2113 2306 2375 2664 
Q 2638 3022 2638 3341 
Q 2638 3675 2398 3904 
Q 2159 4134 1775 4134 
Q 1369 4134 1125 3890 
Q 881 3647 878 3216 
L 300 3275 
Q 359 3922 746 4261 
Q 1134 4600 1788 4600 
Q 2447 4600 2831 4234 
Q 3216 3869 3216 3328 
Q 3216 3053 3103 2787 
Q 2991 2522 2730 2228 
Q 2469 1934 1863 1422 
Q 1356 997 1212 845 
Q 1069 694 975 541 
L 3222 541 
z
" id="ArialMT-32" transform="scale(0.015625)"/>
       </defs>
       <use xlink:href="#ArialMT-32"/>
       <use x="55.615234" xlink:href="#ArialMT-30"/>
       <use x="111.230469" xlink:href="#ArialMT-30"/>
       <use x="166.845703" xlink:href="#ArialMT-30"/>
       <use x="222.460938" xlink:href="#ArialMT-30"/>
      </g>
     </g>
    </g>
    <g id="xtick_4">
     <g id="line2d_4">
      <path clip-path="url(#p937de3ce02)" d="M 331.516761 300.004 
L 331.516761 20.736 
" style="fill:none;stroke:#cccccc;stroke-linecap:round;stroke-width:0.8;"/>
     </g>
     <g id="text_4">
      <!-- 30000 -->
      <g style="fill:#262626;" transform="translate(307.048636 320.90175)scale(0.176 -0.176)">
       <defs>
        <path d="M 269 1209 
L 831 1284 
Q 928 806 1161 595 
Q 1394 384 1728 384 
Q 2125 384 2398 659 
Q 2672 934 2672 1341 
Q 2672 1728 2419 1979 
Q 2166 2231 1775 2231 
Q 1616 2231 1378 2169 
L 1441 2663 
Q 1497 2656 1531 2656 
Q 1891 2656 2178 2843 
Q 2466 3031 2466 3422 
Q 2466 3731 2256 3934 
Q 2047 4138 1716 4138 
Q 1388 4138 1169 3931 
Q 950 3725 888 3313 
L 325 3413 
Q 428 3978 793 4289 
Q 1159 4600 1703 4600 
Q 2078 4600 2393 4439 
Q 2709 4278 2876 4000 
Q 3044 3722 3044 3409 
Q 3044 3113 2884 2869 
Q 2725 2625 2413 2481 
Q 2819 2388 3044 2092 
Q 3269 1797 3269 1353 
Q 3269 753 2831 336 
Q 2394 -81 1725 -81 
Q 1122 -81 723 278 
Q 325 638 269 1209 
z
" id="ArialMT-33" transform="scale(0.015625)"/>
       </defs>
       <use xlink:href="#ArialMT-33"/>
       <use x="55.615234" xlink:href="#ArialMT-30"/>
       <use x="111.230469" xlink:href="#ArialMT-30"/>
       <use x="166.845703" xlink:href="#ArialMT-30"/>
       <use x="222.460938" xlink:href="#ArialMT-30"/>
      </g>
     </g>
    </g>
    <g id="xtick_5">
     <g id="line2d_5">
      <path clip-path="url(#p937de3ce02)" d="M 415.490947 300.004 
L 415.490947 20.736 
" style="fill:none;stroke:#cccccc;stroke-linecap:round;stroke-width:0.8;"/>
     </g>
     <g id="text_5">
      <!-- 40000 -->
      <g style="fill:#262626;" transform="translate(391.022822 320.90175)scale(0.176 -0.176)">
       <defs>
        <path d="M 2069 0 
L 2069 1097 
L 81 1097 
L 81 1613 
L 2172 4581 
L 2631 4581 
L 2631 1613 
L 3250 1613 
L 3250 1097 
L 2631 1097 
L 2631 0 
L 2069 0 
z
M 2069 1613 
L 2069 3678 
L 634 1613 
L 2069 1613 
z
" id="ArialMT-34" transform="scale(0.015625)"/>
       </defs>
       <use xlink:href="#ArialMT-34"/>
       <use x="55.615234" xlink:href="#ArialMT-30"/>
       <use x="111.230469" xlink:href="#ArialMT-30"/>
       <use x="166.845703" xlink:href="#ArialMT-30"/>
       <use x="222.460938" xlink:href="#ArialMT-30"/>
      </g>
     </g>
    </g>
   </g>
   <g id="matplotlib.axis_2">
    <g id="ytick_1">
     <g id="line2d_6">
      <path clip-path="url(#p937de3ce02)" d="M 63.697888 176.187953 
L 431.891106 176.187953 
" style="fill:none;stroke:#cccccc;stroke-linecap:round;stroke-width:0.8;"/>
     </g>
     <g id="text_6">
      <!-- $\mathdefault{10^{-2}}$ -->
      <g style="fill:#262626;" transform="translate(20.549888 185.262953)scale(0.176 -0.176)">
       <defs>
        <path d="M 3381 1997 
L 356 1997 
L 356 2522 
L 3381 2522 
L 3381 1997 
z
" id="ArialMT-2212" transform="scale(0.015625)"/>
       </defs>
       <use transform="translate(0 0.99375)" xlink:href="#ArialMT-31"/>
       <use transform="translate(55.615234 0.99375)" xlink:href="#ArialMT-30"/>
       <use transform="translate(112.972813 70.6875)scale(0.7)" xlink:href="#ArialMT-2212"/>
       <use transform="translate(153.851719 70.6875)scale(0.7)" xlink:href="#ArialMT-32"/>
      </g>
     </g>
    </g>
    <g id="ytick_2"/>
    <g id="ytick_3"/>
    <g id="ytick_4"/>
    <g id="ytick_5"/>
    <g id="ytick_6"/>
    <g id="ytick_7"/>
    <g id="ytick_8"/>
    <g id="ytick_9"/>
    <g id="ytick_10"/>
    <g id="ytick_11"/>
    <g id="ytick_12"/>
    <g id="ytick_13"/>
   </g>
   <g id="PolyCollection_1"/>
   <g id="PolyCollection_2">
    <defs>
     <path d="M 80.433944 -252.400985 
L 80.433944 -252.21613 
L 83.792911 -244.002657 
L 96.372244 -238.768696 
L 113.150287 -235.733854 
L 180.262456 -228.9434 
L 247.374626 -226.409905 
L 314.486796 -224.268255 
L 381.598965 -223.93517 
L 415.15505 -223.632391 
L 415.15505 -227.0343 
L 415.15505 -227.0343 
L 381.598965 -227.74361 
L 314.486796 -229.406598 
L 247.374626 -229.564577 
L 180.262456 -231.59034 
L 113.150287 -238.391793 
L 96.372244 -243.149232 
L 83.792911 -248.809071 
L 80.433944 -252.400985 
z
" id="m6eb63981d6" style="stroke:#dd8452;stroke-opacity:0.2;stroke-width:0.8;"/>
    </defs>
    <g clip-path="url(#p937de3ce02)">
     <use style="fill:#dd8452;fill-opacity:0.2;stroke:#dd8452;stroke-opacity:0.2;stroke-width:0.8;" x="0" xlink:href="#m6eb63981d6" y="345.6"/>
    </g>
   </g>
   <g id="PolyCollection_3">
    <defs>
     <path d="M 80.433944 -256.168293 
L 80.433944 -254.928268 
L 83.792911 -225.245898 
L 96.372244 -205.293369 
L 113.150287 -195.723993 
L 180.262456 -180.560922 
L 247.374626 -173.846818 
L 314.486796 -169.666551 
L 381.598965 -166.762189 
L 415.15505 -165.579175 
L 415.15505 -165.660728 
L 415.15505 -165.660728 
L 381.598965 -166.850499 
L 314.486796 -169.813997 
L 247.374626 -173.92604 
L 180.262456 -180.783376 
L 113.150287 -195.917954 
L 96.372244 -205.638027 
L 83.792911 -225.558028 
L 80.433944 -256.168293 
z
" id="m269995acf0" style="stroke:#55a868;stroke-opacity:0.2;stroke-width:0.8;"/>
    </defs>
    <g clip-path="url(#p937de3ce02)">
     <use style="fill:#55a868;fill-opacity:0.2;stroke:#55a868;stroke-opacity:0.2;stroke-width:0.8;" x="0" xlink:href="#m269995acf0" y="345.6"/>
    </g>
   </g>
   <g id="PolyCollection_4">
    <defs>
     <path d="M 80.433944 -251.691376 
L 80.433944 -249.225219 
L 83.792911 -232.505171 
L 96.372244 -218.664855 
L 113.150287 -204.697771 
L 180.262456 -178.639501 
L 247.374626 -159.78494 
L 314.486796 -145.500984 
L 381.598965 -129.362603 
L 415.15505 -119.478153 
L 415.15505 -124.2658 
L 415.15505 -124.2658 
L 381.598965 -133.383469 
L 314.486796 -147.632867 
L 247.374626 -162.904224 
L 180.262456 -181.849021 
L 113.150287 -206.615408 
L 96.372244 -220.883282 
L 83.792911 -233.271344 
L 80.433944 -251.691376 
z
" id="mc1af27a75a" style="stroke:#c44e52;stroke-opacity:0.2;stroke-width:0.8;"/>
    </defs>
    <g clip-path="url(#p937de3ce02)">
     <use style="fill:#c44e52;fill-opacity:0.2;stroke:#c44e52;stroke-opacity:0.2;stroke-width:0.8;" x="0" xlink:href="#mc1af27a75a" y="345.6"/>
    </g>
   </g>
   <g id="PolyCollection_5">
    <defs>
     <path d="M 80.433944 -252.92784 
L 80.433944 -250.484301 
L 83.792911 -230.076008 
L 96.372244 -214.247776 
L 113.150287 -204.483591 
L 180.262456 -171.364304 
L 247.374626 -106.686051 
L 314.486796 -71.58406 
L 381.598965 -60.356419 
L 415.15505 -58.29 
L 415.15505 -61.605847 
L 415.15505 -61.605847 
L 381.598965 -63.564895 
L 314.486796 -77.166376 
L 247.374626 -122.028093 
L 180.262456 -174.060559 
L 113.150287 -207.386878 
L 96.372244 -217.304887 
L 83.792911 -231.809583 
L 80.433944 -252.92784 
z
" id="mdb472a5d44" style="stroke:#8172b3;stroke-opacity:0.2;stroke-width:0.8;"/>
    </defs>
    <g clip-path="url(#p937de3ce02)">
     <use style="fill:#8172b3;fill-opacity:0.2;stroke:#8172b3;stroke-opacity:0.2;stroke-width:0.8;" x="0" xlink:href="#mdb472a5d44" y="345.6"/>
    </g>
   </g>
   <g id="line2d_7">
    <path clip-path="url(#p937de3ce02)" d="M 80.433944 33.43 
L 83.792911 105.341803 
L 96.372244 128.695156 
L 113.150287 131.543951 
L 180.262456 132.572247 
L 247.374626 132.993959 
L 314.486796 133.238418 
L 381.598965 133.284587 
L 415.15505 133.306681 
" style="fill:none;stroke:#4c72b0;stroke-linecap:round;stroke-width:2.5;"/>
   </g>
   <g id="line2d_8">
    <path clip-path="url(#p937de3ce02)" d="M 80.433944 93.291443 
L 83.792911 99.154336 
L 96.372244 104.715339 
L 113.150287 108.43111 
L 180.262456 115.26951 
L 247.374626 117.236379 
L 314.486796 118.803092 
L 381.598965 119.601857 
L 415.15505 120.115483 
" style="fill:none;stroke:#dd8452;stroke-linecap:round;stroke-width:2.5;"/>
   </g>
   <g id="line2d_9">
    <path clip-path="url(#p937de3ce02)" d="M 80.433944 90.078318 
L 83.792911 120.197939 
L 96.372244 140.123593 
L 113.150287 149.784137 
L 180.262456 164.931437 
L 247.374626 171.712477 
L 314.486796 175.856195 
L 381.598965 178.795568 
L 415.15505 179.981105 
" style="fill:none;stroke:#55a868;stroke-linecap:round;stroke-width:2.5;"/>
   </g>
   <g id="line2d_10">
    <path clip-path="url(#p937de3ce02)" d="M 80.433944 95.450998 
L 83.792911 112.651342 
L 96.372244 125.826991 
L 113.150287 140.001769 
L 180.262456 165.478575 
L 247.374626 184.11082 
L 314.486796 199.010489 
L 381.598965 214.523993 
L 415.15505 223.479085 
" style="fill:none;stroke:#c44e52;stroke-linecap:round;stroke-width:2.5;"/>
   </g>
   <g id="line2d_11">
    <path clip-path="url(#p937de3ce02)" d="M 80.433944 93.909723 
L 83.792911 114.686322 
L 96.372244 129.779228 
L 113.150287 139.622657 
L 180.262456 172.742576 
L 247.374626 231.7996 
L 314.486796 271.481828 
L 381.598965 283.803681 
L 415.15505 285.958747 
" style="fill:none;stroke:#8172b3;stroke-linecap:round;stroke-width:2.5;"/>
   </g>
   <g id="patch_3">
    <path d="M 63.697888 300.004 
L 63.697888 20.736 
" style="fill:none;stroke:#cccccc;stroke-linecap:square;stroke-linejoin:miter;"/>
   </g>
   <g id="patch_4">
    <path d="M 431.891106 300.004 
L 431.891106 20.736 
" style="fill:none;stroke:#cccccc;stroke-linecap:square;stroke-linejoin:miter;"/>
   </g>
   <g id="patch_5">
    <path d="M 63.697888 300.004 
L 431.891106 300.004 
" style="fill:none;stroke:#cccccc;stroke-linecap:square;stroke-linejoin:miter;"/>
   </g>
   <g id="patch_6">
    <path d="M 63.697888 20.736 
L 431.891106 20.736 
" style="fill:none;stroke:#cccccc;stroke-linecap:square;stroke-linejoin:miter;"/>
   </g>
  </g>
 </g>
 <defs>
  <clipPath id="p937de3ce02">
   <rect height="279.268" width="368.193217" x="63.697888" y="20.736"/>
  </clipPath>
 </defs>
</svg>
