<?xml version="1.0" encoding="utf-8" standalone="no"?>
<!DOCTYPE svg PUBLIC "-//W3C//DTD SVG 1.1//EN"
  "http://www.w3.org/Graphics/SVG/1.1/DTD/svg11.dtd">
<svg height="345.6pt" version="1.1" viewBox="0 0 460.8 345.6" width="460.8pt" xmlns="http://www.w3.org/2000/svg" xmlns:xlink="http://www.w3.org/1999/xlink">
 <metadata>
  <rdf:RDF xmlns:cc="http://creativecommons.org/ns#" xmlns:dc="http://purl.org/dc/elements/1.1/" xmlns:rdf="http://www.w3.org/1999/02/22-rdf-syntax-ns#">
   <cc:Work>
    <dc:type rdf:resource="http://purl.org/dc/dcmitype/StillImage"/>
    <dc:date>2023-05-30T18:07:20.117770</dc:date>
    <dc:format>image/svg+xml</dc:format>
    <dc:creator>
     <cc:Agent>
      <dc:title>Matplotlib v3.4.3, https://matplotlib.org/</dc:title>
     </cc:Agent>
    </dc:creator>
   </cc:Work>
  </rdf:RDF>
 </metadata>
 <defs>
  <style type="text/css">*{stroke-linecap:butt;stroke-linejoin:round;}</style>
 </defs>
 <g id="figure_1">
  <g id="patch_1">
   <path d="M 0 345.6 
L 460.8 345.6 
L 460.8 0 
L 0 0 
z
" style="fill:#ffffff;"/>
  </g>
  <g id="axes_1">
   <g id="patch_2">
    <path d="M 88.065468 300.004 
L 417.89923 300.004 
L 417.89923 20.736 
L 88.065468 20.736 
z
" style="fill:#ffffff;"/>
   </g>
   <g id="matplotlib.axis_1">
    <g id="xtick_1">
     <g id="line2d_1">
      <path clip-path="url(#p308022cebe)" d="M 102.666821 300.004 
L 102.666821 20.736 
" style="fill:none;stroke:#cccccc;stroke-linecap:round;stroke-width:0.8;"/>
     </g>
     <g id="text_1">
      <!-- 0 -->
      <g style="fill:#262626;" transform="translate(97.773196 320.90175)scale(0.176 -0.176)">
       <defs>
        <path d="M 266 2259 
Q 266 3072 433 3567 
Q 600 4063 929 4331 
Q 1259 4600 1759 4600 
Q 2128 4600 2406 4451 
Q 2684 4303 2865 4023 
Q 3047 3744 3150 3342 
Q 3253 2941 3253 2259 
Q 3253 1453 3087 958 
Q 2922 463 2592 192 
Q 2263 -78 1759 -78 
Q 1097 -78 719 397 
Q 266 969 266 2259 
z
M 844 2259 
Q 844 1131 1108 757 
Q 1372 384 1759 384 
Q 2147 384 2411 759 
Q 2675 1134 2675 2259 
Q 2675 3391 2411 3762 
Q 2147 4134 1753 4134 
Q 1366 4134 1134 3806 
Q 844 3388 844 2259 
z
" id="ArialMT-30" transform="scale(0.015625)"/>
       </defs>
       <use xlink:href="#ArialMT-30"/>
      </g>
     </g>
    </g>
    <g id="xtick_2">
     <g id="line2d_2">
      <path clip-path="url(#p308022cebe)" d="M 180.884866 300.004 
L 180.884866 20.736 
" style="fill:none;stroke:#cccccc;stroke-linecap:round;stroke-width:0.8;"/>
     </g>
     <g id="text_2">
      <!-- 20000 -->
      <g style="fill:#262626;" transform="translate(156.416741 320.90175)scale(0.176 -0.176)">
       <defs>
        <path d="M 3222 541 
L 3222 0 
L 194 0 
Q 188 203 259 391 
Q 375 700 629 1000 
Q 884 1300 1366 1694 
Q 2113 2306 2375 2664 
Q 2638 3022 2638 3341 
Q 2638 3675 2398 3904 
Q 2159 4134 1775 4134 
Q 1369 4134 1125 3890 
Q 881 3647 878 3216 
L 300 3275 
Q 359 3922 746 4261 
Q 1134 4600 1788 4600 
Q 2447 4600 2831 4234 
Q 3216 3869 3216 3328 
Q 3216 3053 3103 2787 
Q 2991 2522 2730 2228 
Q 2469 1934 1863 1422 
Q 1356 997 1212 845 
Q 1069 694 975 541 
L 3222 541 
z
" id="ArialMT-32" transform="scale(0.015625)"/>
       </defs>
       <use xlink:href="#ArialMT-32"/>
       <use x="55.615234" xlink:href="#ArialMT-30"/>
       <use x="111.230469" xlink:href="#ArialMT-30"/>
       <use x="166.845703" xlink:href="#ArialMT-30"/>
       <use x="222.460938" xlink:href="#ArialMT-30"/>
      </g>
     </g>
    </g>
    <g id="xtick_3">
     <g id="line2d_3">
      <path clip-path="url(#p308022cebe)" d="M 259.102911 300.004 
L 259.102911 20.736 
" style="fill:none;stroke:#cccccc;stroke-linecap:round;stroke-width:0.8;"/>
     </g>
     <g id="text_3">
      <!-- 40000 -->
      <g style="fill:#262626;" transform="translate(234.634786 320.90175)scale(0.176 -0.176)">
       <defs>
        <path d="M 2069 0 
L 2069 1097 
L 81 1097 
L 81 1613 
L 2172 4581 
L 2631 4581 
L 2631 1613 
L 3250 1613 
L 3250 1097 
L 2631 1097 
L 2631 0 
L 2069 0 
z
M 2069 1613 
L 2069 3678 
L 634 1613 
L 2069 1613 
z
" id="ArialMT-34" transform="scale(0.015625)"/>
       </defs>
       <use xlink:href="#ArialMT-34"/>
       <use x="55.615234" xlink:href="#ArialMT-30"/>
       <use x="111.230469" xlink:href="#ArialMT-30"/>
       <use x="166.845703" xlink:href="#ArialMT-30"/>
       <use x="222.460938" xlink:href="#ArialMT-30"/>
      </g>
     </g>
    </g>
    <g id="xtick_4">
     <g id="line2d_4">
      <path clip-path="url(#p308022cebe)" d="M 337.320955 300.004 
L 337.320955 20.736 
" style="fill:none;stroke:#cccccc;stroke-linecap:round;stroke-width:0.8;"/>
     </g>
     <g id="text_4">
      <!-- 60000 -->
      <g style="fill:#262626;" transform="translate(312.85283 320.90175)scale(0.176 -0.176)">
       <defs>
        <path d="M 3184 3459 
L 2625 3416 
Q 2550 3747 2413 3897 
Q 2184 4138 1850 4138 
Q 1581 4138 1378 3988 
Q 1113 3794 959 3422 
Q 806 3050 800 2363 
Q 1003 2672 1297 2822 
Q 1591 2972 1913 2972 
Q 2475 2972 2870 2558 
Q 3266 2144 3266 1488 
Q 3266 1056 3080 686 
Q 2894 316 2569 119 
Q 2244 -78 1831 -78 
Q 1128 -78 684 439 
Q 241 956 241 2144 
Q 241 3472 731 4075 
Q 1159 4600 1884 4600 
Q 2425 4600 2770 4297 
Q 3116 3994 3184 3459 
z
M 888 1484 
Q 888 1194 1011 928 
Q 1134 663 1356 523 
Q 1578 384 1822 384 
Q 2178 384 2434 671 
Q 2691 959 2691 1453 
Q 2691 1928 2437 2201 
Q 2184 2475 1800 2475 
Q 1419 2475 1153 2201 
Q 888 1928 888 1484 
z
" id="ArialMT-36" transform="scale(0.015625)"/>
       </defs>
       <use xlink:href="#ArialMT-36"/>
       <use x="55.615234" xlink:href="#ArialMT-30"/>
       <use x="111.230469" xlink:href="#ArialMT-30"/>
       <use x="166.845703" xlink:href="#ArialMT-30"/>
       <use x="222.460938" xlink:href="#ArialMT-30"/>
      </g>
     </g>
    </g>
    <g id="xtick_5">
     <g id="line2d_5">
      <path clip-path="url(#p308022cebe)" d="M 415.539 300.004 
L 415.539 20.736 
" style="fill:none;stroke:#cccccc;stroke-linecap:round;stroke-width:0.8;"/>
     </g>
     <g id="text_5">
      <!-- 80000 -->
      <g style="fill:#262626;" transform="translate(391.070875 320.90175)scale(0.176 -0.176)">
       <defs>
        <path d="M 1131 2484 
Q 781 2613 612 2850 
Q 444 3088 444 3419 
Q 444 3919 803 4259 
Q 1163 4600 1759 4600 
Q 2359 4600 2725 4251 
Q 3091 3903 3091 3403 
Q 3091 3084 2923 2848 
Q 2756 2613 2416 2484 
Q 2838 2347 3058 2040 
Q 3278 1734 3278 1309 
Q 3278 722 2862 322 
Q 2447 -78 1769 -78 
Q 1091 -78 675 323 
Q 259 725 259 1325 
Q 259 1772 486 2073 
Q 713 2375 1131 2484 
z
M 1019 3438 
Q 1019 3113 1228 2906 
Q 1438 2700 1772 2700 
Q 2097 2700 2305 2904 
Q 2513 3109 2513 3406 
Q 2513 3716 2298 3927 
Q 2084 4138 1766 4138 
Q 1444 4138 1231 3931 
Q 1019 3725 1019 3438 
z
M 838 1322 
Q 838 1081 952 856 
Q 1066 631 1291 507 
Q 1516 384 1775 384 
Q 2178 384 2440 643 
Q 2703 903 2703 1303 
Q 2703 1709 2433 1975 
Q 2163 2241 1756 2241 
Q 1359 2241 1098 1978 
Q 838 1716 838 1322 
z
" id="ArialMT-38" transform="scale(0.015625)"/>
       </defs>
       <use xlink:href="#ArialMT-38"/>
       <use x="55.615234" xlink:href="#ArialMT-30"/>
       <use x="111.230469" xlink:href="#ArialMT-30"/>
       <use x="166.845703" xlink:href="#ArialMT-30"/>
       <use x="222.460938" xlink:href="#ArialMT-30"/>
      </g>
     </g>
    </g>
   </g>
   <g id="matplotlib.axis_2">
    <g id="ytick_1">
     <g id="text_6">
      <!-- $\mathdefault{2\times10^{-3}}$ -->
      <g style="fill:#262626;" transform="translate(20.569468 263.528574)scale(0.176 -0.176)">
       <defs>
        <path d="M 503 1278 
L 1488 2263 
L 506 3244 
L 888 3625 
L 1869 2644 
L 2847 3622 
L 3222 3244 
L 2247 2266 
L 3228 1284 
L 2847 903 
L 1866 1884 
L 881 900 
L 503 1278 
z
" id="ArialMT-d7" transform="scale(0.015625)"/>
        <path d="M 2384 0 
L 1822 0 
L 1822 3584 
Q 1619 3391 1289 3197 
Q 959 3003 697 2906 
L 697 3450 
Q 1169 3672 1522 3987 
Q 1875 4303 2022 4600 
L 2384 4600 
L 2384 0 
z
" id="ArialMT-31" transform="scale(0.015625)"/>
        <path d="M 3381 1997 
L 356 1997 
L 356 2522 
L 3381 2522 
L 3381 1997 
z
" id="ArialMT-2212" transform="scale(0.015625)"/>
        <path d="M 269 1209 
L 831 1284 
Q 928 806 1161 595 
Q 1394 384 1728 384 
Q 2125 384 2398 659 
Q 2672 934 2672 1341 
Q 2672 1728 2419 1979 
Q 2166 2231 1775 2231 
Q 1616 2231 1378 2169 
L 1441 2663 
Q 1497 2656 1531 2656 
Q 1891 2656 2178 2843 
Q 2466 3031 2466 3422 
Q 2466 3731 2256 3934 
Q 2047 4138 1716 4138 
Q 1388 4138 1169 3931 
Q 950 3725 888 3313 
L 325 3413 
Q 428 3978 793 4289 
Q 1159 4600 1703 4600 
Q 2078 4600 2393 4439 
Q 2709 4278 2876 4000 
Q 3044 3722 3044 3409 
Q 3044 3113 2884 2869 
Q 2725 2625 2413 2481 
Q 2819 2388 3044 2092 
Q 3269 1797 3269 1353 
Q 3269 753 2831 336 
Q 2394 -81 1725 -81 
Q 1122 -81 723 278 
Q 325 638 269 1209 
z
" id="ArialMT-33" transform="scale(0.015625)"/>
       </defs>
       <use transform="translate(0 0.99375)" xlink:href="#ArialMT-32"/>
       <use transform="translate(72.275391 0.99375)" xlink:href="#ArialMT-d7"/>
       <use transform="translate(147.333984 0.99375)" xlink:href="#ArialMT-31"/>
       <use transform="translate(202.949219 0.99375)" xlink:href="#ArialMT-30"/>
       <use transform="translate(260.306797 70.6875)scale(0.7)" xlink:href="#ArialMT-2212"/>
       <use transform="translate(301.185703 70.6875)scale(0.7)" xlink:href="#ArialMT-33"/>
      </g>
     </g>
    </g>
    <g id="ytick_2">
     <g id="text_7">
      <!-- $\mathdefault{3\times10^{-3}}$ -->
      <g style="fill:#262626;" transform="translate(20.569468 187.501978)scale(0.176 -0.176)">
       <use transform="translate(0 0.99375)" xlink:href="#ArialMT-33"/>
       <use transform="translate(72.275391 0.99375)" xlink:href="#ArialMT-d7"/>
       <use transform="translate(147.333984 0.99375)" xlink:href="#ArialMT-31"/>
       <use transform="translate(202.949219 0.99375)" xlink:href="#ArialMT-30"/>
       <use transform="translate(260.306797 70.6875)scale(0.7)" xlink:href="#ArialMT-2212"/>
       <use transform="translate(301.185703 70.6875)scale(0.7)" xlink:href="#ArialMT-33"/>
      </g>
     </g>
    </g>
    <g id="ytick_3">
     <g id="text_8">
      <!-- $\mathdefault{4\times10^{-3}}$ -->
      <g style="fill:#262626;" transform="translate(20.569468 133.560249)scale(0.176 -0.176)">
       <use transform="translate(0 0.99375)" xlink:href="#ArialMT-34"/>
       <use transform="translate(72.275391 0.99375)" xlink:href="#ArialMT-d7"/>
       <use transform="translate(147.333984 0.99375)" xlink:href="#ArialMT-31"/>
       <use transform="translate(202.949219 0.99375)" xlink:href="#ArialMT-30"/>
       <use transform="translate(260.306797 70.6875)scale(0.7)" xlink:href="#ArialMT-2212"/>
       <use transform="translate(301.185703 70.6875)scale(0.7)" xlink:href="#ArialMT-33"/>
      </g>
     </g>
    </g>
    <g id="ytick_4"/>
    <g id="ytick_5">
     <g id="text_9">
      <!-- $\mathdefault{6\times10^{-3}}$ -->
      <g style="fill:#262626;" transform="translate(20.569468 57.533653)scale(0.176 -0.176)">
       <use transform="translate(0 0.99375)" xlink:href="#ArialMT-36"/>
       <use transform="translate(72.275391 0.99375)" xlink:href="#ArialMT-d7"/>
       <use transform="translate(147.333984 0.99375)" xlink:href="#ArialMT-31"/>
       <use transform="translate(202.949219 0.99375)" xlink:href="#ArialMT-30"/>
       <use transform="translate(260.306797 70.6875)scale(0.7)" xlink:href="#ArialMT-2212"/>
       <use transform="translate(301.185703 70.6875)scale(0.7)" xlink:href="#ArialMT-33"/>
      </g>
     </g>
    </g>
   </g>
   <g id="PolyCollection_1"/>
   <g id="PolyCollection_2">
    <defs>
     <path d="M 103.057911 -280.084573 
L 103.057911 -263.653834 
L 104.622272 -247.098941 
L 114.399528 -223.76206 
L 132.690818 -211.343482 
L 192.73881 -193.609434 
L 252.786803 -183.54421 
L 312.834796 -182.305878 
L 372.882789 -175.277882 
L 402.906786 -169.876206 
L 402.906786 -171.697543 
L 402.906786 -171.697543 
L 372.882789 -190.713981 
L 312.834796 -193.547742 
L 252.786803 -198.994353 
L 192.73881 -209.569787 
L 132.690818 -224.333552 
L 114.399528 -238.327671 
L 104.622272 -259.37445 
L 103.057911 -280.084573 
z
" id="m2cfcb8a3ab" style="stroke:#dd8452;stroke-opacity:0.2;stroke-width:0.8;"/>
    </defs>
    <g clip-path="url(#p308022cebe)">
     <use style="fill:#dd8452;fill-opacity:0.2;stroke:#dd8452;stroke-opacity:0.2;stroke-width:0.8;" x="0" xlink:href="#m2cfcb8a3ab" y="345.6"/>
    </g>
   </g>
   <g id="PolyCollection_3">
    <defs>
     <path d="M 103.057911 -312.17 
L 103.057911 -299.620238 
L 104.622272 -216.753581 
L 114.399528 -159.785597 
L 132.690818 -127.863321 
L 192.73881 -94.905139 
L 252.786803 -78.526648 
L 312.834796 -65.403296 
L 372.882789 -58.29 
L 402.906786 -59.02454 
L 402.906786 -59.268896 
L 402.906786 -59.268896 
L 372.882789 -59.563546 
L 312.834796 -67.383494 
L 252.786803 -80.000694 
L 192.73881 -96.331659 
L 132.690818 -129.180688 
L 114.399528 -161.232851 
L 104.622272 -221.595442 
L 103.057911 -312.17 
z
" id="ma926c69322" style="stroke:#55a868;stroke-opacity:0.2;stroke-width:0.8;"/>
    </defs>
    <g clip-path="url(#p308022cebe)">
     <use style="fill:#55a868;fill-opacity:0.2;stroke:#55a868;stroke-opacity:0.2;stroke-width:0.8;" x="0" xlink:href="#ma926c69322" y="345.6"/>
    </g>
   </g>
   <g id="PolyCollection_4">
    <defs>
     <path d="M 103.057911 -283.076007 
L 103.057911 -269.323189 
L 104.622272 -232.583969 
L 114.399528 -213.887718 
L 132.690818 -196.884174 
L 192.73881 -145.75665 
L 252.786803 -111.350563 
L 312.834796 -89.962669 
L 372.882789 -75.178067 
L 402.906786 -64.910836 
L 402.906786 -71.356982 
L 402.906786 -71.356982 
L 372.882789 -77.806331 
L 312.834796 -98.479716 
L 252.786803 -120.435099 
L 192.73881 -150.634075 
L 132.690818 -204.030455 
L 114.399528 -220.179456 
L 104.622272 -238.590562 
L 103.057911 -283.076007 
z
" id="mce2a6be9a1" style="stroke:#c44e52;stroke-opacity:0.2;stroke-width:0.8;"/>
    </defs>
    <g clip-path="url(#p308022cebe)">
     <use style="fill:#c44e52;fill-opacity:0.2;stroke:#c44e52;stroke-opacity:0.2;stroke-width:0.8;" x="0" xlink:href="#mce2a6be9a1" y="345.6"/>
    </g>
   </g>
   <g id="PolyCollection_5">
    <defs>
     <path d="M 103.057911 -296.531533 
L 103.057911 -257.074596 
L 104.622272 -226.88583 
L 114.399528 -215.690824 
L 132.690818 -197.631405 
L 192.73881 -154.031601 
L 252.786803 -134.576299 
L 312.834796 -121.301838 
L 372.882789 -109.601009 
L 402.906786 -106.238414 
L 402.906786 -112.869161 
L 402.906786 -112.869161 
L 372.882789 -117.866007 
L 312.834796 -127.2346 
L 252.786803 -139.552621 
L 192.73881 -162.916031 
L 132.690818 -202.764873 
L 114.399528 -221.5405 
L 104.622272 -242.491409 
L 103.057911 -296.531533 
z
" id="m63666723bd" style="stroke:#8172b3;stroke-opacity:0.2;stroke-width:0.8;"/>
    </defs>
    <g clip-path="url(#p308022cebe)">
     <use style="fill:#8172b3;fill-opacity:0.2;stroke:#8172b3;stroke-opacity:0.2;stroke-width:0.8;" x="0" xlink:href="#m63666723bd" y="345.6"/>
    </g>
   </g>
   <g id="line2d_6">
    <path clip-path="url(#p308022cebe)" d="M 103.057911 62.090981 
L 104.622272 118.66096 
L 114.399528 125.481037 
L 132.690818 126.592888 
L 192.73881 127.007645 
L 252.786803 127.004364 
L 312.834796 127.003775 
L 372.882789 127.029004 
L 402.906786 127.043573 
" style="fill:none;stroke:#4c72b0;stroke-linecap:round;stroke-width:2.5;"/>
   </g>
   <g id="line2d_7">
    <path clip-path="url(#p308022cebe)" d="M 103.057911 73.941069 
L 104.622272 92.160461 
L 114.399528 114.004254 
L 132.690818 127.215559 
L 192.73881 143.871427 
L 252.786803 153.54722 
L 312.834796 158.403356 
L 372.882789 162.214256 
L 402.906786 174.813599 
" style="fill:none;stroke:#dd8452;stroke-linecap:round;stroke-width:2.5;"/>
   </g>
   <g id="line2d_8">
    <path clip-path="url(#p308022cebe)" d="M 103.057911 40.881375 
L 104.622272 126.308112 
L 114.399528 185.090776 
L 132.690818 217.077996 
L 192.73881 249.98626 
L 252.786803 266.354451 
L 312.834796 279.066194 
L 372.882789 286.661954 
L 402.906786 286.44739 
" style="fill:none;stroke:#55a868;stroke-linecap:round;stroke-width:2.5;"/>
   </g>
   <g id="line2d_9">
    <path clip-path="url(#p308022cebe)" d="M 103.057911 68.196129 
L 104.622272 110.337695 
L 114.399528 128.734325 
L 132.690818 145.246381 
L 192.73881 197.321393 
L 252.786803 228.95944 
L 312.834796 250.985031 
L 372.882789 269.071374 
L 402.906786 277.148082 
" style="fill:none;stroke:#c44e52;stroke-linecap:round;stroke-width:2.5;"/>
   </g>
   <g id="line2d_10">
    <path clip-path="url(#p308022cebe)" d="M 103.057911 70.19841 
L 104.622272 112.425335 
L 114.399528 126.549548 
L 132.690818 145.469451 
L 192.73881 187.078197 
L 252.786803 208.537823 
L 312.834796 221.085201 
L 372.882789 232.226397 
L 402.906786 236.046213 
" style="fill:none;stroke:#8172b3;stroke-linecap:round;stroke-width:2.5;"/>
   </g>
   <g id="patch_3">
    <path d="M 88.065468 300.004 
L 88.065468 20.736 
" style="fill:none;stroke:#cccccc;stroke-linecap:square;stroke-linejoin:miter;"/>
   </g>
   <g id="patch_4">
    <path d="M 417.89923 300.004 
L 417.89923 20.736 
" style="fill:none;stroke:#cccccc;stroke-linecap:square;stroke-linejoin:miter;"/>
   </g>
   <g id="patch_5">
    <path d="M 88.065468 300.004 
L 417.89923 300.004 
" style="fill:none;stroke:#cccccc;stroke-linecap:square;stroke-linejoin:miter;"/>
   </g>
   <g id="patch_6">
    <path d="M 88.065468 20.736 
L 417.89923 20.736 
" style="fill:none;stroke:#cccccc;stroke-linecap:square;stroke-linejoin:miter;"/>
   </g>
  </g>
 </g>
 <defs>
  <clipPath id="p308022cebe">
   <rect height="279.268" width="329.833762" x="88.065468" y="20.736"/>
  </clipPath>
 </defs>
</svg>
