<?xml version="1.0" encoding="utf-8" standalone="no"?>
<!DOCTYPE svg PUBLIC "-//W3C//DTD SVG 1.1//EN"
  "http://www.w3.org/Graphics/SVG/1.1/DTD/svg11.dtd">
<svg xmlns:xlink="http://www.w3.org/1999/xlink" width="460.8pt" height="345.6pt" viewBox="0 0 460.8 345.6" xmlns="http://www.w3.org/2000/svg" version="1.1">
 <metadata>
  <rdf:RDF xmlns:dc="http://purl.org/dc/elements/1.1/" xmlns:cc="http://creativecommons.org/ns#" xmlns:rdf="http://www.w3.org/1999/02/22-rdf-syntax-ns#">
   <cc:Work>
    <dc:type rdf:resource="http://purl.org/dc/dcmitype/StillImage"/>
    <dc:date>2023-01-14T15:29:31.673742</dc:date>
    <dc:format>image/svg+xml</dc:format>
    <dc:creator>
     <cc:Agent>
      <dc:title>Matplotlib v3.6.2, https://matplotlib.org/</dc:title>
     </cc:Agent>
    </dc:creator>
   </cc:Work>
  </rdf:RDF>
 </metadata>
 <defs>
  <style type="text/css">*{stroke-linejoin: round; stroke-linecap: butt}</style>
 </defs>
 <g id="figure_1">
  <g id="patch_1">
   <path d="M 0 345.6 
L 460.8 345.6 
L 460.8 0 
L 0 0 
z
" style="fill: #ffffff"/>
  </g>
  <g id="axes_1">
   <g id="patch_2">
    <path d="M 110.192294 278.724 
L 250.274 278.724 
L 250.274 20.736 
L 110.192294 20.736 
z
" style="fill: #ffffff"/>
   </g>
   <g id="matplotlib.axis_1">
    <g id="xtick_1">
     <g id="line2d_1">
      <path d="M 116.559644 278.724 
L 116.559644 20.736 
" clip-path="url(#p593d1feac5)" style="fill: none; stroke: #cccccc; stroke-width: 0.8; stroke-linecap: round"/>
     </g>
     <g id="text_1">
      <!-- 0 -->
      <g style="fill: #262626" transform="translate(111.666019 299.62175) scale(0.176 -0.176)">
       <defs>
        <path id="ArialMT-30" d="M 266 2259 
Q 266 3072 433 3567 
Q 600 4063 929 4331 
Q 1259 4600 1759 4600 
Q 2128 4600 2406 4451 
Q 2684 4303 2865 4023 
Q 3047 3744 3150 3342 
Q 3253 2941 3253 2259 
Q 3253 1453 3087 958 
Q 2922 463 2592 192 
Q 2263 -78 1759 -78 
Q 1097 -78 719 397 
Q 266 969 266 2259 
z
M 844 2259 
Q 844 1131 1108 757 
Q 1372 384 1759 384 
Q 2147 384 2411 759 
Q 2675 1134 2675 2259 
Q 2675 3391 2411 3762 
Q 2147 4134 1753 4134 
Q 1366 4134 1134 3806 
Q 844 3388 844 2259 
z
" transform="scale(0.015625)"/>
       </defs>
       <use xlink:href="#ArialMT-30"/>
      </g>
     </g>
    </g>
    <g id="xtick_2">
     <g id="line2d_2">
      <path d="M 244.546584 278.724 
L 244.546584 20.736 
" clip-path="url(#p593d1feac5)" style="fill: none; stroke: #cccccc; stroke-width: 0.8; stroke-linecap: round"/>
     </g>
     <g id="text_2">
      <!-- 200 -->
      <g style="fill: #262626" transform="translate(229.865709 299.62175) scale(0.176 -0.176)">
       <defs>
        <path id="ArialMT-32" d="M 3222 541 
L 3222 0 
L 194 0 
Q 188 203 259 391 
Q 375 700 629 1000 
Q 884 1300 1366 1694 
Q 2113 2306 2375 2664 
Q 2638 3022 2638 3341 
Q 2638 3675 2398 3904 
Q 2159 4134 1775 4134 
Q 1369 4134 1125 3890 
Q 881 3647 878 3216 
L 300 3275 
Q 359 3922 746 4261 
Q 1134 4600 1788 4600 
Q 2447 4600 2831 4234 
Q 3216 3869 3216 3328 
Q 3216 3053 3103 2787 
Q 2991 2522 2730 2228 
Q 2469 1934 1863 1422 
Q 1356 997 1212 845 
Q 1069 694 975 541 
L 3222 541 
z
" transform="scale(0.015625)"/>
       </defs>
       <use xlink:href="#ArialMT-32"/>
       <use xlink:href="#ArialMT-30" x="55.615234"/>
       <use xlink:href="#ArialMT-30" x="111.230469"/>
      </g>
     </g>
    </g>
    <g id="text_3">
     <!-- trials -->
     <g style="fill: #262626" transform="translate(159.965147 320.86275) scale(0.192 -0.192)">
      <defs>
       <path id="ArialMT-74" d="M 1650 503 
L 1731 6 
Q 1494 -44 1306 -44 
Q 1000 -44 831 53 
Q 663 150 594 308 
Q 525 466 525 972 
L 525 2881 
L 113 2881 
L 113 3319 
L 525 3319 
L 525 4141 
L 1084 4478 
L 1084 3319 
L 1650 3319 
L 1650 2881 
L 1084 2881 
L 1084 941 
Q 1084 700 1114 631 
Q 1144 563 1211 522 
Q 1278 481 1403 481 
Q 1497 481 1650 503 
z
" transform="scale(0.015625)"/>
       <path id="ArialMT-72" d="M 416 0 
L 416 3319 
L 922 3319 
L 922 2816 
Q 1116 3169 1280 3281 
Q 1444 3394 1641 3394 
Q 1925 3394 2219 3213 
L 2025 2691 
Q 1819 2813 1613 2813 
Q 1428 2813 1281 2702 
Q 1134 2591 1072 2394 
Q 978 2094 978 1738 
L 978 0 
L 416 0 
z
" transform="scale(0.015625)"/>
       <path id="ArialMT-69" d="M 425 3934 
L 425 4581 
L 988 4581 
L 988 3934 
L 425 3934 
z
M 425 0 
L 425 3319 
L 988 3319 
L 988 0 
L 425 0 
z
" transform="scale(0.015625)"/>
       <path id="ArialMT-61" d="M 2588 409 
Q 2275 144 1986 34 
Q 1697 -75 1366 -75 
Q 819 -75 525 192 
Q 231 459 231 875 
Q 231 1119 342 1320 
Q 453 1522 633 1644 
Q 813 1766 1038 1828 
Q 1203 1872 1538 1913 
Q 2219 1994 2541 2106 
Q 2544 2222 2544 2253 
Q 2544 2597 2384 2738 
Q 2169 2928 1744 2928 
Q 1347 2928 1158 2789 
Q 969 2650 878 2297 
L 328 2372 
Q 403 2725 575 2942 
Q 747 3159 1072 3276 
Q 1397 3394 1825 3394 
Q 2250 3394 2515 3294 
Q 2781 3194 2906 3042 
Q 3031 2891 3081 2659 
Q 3109 2516 3109 2141 
L 3109 1391 
Q 3109 606 3145 398 
Q 3181 191 3288 0 
L 2700 0 
Q 2613 175 2588 409 
z
M 2541 1666 
Q 2234 1541 1622 1453 
Q 1275 1403 1131 1340 
Q 988 1278 909 1158 
Q 831 1038 831 891 
Q 831 666 1001 516 
Q 1172 366 1500 366 
Q 1825 366 2078 508 
Q 2331 650 2450 897 
Q 2541 1088 2541 1459 
L 2541 1666 
z
" transform="scale(0.015625)"/>
       <path id="ArialMT-6c" d="M 409 0 
L 409 4581 
L 972 4581 
L 972 0 
L 409 0 
z
" transform="scale(0.015625)"/>
       <path id="ArialMT-73" d="M 197 991 
L 753 1078 
Q 800 744 1014 566 
Q 1228 388 1613 388 
Q 2000 388 2187 545 
Q 2375 703 2375 916 
Q 2375 1106 2209 1216 
Q 2094 1291 1634 1406 
Q 1016 1563 777 1677 
Q 538 1791 414 1992 
Q 291 2194 291 2438 
Q 291 2659 392 2848 
Q 494 3038 669 3163 
Q 800 3259 1026 3326 
Q 1253 3394 1513 3394 
Q 1903 3394 2198 3281 
Q 2494 3169 2634 2976 
Q 2775 2784 2828 2463 
L 2278 2388 
Q 2241 2644 2061 2787 
Q 1881 2931 1553 2931 
Q 1166 2931 1000 2803 
Q 834 2675 834 2503 
Q 834 2394 903 2306 
Q 972 2216 1119 2156 
Q 1203 2125 1616 2013 
Q 2213 1853 2448 1751 
Q 2684 1650 2818 1456 
Q 2953 1263 2953 975 
Q 2953 694 2789 445 
Q 2625 197 2315 61 
Q 2006 -75 1616 -75 
Q 969 -75 630 194 
Q 291 463 197 991 
z
" transform="scale(0.015625)"/>
      </defs>
      <use xlink:href="#ArialMT-74"/>
      <use xlink:href="#ArialMT-72" x="27.783203"/>
      <use xlink:href="#ArialMT-69" x="61.083984"/>
      <use xlink:href="#ArialMT-61" x="83.300781"/>
      <use xlink:href="#ArialMT-6c" x="138.916016"/>
      <use xlink:href="#ArialMT-73" x="161.132812"/>
     </g>
    </g>
   </g>
   <g id="matplotlib.axis_2">
    <g id="ytick_1">
     <g id="line2d_3">
      <path d="M 110.192294 218.059403 
L 250.274 218.059403 
" clip-path="url(#p593d1feac5)" style="fill: none; stroke: #cccccc; stroke-width: 0.8; stroke-linecap: round"/>
     </g>
     <g id="text_4">
      <!-- $\mathdefault{10^{-1}}$ -->
      <g style="fill: #262626" transform="translate(67.044294 227.134403) scale(0.176 -0.176)">
       <defs>
        <path id="ArialMT-31" d="M 2384 0 
L 1822 0 
L 1822 3584 
Q 1619 3391 1289 3197 
Q 959 3003 697 2906 
L 697 3450 
Q 1169 3672 1522 3987 
Q 1875 4303 2022 4600 
L 2384 4600 
L 2384 0 
z
" transform="scale(0.015625)"/>
        <path id="ArialMT-2212" d="M 3381 1997 
L 356 1997 
L 356 2522 
L 3381 2522 
L 3381 1997 
z
" transform="scale(0.015625)"/>
       </defs>
       <use xlink:href="#ArialMT-31" transform="translate(0 0.99375)"/>
       <use xlink:href="#ArialMT-30" transform="translate(55.615234 0.99375)"/>
       <use xlink:href="#ArialMT-2212" transform="translate(112.972813 70.6875) scale(0.7)"/>
       <use xlink:href="#ArialMT-31" transform="translate(153.851719 70.6875) scale(0.7)"/>
      </g>
     </g>
    </g>
    <g id="ytick_2">
     <g id="text_5">
      <!-- $\mathdefault{6\times10^{-2}}$ -->
      <g style="fill: #262626" transform="translate(41.816294 286.986407) scale(0.176 -0.176)">
       <defs>
        <path id="ArialMT-36" d="M 3184 3459 
L 2625 3416 
Q 2550 3747 2413 3897 
Q 2184 4138 1850 4138 
Q 1581 4138 1378 3988 
Q 1113 3794 959 3422 
Q 806 3050 800 2363 
Q 1003 2672 1297 2822 
Q 1591 2972 1913 2972 
Q 2475 2972 2870 2558 
Q 3266 2144 3266 1488 
Q 3266 1056 3080 686 
Q 2894 316 2569 119 
Q 2244 -78 1831 -78 
Q 1128 -78 684 439 
Q 241 956 241 2144 
Q 241 3472 731 4075 
Q 1159 4600 1884 4600 
Q 2425 4600 2770 4297 
Q 3116 3994 3184 3459 
z
M 888 1484 
Q 888 1194 1011 928 
Q 1134 663 1356 523 
Q 1578 384 1822 384 
Q 2178 384 2434 671 
Q 2691 959 2691 1453 
Q 2691 1928 2437 2201 
Q 2184 2475 1800 2475 
Q 1419 2475 1153 2201 
Q 888 1928 888 1484 
z
" transform="scale(0.015625)"/>
        <path id="ArialMT-d7" d="M 503 1278 
L 1488 2263 
L 506 3244 
L 888 3625 
L 1869 2644 
L 2847 3622 
L 3222 3244 
L 2247 2266 
L 3228 1284 
L 2847 903 
L 1866 1884 
L 881 900 
L 503 1278 
z
" transform="scale(0.015625)"/>
       </defs>
       <use xlink:href="#ArialMT-36" transform="translate(0 0.99375)"/>
       <use xlink:href="#ArialMT-d7" transform="translate(75.097656 0.99375)"/>
       <use xlink:href="#ArialMT-31" transform="translate(152.978516 0.99375)"/>
       <use xlink:href="#ArialMT-30" transform="translate(208.59375 0.99375)"/>
       <use xlink:href="#ArialMT-2212" transform="translate(265.951328 70.6875) scale(0.7)"/>
       <use xlink:href="#ArialMT-32" transform="translate(306.830234 70.6875) scale(0.7)"/>
      </g>
     </g>
    </g>
    <g id="ytick_3"/>
    <g id="ytick_4"/>
    <g id="ytick_5"/>
    <g id="ytick_6">
     <g id="text_6">
      <!-- $\mathdefault{2\times10^{-1}}$ -->
      <g style="fill: #262626" transform="translate(41.816294 145.920295) scale(0.176 -0.176)">
       <use xlink:href="#ArialMT-32" transform="translate(0 0.99375)"/>
       <use xlink:href="#ArialMT-d7" transform="translate(75.097656 0.99375)"/>
       <use xlink:href="#ArialMT-31" transform="translate(152.978516 0.99375)"/>
       <use xlink:href="#ArialMT-30" transform="translate(208.59375 0.99375)"/>
       <use xlink:href="#ArialMT-2212" transform="translate(265.951328 70.6875) scale(0.7)"/>
       <use xlink:href="#ArialMT-31" transform="translate(306.830234 70.6875) scale(0.7)"/>
      </g>
     </g>
    </g>
    <g id="ytick_7">
     <g id="text_7">
      <!-- $\mathdefault{3\times10^{-1}}$ -->
      <g style="fill: #262626" transform="translate(41.816294 98.413087) scale(0.176 -0.176)">
       <defs>
        <path id="ArialMT-33" d="M 269 1209 
L 831 1284 
Q 928 806 1161 595 
Q 1394 384 1728 384 
Q 2125 384 2398 659 
Q 2672 934 2672 1341 
Q 2672 1728 2419 1979 
Q 2166 2231 1775 2231 
Q 1616 2231 1378 2169 
L 1441 2663 
Q 1497 2656 1531 2656 
Q 1891 2656 2178 2843 
Q 2466 3031 2466 3422 
Q 2466 3731 2256 3934 
Q 2047 4138 1716 4138 
Q 1388 4138 1169 3931 
Q 950 3725 888 3313 
L 325 3413 
Q 428 3978 793 4289 
Q 1159 4600 1703 4600 
Q 2078 4600 2393 4439 
Q 2709 4278 2876 4000 
Q 3044 3722 3044 3409 
Q 3044 3113 2884 2869 
Q 2725 2625 2413 2481 
Q 2819 2388 3044 2092 
Q 3269 1797 3269 1353 
Q 3269 753 2831 336 
Q 2394 -81 1725 -81 
Q 1122 -81 723 278 
Q 325 638 269 1209 
z
" transform="scale(0.015625)"/>
       </defs>
       <use xlink:href="#ArialMT-33" transform="translate(0 0.99375)"/>
       <use xlink:href="#ArialMT-d7" transform="translate(75.097656 0.99375)"/>
       <use xlink:href="#ArialMT-31" transform="translate(152.978516 0.99375)"/>
       <use xlink:href="#ArialMT-30" transform="translate(208.59375 0.99375)"/>
       <use xlink:href="#ArialMT-2212" transform="translate(265.951328 70.6875) scale(0.7)"/>
       <use xlink:href="#ArialMT-31" transform="translate(306.830234 70.6875) scale(0.7)"/>
      </g>
     </g>
    </g>
    <g id="ytick_8">
     <g id="text_8">
      <!-- $\mathdefault{4\times10^{-1}}$ -->
      <g style="fill: #262626" transform="translate(41.816294 64.706186) scale(0.176 -0.176)">
       <defs>
        <path id="ArialMT-34" d="M 2069 0 
L 2069 1097 
L 81 1097 
L 81 1613 
L 2172 4581 
L 2631 4581 
L 2631 1613 
L 3250 1613 
L 3250 1097 
L 2631 1097 
L 2631 0 
L 2069 0 
z
M 2069 1613 
L 2069 3678 
L 634 1613 
L 2069 1613 
z
" transform="scale(0.015625)"/>
       </defs>
       <use xlink:href="#ArialMT-34" transform="translate(0 0.99375)"/>
       <use xlink:href="#ArialMT-d7" transform="translate(75.097656 0.99375)"/>
       <use xlink:href="#ArialMT-31" transform="translate(152.978516 0.99375)"/>
       <use xlink:href="#ArialMT-30" transform="translate(208.59375 0.99375)"/>
       <use xlink:href="#ArialMT-2212" transform="translate(265.951328 70.6875) scale(0.7)"/>
       <use xlink:href="#ArialMT-31" transform="translate(306.830234 70.6875) scale(0.7)"/>
      </g>
     </g>
    </g>
    <g id="ytick_9"/>
    <g id="text_9">
     <!-- scores -->
     <g style="fill: #262626" transform="translate(34.000294 178.0035) rotate(-90) scale(0.192 -0.192)">
      <defs>
       <path id="ArialMT-63" d="M 2588 1216 
L 3141 1144 
Q 3050 572 2676 248 
Q 2303 -75 1759 -75 
Q 1078 -75 664 370 
Q 250 816 250 1647 
Q 250 2184 428 2587 
Q 606 2991 970 3192 
Q 1334 3394 1763 3394 
Q 2303 3394 2647 3120 
Q 2991 2847 3088 2344 
L 2541 2259 
Q 2463 2594 2264 2762 
Q 2066 2931 1784 2931 
Q 1359 2931 1093 2626 
Q 828 2322 828 1663 
Q 828 994 1084 691 
Q 1341 388 1753 388 
Q 2084 388 2306 591 
Q 2528 794 2588 1216 
z
" transform="scale(0.015625)"/>
       <path id="ArialMT-6f" d="M 213 1659 
Q 213 2581 725 3025 
Q 1153 3394 1769 3394 
Q 2453 3394 2887 2945 
Q 3322 2497 3322 1706 
Q 3322 1066 3130 698 
Q 2938 331 2570 128 
Q 2203 -75 1769 -75 
Q 1072 -75 642 372 
Q 213 819 213 1659 
z
M 791 1659 
Q 791 1022 1069 705 
Q 1347 388 1769 388 
Q 2188 388 2466 706 
Q 2744 1025 2744 1678 
Q 2744 2294 2464 2611 
Q 2184 2928 1769 2928 
Q 1347 2928 1069 2612 
Q 791 2297 791 1659 
z
" transform="scale(0.015625)"/>
       <path id="ArialMT-65" d="M 2694 1069 
L 3275 997 
Q 3138 488 2766 206 
Q 2394 -75 1816 -75 
Q 1088 -75 661 373 
Q 234 822 234 1631 
Q 234 2469 665 2931 
Q 1097 3394 1784 3394 
Q 2450 3394 2872 2941 
Q 3294 2488 3294 1666 
Q 3294 1616 3291 1516 
L 816 1516 
Q 847 969 1125 678 
Q 1403 388 1819 388 
Q 2128 388 2347 550 
Q 2566 713 2694 1069 
z
M 847 1978 
L 2700 1978 
Q 2663 2397 2488 2606 
Q 2219 2931 1791 2931 
Q 1403 2931 1139 2672 
Q 875 2413 847 1978 
z
" transform="scale(0.015625)"/>
      </defs>
      <use xlink:href="#ArialMT-73"/>
      <use xlink:href="#ArialMT-63" x="50"/>
      <use xlink:href="#ArialMT-6f" x="100"/>
      <use xlink:href="#ArialMT-72" x="155.615234"/>
      <use xlink:href="#ArialMT-65" x="188.916016"/>
      <use xlink:href="#ArialMT-73" x="244.53125"/>
     </g>
    </g>
   </g>
   <g id="PolyCollection_1">
    <defs>
     <path id="m9e41118f00" d="M 116.559644 -289.490214 
L 116.559644 -206.159559 
L 117.199579 -206.159559 
L 117.839513 -185.119535 
L 118.479448 -166.050622 
L 119.119383 -170.653987 
L 119.759318 -155.296608 
L 120.399252 -151.725207 
L 121.039187 -144.672825 
L 121.679122 -144.672825 
L 122.319056 -144.67005 
L 122.958991 -144.67005 
L 123.598926 -144.561781 
L 124.23886 -126.905412 
L 124.878795 -126.905412 
L 125.51873 -126.905412 
L 126.158665 -126.905412 
L 126.798599 -120.9095 
L 127.438534 -120.813224 
L 128.078469 -120.9095 
L 128.718403 -120.9095 
L 129.358338 -120.9095 
L 129.998273 -112.466392 
L 130.638207 -116.242635 
L 131.278142 -116.242635 
L 131.918077 -117.275835 
L 132.558012 -117.283017 
L 133.197946 -116.242635 
L 133.837881 -116.242635 
L 134.477816 -116.995377 
L 135.11775 -116.871116 
L 135.757685 -116.242635 
L 136.39762 -116.887186 
L 137.037554 -116.887186 
L 137.677489 -116.992674 
L 138.317424 -117.283017 
L 138.957359 -116.871116 
L 139.597293 -115.52153 
L 140.237228 -110.460719 
L 140.877163 -110.460719 
L 141.517097 -110.440666 
L 142.157032 -110.460719 
L 142.796967 -109.65592 
L 143.436902 -110.460719 
L 144.076836 -109.65592 
L 144.716771 -110.440666 
L 145.356706 -110.460719 
L 145.99664 -110.460719 
L 146.636575 -110.460719 
L 147.27651 -110.460719 
L 147.916444 -110.460719 
L 148.556379 -110.460719 
L 149.196314 -110.460719 
L 149.836249 -110.460719 
L 150.476183 -110.460719 
L 151.116118 -109.618991 
L 151.756053 -109.65592 
L 152.395987 -102.149608 
L 153.035922 -103.277599 
L 153.675857 -102.01778 
L 154.315791 -102.149608 
L 154.955726 -102.686753 
L 155.595661 -103.277599 
L 156.235596 -103.404759 
L 156.87553 -102.149608 
L 157.515465 -102.700494 
L 158.1554 -102.555218 
L 158.795334 -102.5656 
L 159.435269 -102.149608 
L 160.075204 -103.387031 
L 160.715138 -101.434421 
L 161.355073 -102.5656 
L 161.995008 -102.5656 
L 162.634943 -102.149608 
L 163.274877 -102.149608 
L 163.914812 -102.149608 
L 164.554747 -102.5656 
L 165.194681 -102.149608 
L 165.834616 -102.149608 
L 166.474551 -102.5656 
L 167.114485 -102.5656 
L 167.75442 -102.555218 
L 168.394355 -101.434421 
L 169.03429 -102.149608 
L 169.674224 -102.149608 
L 170.314159 -101.298061 
L 170.954094 -102.149608 
L 171.594028 -101.298061 
L 172.233963 -102.149608 
L 172.873898 -102.5656 
L 173.513832 -101.298061 
L 174.153767 -102.149608 
L 174.793702 -102.5656 
L 175.433637 -102.149608 
L 176.073571 -102.131781 
L 176.713506 -101.298061 
L 177.353441 -102.5656 
L 177.993375 -102.5656 
L 178.63331 -102.887668 
L 179.273245 -102.555218 
L 179.91318 -102.149608 
L 180.553114 -102.131781 
L 181.193049 -102.5656 
L 181.832984 -102.5656 
L 182.472918 -102.5656 
L 183.112853 -102.149608 
L 183.752788 -102.555218 
L 184.392722 -102.5656 
L 185.032657 -102.555218 
L 185.672592 -102.149608 
L 186.312527 -102.383452 
L 186.952461 -102.383452 
L 187.592396 -102.149608 
L 188.232331 -102.389442 
L 188.872265 -102.389442 
L 189.5122 -102.149608 
L 190.152135 -102.389442 
L 190.792069 -103.408017 
L 191.432004 -102.149608 
L 192.071939 -102.389442 
L 192.711874 -102.149608 
L 193.351808 -101.00612 
L 193.991743 -101.00612 
L 194.631678 -101.00612 
L 195.271612 -100.193613 
L 195.911547 -100.108138 
L 196.551482 -100.020407 
L 197.191416 -101.0365 
L 197.831351 -100.195803 
L 198.471286 -100.108138 
L 199.111221 -97.218449 
L 199.751155 -96.864571 
L 200.39109 -96.864571 
L 201.031025 -96.382352 
L 201.670959 -97.069392 
L 202.310894 -96.382352 
L 202.950829 -96.382352 
L 203.590763 -96.382352 
L 204.230698 -97.069392 
L 204.870633 -96.382352 
L 205.510568 -92.588013 
L 206.150502 -92.588013 
L 206.790437 -92.588013 
L 207.430372 -92.873945 
L 208.070306 -92.588013 
L 208.710241 -93.290483 
L 209.350176 -92.588013 
L 209.990111 -92.588013 
L 210.630045 -92.588013 
L 211.26998 -83.382146 
L 211.909915 -82.684138 
L 212.549849 -82.684138 
L 213.189784 -78.765299 
L 213.829719 -82.021709 
L 214.469653 -81.964606 
L 215.109588 -82.477482 
L 215.749523 -82.486393 
L 216.389458 -82.126752 
L 217.029392 -82.486393 
L 217.669327 -82.486393 
L 218.309262 -82.486393 
L 218.949196 -82.486393 
L 219.589131 -82.486393 
L 220.229066 -82.477482 
L 220.869 -82.949242 
L 221.508935 -82.486393 
L 222.14887 -81.964606 
L 222.788805 -82.486393 
L 223.428739 -82.486393 
L 224.068674 -82.486393 
L 224.708609 -82.486393 
L 225.348543 -82.486393 
L 225.988478 -82.937693 
L 226.628413 -82.486393 
L 227.268347 -82.477482 
L 227.908282 -79.692333 
L 228.548217 -79.084825 
L 229.188152 -78.606424 
L 229.828086 -78.606424 
L 230.468021 -79.072889 
L 231.107956 -79.692333 
L 231.74789 -79.707869 
L 232.387825 -78.606424 
L 233.02776 -79.084825 
L 233.667694 -78.602727 
L 234.307629 -79.084825 
L 234.947564 -79.084825 
L 235.587499 -78.606424 
L 236.227433 -82.021709 
L 236.867368 -78.606424 
L 237.507303 -78.606424 
L 238.147237 -79.084825 
L 238.787172 -78.606424 
L 239.427107 -79.084825 
L 240.067042 -79.084825 
L 240.706976 -78.606424 
L 241.346911 -79.084825 
L 241.986846 -79.084825 
L 242.62678 -78.606424 
L 243.266715 -78.606424 
L 243.90665 -78.606424 
L 243.90665 -104.676473 
L 243.90665 -104.676473 
L 243.266715 -105.059594 
L 242.62678 -104.933988 
L 241.986846 -105.062544 
L 241.346911 -105.059594 
L 240.706976 -105.177529 
L 240.067042 -104.933988 
L 239.427107 -105.059594 
L 238.787172 -105.059594 
L 238.147237 -104.676473 
L 237.507303 -105.062544 
L 236.867368 -109.660592 
L 236.227433 -109.660592 
L 235.587499 -114.119474 
L 234.947564 -114.472975 
L 234.307629 -114.119474 
L 233.667694 -113.655308 
L 233.02776 -113.299328 
L 232.387825 -114.010209 
L 231.74789 -114.010209 
L 231.107956 -114.012942 
L 230.468021 -113.664194 
L 229.828086 -114.119474 
L 229.188152 -113.664194 
L 228.548217 -114.010209 
L 227.908282 -113.655308 
L 227.268347 -116.823503 
L 226.628413 -116.823503 
L 225.988478 -118.245698 
L 225.348543 -118.245698 
L 224.708609 -116.859269 
L 224.068674 -118.245698 
L 223.428739 -118.245698 
L 222.788805 -118.245698 
L 222.14887 -116.823503 
L 221.508935 -116.859269 
L 220.869 -118.245698 
L 220.229066 -116.823503 
L 219.589131 -116.823503 
L 218.949196 -116.823503 
L 218.309262 -117.822204 
L 217.669327 -116.823503 
L 217.029392 -116.823503 
L 216.389458 -118.586984 
L 215.749523 -116.823503 
L 215.109588 -116.823503 
L 214.469653 -116.823503 
L 213.829719 -116.823503 
L 213.189784 -118.586984 
L 212.549849 -118.245698 
L 211.909915 -116.823503 
L 211.26998 -116.823503 
L 210.630045 -117.400824 
L 209.990111 -118.245698 
L 209.350176 -118.601236 
L 208.710241 -118.245698 
L 208.070306 -118.586984 
L 207.430372 -119.155702 
L 206.790437 -118.601236 
L 206.150502 -118.254242 
L 205.510568 -118.245698 
L 204.870633 -119.570828 
L 204.230698 -118.586984 
L 203.590763 -119.155702 
L 202.950829 -118.674004 
L 202.310894 -119.155702 
L 201.670959 -119.155702 
L 201.031025 -118.674004 
L 200.39109 -119.155702 
L 199.751155 -119.07282 
L 199.111221 -119.074892 
L 198.471286 -119.074892 
L 197.831351 -119.155702 
L 197.191416 -119.94524 
L 196.551482 -119.94524 
L 195.911547 -119.94524 
L 195.271612 -119.580203 
L 194.631678 -120.886634 
L 193.991743 -119.234887 
L 193.351808 -120.244885 
L 192.711874 -120.419904 
L 192.071939 -120.419904 
L 191.432004 -120.894927 
L 190.792069 -121.9623 
L 190.152135 -120.419904 
L 189.5122 -120.244885 
L 188.872265 -120.419904 
L 188.232331 -120.249264 
L 187.592396 -120.419904 
L 186.952461 -120.884683 
L 186.312527 -120.419904 
L 185.672592 -121.293739 
L 185.032657 -120.570952 
L 184.392722 -120.884683 
L 183.752788 -120.570952 
L 183.112853 -120.570952 
L 182.472918 -120.570952 
L 181.832984 -120.570952 
L 181.193049 -120.570952 
L 180.553114 -120.570952 
L 179.91318 -120.244885 
L 179.273245 -120.570952 
L 178.63331 -120.244885 
L 177.993375 -120.253048 
L 177.353441 -120.570952 
L 176.713506 -120.570952 
L 176.073571 -120.570952 
L 175.433637 -120.570952 
L 174.793702 -120.578806 
L 174.153767 -120.578806 
L 173.513832 -120.570952 
L 172.873898 -120.570952 
L 172.233963 -120.570952 
L 171.594028 -120.570952 
L 170.954094 -120.570952 
L 170.314159 -120.570952 
L 169.674224 -120.253048 
L 169.03429 -120.589076 
L 168.394355 -120.570952 
L 167.75442 -119.853726 
L 167.114485 -121.293739 
L 166.474551 -120.570952 
L 165.834616 -120.570952 
L 165.194681 -120.570952 
L 164.554747 -120.570952 
L 163.914812 -121.293739 
L 163.274877 -132.794647 
L 162.634943 -132.778316 
L 161.995008 -133.429786 
L 161.355073 -133.429786 
L 160.715138 -132.794647 
L 160.075204 -132.778316 
L 159.435269 -132.794647 
L 158.795334 -133.429786 
L 158.1554 -132.778316 
L 157.515465 -133.429786 
L 156.87553 -133.429786 
L 156.235596 -133.328859 
L 155.595661 -133.328859 
L 154.955726 -133.429786 
L 154.315791 -133.429786 
L 153.675857 -133.429786 
L 153.035922 -133.328859 
L 152.395987 -132.457007 
L 151.756053 -139.160208 
L 151.116118 -138.546502 
L 150.476183 -139.160208 
L 149.836249 -147.860498 
L 149.196314 -147.860498 
L 148.556379 -149.741963 
L 147.916444 -149.741963 
L 147.27651 -148.351298 
L 146.636575 -156.441016 
L 145.99664 -156.885842 
L 145.356706 -159.232693 
L 144.716771 -156.94509 
L 144.076836 -159.232693 
L 143.436902 -159.232693 
L 142.796967 -156.441016 
L 142.157032 -156.429588 
L 141.517097 -156.885842 
L 140.877163 -159.232693 
L 140.237228 -159.232693 
L 139.597293 -159.760456 
L 138.957359 -160.477585 
L 138.317424 -162.997808 
L 137.677489 -162.758381 
L 137.037554 -162.758381 
L 136.39762 -162.997808 
L 135.757685 -162.997808 
L 135.11775 -160.504308 
L 134.477816 -163.962491 
L 133.837881 -163.5034 
L 133.197946 -162.997808 
L 132.558012 -162.997808 
L 131.918077 -163.962491 
L 131.278142 -163.962491 
L 130.638207 -162.997808 
L 129.998273 -162.758381 
L 129.358338 -176.000814 
L 128.718403 -176.000814 
L 128.078469 -176.000814 
L 127.438534 -174.153664 
L 126.798599 -176.000814 
L 126.158665 -176.000814 
L 125.51873 -176.000814 
L 124.878795 -181.016613 
L 124.23886 -180.33299 
L 123.598926 -191.599242 
L 122.958991 -195.090286 
L 122.319056 -195.162443 
L 121.679122 -194.748816 
L 121.039187 -195.162443 
L 120.399252 -198.05099 
L 119.759318 -207.556845 
L 119.119383 -250.074228 
L 118.479448 -250.082427 
L 117.839513 -263.133671 
L 117.199579 -289.498885 
L 116.559644 -289.490214 
z
" style="stroke: #4c72b0; stroke-opacity: 0.2; stroke-width: 0.8"/>
    </defs>
    <g clip-path="url(#p593d1feac5)">
     <use xlink:href="#m9e41118f00" x="0" y="345.6" style="fill: #4c72b0; fill-opacity: 0.2; stroke: #4c72b0; stroke-opacity: 0.2; stroke-width: 0.8"/>
    </g>
   </g>
   <g id="PolyCollection_2">
    <defs>
     <path id="mf1cd87a0a6" d="M 116.559644 -313.137273 
L 116.559644 -246.586562 
L 117.199579 -200.872911 
L 117.839513 -196.022204 
L 118.479448 -194.486585 
L 119.119383 -194.486585 
L 119.759318 -151.745179 
L 120.399252 -152.614503 
L 121.039187 -134.926603 
L 121.679122 -134.926603 
L 122.319056 -134.926603 
L 122.958991 -133.396707 
L 123.598926 -133.396707 
L 124.23886 -133.396707 
L 124.878795 -133.330189 
L 125.51873 -129.715067 
L 126.158665 -129.749373 
L 126.798599 -130.118967 
L 127.438534 -130.128429 
L 128.078469 -130.128429 
L 128.718403 -129.715067 
L 129.358338 -129.749373 
L 129.998273 -129.715067 
L 130.638207 -129.715067 
L 131.278142 -129.143334 
L 131.918077 -129.749373 
L 132.558012 -129.715067 
L 133.197946 -128.565247 
L 133.837881 -128.566114 
L 134.477816 -128.531459 
L 135.11775 -111.122186 
L 135.757685 -111.162391 
L 136.39762 -111.162391 
L 137.037554 -111.122186 
L 137.677489 -111.162391 
L 138.317424 -110.45185 
L 138.957359 -111.162391 
L 139.597293 -111.162391 
L 140.237228 -111.122186 
L 140.877163 -111.122186 
L 141.517097 -111.122186 
L 142.157032 -111.122186 
L 142.796967 -111.122186 
L 143.436902 -111.122186 
L 144.076836 -110.45185 
L 144.716771 -111.105474 
L 145.356706 -111.162391 
L 145.99664 -111.162391 
L 146.636575 -111.122186 
L 147.27651 -111.162391 
L 147.916444 -111.162391 
L 148.556379 -111.162391 
L 149.196314 -111.122186 
L 149.836249 -106.822643 
L 150.476183 -106.822643 
L 151.116118 -106.791872 
L 151.756053 -100.433354 
L 152.395987 -100.433354 
L 153.035922 -100.433354 
L 153.675857 -100.163895 
L 154.315791 -99.717982 
L 154.955726 -99.731479 
L 155.595661 -99.190402 
L 156.235596 -100.163895 
L 156.87553 -99.25829 
L 157.515465 -99.25829 
L 158.1554 -99.25829 
L 158.795334 -96.119726 
L 159.435269 -96.119726 
L 160.075204 -96.119726 
L 160.715138 -94.500529 
L 161.355073 -96.119726 
L 161.995008 -97.11896 
L 162.634943 -96.119726 
L 163.274877 -96.055168 
L 163.914812 -97.11896 
L 164.554747 -96.055168 
L 165.194681 -97.549632 
L 165.834616 -97.549632 
L 166.474551 -96.055168 
L 167.114485 -96.398637 
L 167.75442 -97.549632 
L 168.394355 -97.092482 
L 169.03429 -96.055168 
L 169.674224 -95.953267 
L 170.314159 -96.055168 
L 170.954094 -96.052622 
L 171.594028 -92.966405 
L 172.233963 -96.055168 
L 172.873898 -96.055168 
L 173.513832 -96.052622 
L 174.153767 -96.398637 
L 174.793702 -93.200757 
L 175.433637 -93.096342 
L 176.073571 -93.200757 
L 176.713506 -93.096342 
L 177.353441 -93.096342 
L 177.993375 -93.200757 
L 178.63331 -92.757063 
L 179.273245 -92.96379 
L 179.91318 -92.861781 
L 180.553114 -92.861781 
L 181.193049 -93.384229 
L 181.832984 -92.427688 
L 182.472918 -92.861781 
L 183.112853 -92.96379 
L 183.752788 -92.757063 
L 184.392722 -92.859164 
L 185.032657 -92.861781 
L 185.672592 -92.74884 
L 186.312527 -92.861781 
L 186.952461 -92.859164 
L 187.592396 -92.861781 
L 188.232331 -91.321841 
L 188.872265 -91.321841 
L 189.5122 -91.886483 
L 190.152135 -91.886483 
L 190.792069 -92.427688 
L 191.432004 -91.321841 
L 192.071939 -92.427688 
L 192.711874 -91.321841 
L 193.351808 -92.427688 
L 193.991743 -92.427688 
L 194.631678 -92.427688 
L 195.271612 -92.424304 
L 195.911547 -90.772405 
L 196.551482 -90.772405 
L 197.191416 -90.641267 
L 197.831351 -90.641267 
L 198.471286 -91.20127 
L 199.111221 -90.651942 
L 199.751155 -90.775492 
L 200.39109 -90.775492 
L 201.031025 -90.22416 
L 201.670959 -90.22416 
L 202.310894 -90.209936 
L 202.950829 -90.76174 
L 203.590763 -90.601909 
L 204.230698 -90.601909 
L 204.870633 -90.22416 
L 205.510568 -89.097217 
L 206.150502 -90.59248 
L 206.790437 -90.22416 
L 207.430372 -90.22416 
L 208.070306 -90.22416 
L 208.710241 -90.601909 
L 209.350176 -90.601909 
L 209.990111 -90.22416 
L 210.630045 -89.754628 
L 211.26998 -89.754628 
L 211.909915 -89.754628 
L 212.549849 -90.268164 
L 213.189784 -90.133892 
L 213.829719 -89.75211 
L 214.469653 -89.754628 
L 215.109588 -89.653865 
L 215.749523 -89.754628 
L 216.389458 -90.133892 
L 217.029392 -89.754628 
L 217.669327 -90.124425 
L 218.309262 -89.754628 
L 218.949196 -86.952291 
L 219.589131 -86.952291 
L 220.229066 -86.952291 
L 220.869 -86.952291 
L 221.508935 -86.952291 
L 222.14887 -86.952291 
L 222.788805 -86.952291 
L 223.428739 -86.952291 
L 224.068674 -86.952291 
L 224.708609 -86.952291 
L 225.348543 -86.952291 
L 225.988478 -86.952291 
L 226.628413 -87.474996 
L 227.268347 -86.952291 
L 227.908282 -86.952291 
L 228.548217 -86.952291 
L 229.188152 -87.462016 
L 229.828086 -86.427243 
L 230.468021 -86.954628 
L 231.107956 -86.952291 
L 231.74789 -86.952291 
L 232.387825 -86.952291 
L 233.02776 -86.952291 
L 233.667694 -87.474996 
L 234.307629 -86.83305 
L 234.947564 -86.952291 
L 235.587499 -86.952291 
L 236.227433 -86.952291 
L 236.867368 -86.952291 
L 237.507303 -86.427243 
L 238.147237 -87.474996 
L 238.787172 -86.952291 
L 239.427107 -86.952291 
L 240.067042 -86.952291 
L 240.706976 -86.952291 
L 241.346911 -87.462016 
L 241.986846 -86.427243 
L 242.62678 -87.462016 
L 243.266715 -86.952291 
L 243.90665 -86.427243 
L 243.90665 -100.193359 
L 243.90665 -100.193359 
L 243.266715 -99.590574 
L 242.62678 -99.592962 
L 241.986846 -99.590574 
L 241.346911 -99.590574 
L 240.706976 -99.590574 
L 240.067042 -99.592962 
L 239.427107 -99.243686 
L 238.787172 -99.68606 
L 238.147237 -99.68606 
L 237.507303 -99.243686 
L 236.867368 -99.590574 
L 236.227433 -99.68606 
L 235.587499 -100.18545 
L 234.947564 -99.592962 
L 234.307629 -99.243686 
L 233.667694 -99.68606 
L 233.02776 -99.590574 
L 232.387825 -99.243686 
L 231.74789 -99.590574 
L 231.107956 -99.243686 
L 230.468021 -99.252371 
L 229.828086 -99.590574 
L 229.188152 -99.243686 
L 228.548217 -99.243686 
L 227.908282 -99.68606 
L 227.268347 -99.590574 
L 226.628413 -99.243686 
L 225.988478 -100.62429 
L 225.348543 -99.592962 
L 224.708609 -99.590574 
L 224.068674 -99.590574 
L 223.428739 -99.252371 
L 222.788805 -99.590574 
L 222.14887 -99.590574 
L 221.508935 -99.590574 
L 220.869 -99.698571 
L 220.229066 -99.68606 
L 219.589131 -99.592962 
L 218.949196 -99.68606 
L 218.309262 -101.646101 
L 217.669327 -102.227807 
L 217.029392 -101.894355 
L 216.389458 -101.888369 
L 215.749523 -102.227807 
L 215.109588 -102.227807 
L 214.469653 -101.994795 
L 213.829719 -102.227807 
L 213.189784 -102.227807 
L 212.549849 -102.227807 
L 211.909915 -101.988815 
L 211.26998 -102.227807 
L 210.630045 -101.885792 
L 209.990111 -102.227807 
L 209.350176 -102.227807 
L 208.710241 -102.227807 
L 208.070306 -102.074337 
L 207.430372 -102.070399 
L 206.790437 -102.227807 
L 206.150502 -102.568826 
L 205.510568 -102.227807 
L 204.870633 -102.070399 
L 204.230698 -102.227807 
L 203.590763 -101.885792 
L 202.950829 -113.820642 
L 202.310894 -114.722827 
L 201.670959 -114.271931 
L 201.031025 -114.260347 
L 200.39109 -114.260347 
L 199.751155 -114.260347 
L 199.111221 -113.809346 
L 198.471286 -113.809346 
L 197.831351 -114.260347 
L 197.191416 -114.722827 
L 196.551482 -114.260347 
L 195.911547 -114.260347 
L 195.271612 -115.170332 
L 194.631678 -114.260347 
L 193.991743 -115.170332 
L 193.351808 -115.614184 
L 192.711874 -115.170332 
L 192.071939 -115.625684 
L 191.432004 -115.614184 
L 190.792069 -115.170332 
L 190.152135 -115.614184 
L 189.5122 -115.614184 
L 188.872265 -115.614184 
L 188.232331 -116.513755 
L 187.592396 -116.428186 
L 186.952461 -116.513755 
L 186.312527 -116.513755 
L 185.672592 -116.428186 
L 185.032657 -116.513755 
L 184.392722 -116.513755 
L 183.752788 -116.781997 
L 183.112853 -116.513755 
L 182.472918 -116.513755 
L 181.832984 -116.430326 
L 181.193049 -116.513755 
L 180.553114 -116.08219 
L 179.91318 -116.867307 
L 179.273245 -116.513755 
L 178.63331 -116.428186 
L 177.993375 -116.952556 
L 177.353441 -116.867307 
L 176.713506 -116.867307 
L 176.073571 -124.31374 
L 175.433637 -124.31374 
L 174.793702 -124.134083 
L 174.153767 -121.115765 
L 173.513832 -125.519019 
L 172.873898 -124.246361 
L 172.233963 -124.136087 
L 171.594028 -125.493533 
L 170.954094 -124.134083 
L 170.314159 -124.246361 
L 169.674224 -125.493533 
L 169.03429 -125.520215 
L 168.394355 -126.587179 
L 167.75442 -126.556869 
L 167.114485 -127.740494 
L 166.474551 -126.587179 
L 165.834616 -126.556092 
L 165.194681 -126.556869 
L 164.554747 -125.493533 
L 163.914812 -125.391 
L 163.274877 -125.493533 
L 162.634943 -124.387535 
L 161.995008 -125.391 
L 161.355073 -126.636931 
L 160.715138 -125.644124 
L 160.075204 -126.556092 
L 159.435269 -126.556092 
L 158.795334 -125.644124 
L 158.1554 -125.75244 
L 157.515465 -126.690644 
L 156.87553 -126.636931 
L 156.235596 -131.21167 
L 155.595661 -131.21167 
L 154.955726 -131.21167 
L 154.315791 -131.21167 
L 153.675857 -131.225122 
L 153.035922 -133.352109 
L 152.395987 -132.835807 
L 151.756053 -135.848974 
L 151.116118 -136.265221 
L 150.476183 -135.962073 
L 149.836249 -135.96659 
L 149.196314 -135.971074 
L 148.556379 -136.321583 
L 147.916444 -136.321583 
L 147.27651 -135.962073 
L 146.636575 -136.321583 
L 145.99664 -135.962073 
L 145.356706 -136.147078 
L 144.716771 -136.321583 
L 144.076836 -135.962073 
L 143.436902 -136.321583 
L 142.796967 -135.962073 
L 142.157032 -136.321583 
L 141.517097 -135.962073 
L 140.877163 -135.962073 
L 140.237228 -136.147078 
L 139.597293 -135.930353 
L 138.957359 -136.321583 
L 138.317424 -136.321583 
L 137.677489 -135.962073 
L 137.037554 -136.321583 
L 136.39762 -135.962073 
L 135.757685 -136.354009 
L 135.11775 -135.962073 
L 134.477816 -136.1426 
L 133.837881 -135.962073 
L 133.197946 -135.962073 
L 132.558012 -136.321583 
L 131.918077 -136.147078 
L 131.278142 -136.321583 
L 130.638207 -136.321583 
L 129.998273 -135.96659 
L 129.358338 -136.321583 
L 128.718403 -136.354009 
L 128.078469 -136.321583 
L 127.438534 -135.962073 
L 126.798599 -135.962073 
L 126.158665 -135.962073 
L 125.51873 -136.147078 
L 124.878795 -136.456315 
L 124.23886 -152.158193 
L 123.598926 -151.844195 
L 122.958991 -152.158193 
L 122.319056 -196.977863 
L 121.679122 -197.334035 
L 121.039187 -197.328222 
L 120.399252 -217.87596 
L 119.759318 -217.391747 
L 119.119383 -253.74896 
L 118.479448 -271.858075 
L 117.839513 -272.916929 
L 117.199579 -282.940549 
L 116.559644 -313.137273 
z
" style="stroke: #dd8452; stroke-opacity: 0.2; stroke-width: 0.8"/>
    </defs>
    <g clip-path="url(#p593d1feac5)">
     <use xlink:href="#mf1cd87a0a6" x="0" y="345.6" style="fill: #dd8452; fill-opacity: 0.2; stroke: #dd8452; stroke-opacity: 0.2; stroke-width: 0.8"/>
    </g>
   </g>
   <g id="PolyCollection_3">
    <defs>
     <path id="ma5952f3023" d="M 116.559644 -281.971127 
L 116.559644 -154.674709 
L 117.199579 -154.674709 
L 117.839513 -184.409548 
L 118.479448 -154.674709 
L 119.119383 -154.674709 
L 119.759318 -154.674709 
L 120.399252 -154.674709 
L 121.039187 -154.674709 
L 121.679122 -154.674709 
L 122.319056 -154.674709 
L 122.958991 -154.674709 
L 123.598926 -154.674709 
L 124.23886 -135.586504 
L 124.878795 -135.586504 
L 125.51873 -131.048256 
L 126.158665 -131.048256 
L 126.798599 -131.048256 
L 127.438534 -131.048256 
L 128.078469 -131.048256 
L 128.718403 -131.048256 
L 129.358338 -131.048256 
L 129.998273 -131.048256 
L 130.638207 -131.048256 
L 131.278142 -131.048256 
L 131.918077 -119.854115 
L 132.558012 -119.854115 
L 133.197946 -119.854115 
L 133.837881 -119.854115 
L 134.477816 -79.875686 
L 135.11775 -79.875686 
L 135.757685 -79.875686 
L 136.39762 -79.875686 
L 137.037554 -79.875686 
L 137.677489 -79.875686 
L 138.317424 -79.875686 
L 138.957359 -79.875686 
L 139.597293 -79.875686 
L 140.237228 -79.875686 
L 140.877163 -79.875686 
L 141.517097 -79.875686 
L 142.157032 -79.875686 
L 142.796967 -79.875686 
L 143.436902 -79.875686 
L 144.076836 -79.875686 
L 144.716771 -79.875686 
L 145.356706 -79.875686 
L 145.99664 -79.875686 
L 146.636575 -79.875686 
L 147.27651 -79.875686 
L 147.916444 -79.875686 
L 148.556379 -79.875686 
L 149.196314 -79.875686 
L 149.836249 -79.875686 
L 150.476183 -79.875686 
L 151.116118 -79.875686 
L 151.756053 -79.875686 
L 152.395987 -79.875686 
L 153.035922 -79.875686 
L 153.675857 -79.875686 
L 154.315791 -79.875686 
L 154.955726 -79.875686 
L 155.595661 -79.875686 
L 156.235596 -79.875686 
L 156.87553 -92.555399 
L 157.515465 -79.875686 
L 158.1554 -79.875686 
L 158.795334 -79.875686 
L 159.435269 -79.875686 
L 160.075204 -79.875686 
L 160.715138 -79.875686 
L 161.355073 -79.875686 
L 161.995008 -79.875686 
L 162.634943 -79.875686 
L 163.274877 -79.875686 
L 163.914812 -79.875686 
L 164.554747 -79.875686 
L 165.194681 -79.875686 
L 165.834616 -79.875686 
L 166.474551 -79.875686 
L 167.114485 -92.555399 
L 167.75442 -79.875686 
L 168.394355 -79.875686 
L 169.03429 -79.875686 
L 169.674224 -79.875686 
L 170.314159 -79.875686 
L 170.954094 -92.555399 
L 171.594028 -79.875686 
L 172.233963 -79.875686 
L 172.873898 -79.875686 
L 173.513832 -79.875686 
L 174.153767 -79.875686 
L 174.793702 -79.875686 
L 175.433637 -79.875686 
L 176.073571 -79.875686 
L 176.713506 -79.875686 
L 177.353441 -79.875686 
L 177.993375 -79.875686 
L 178.63331 -79.875686 
L 179.273245 -79.875686 
L 179.91318 -79.875686 
L 180.553114 -79.875686 
L 181.193049 -79.875686 
L 181.832984 -79.875686 
L 182.472918 -79.875686 
L 183.112853 -79.875686 
L 183.752788 -79.875686 
L 184.392722 -79.875686 
L 185.032657 -79.875686 
L 185.672592 -79.875686 
L 186.312527 -79.875686 
L 186.952461 -79.875686 
L 187.592396 -79.875686 
L 188.232331 -79.875686 
L 188.872265 -79.875686 
L 189.5122 -79.875686 
L 190.152135 -79.875686 
L 190.792069 -79.875686 
L 191.432004 -79.875686 
L 192.071939 -79.875686 
L 192.711874 -79.875686 
L 193.351808 -79.875686 
L 193.991743 -79.875686 
L 194.631678 -79.875686 
L 195.271612 -79.875686 
L 195.911547 -79.875686 
L 196.551482 -79.875686 
L 197.191416 -79.875686 
L 197.831351 -79.875686 
L 198.471286 -79.875686 
L 199.111221 -79.875686 
L 199.751155 -79.875686 
L 200.39109 -79.875686 
L 201.031025 -79.875686 
L 201.670959 -79.875686 
L 202.310894 -79.875686 
L 202.950829 -79.875686 
L 203.590763 -79.875686 
L 204.230698 -79.875686 
L 204.870633 -79.875686 
L 205.510568 -79.875686 
L 206.150502 -79.875686 
L 206.790437 -79.875686 
L 207.430372 -79.875686 
L 208.070306 -79.875686 
L 208.710241 -79.875686 
L 209.350176 -79.875686 
L 209.990111 -79.875686 
L 210.630045 -79.875686 
L 211.26998 -79.875686 
L 211.909915 -79.875686 
L 212.549849 -79.875686 
L 213.189784 -79.875686 
L 213.829719 -79.875686 
L 214.469653 -79.875686 
L 215.109588 -79.875686 
L 215.749523 -79.875686 
L 216.389458 -79.875686 
L 217.029392 -79.875686 
L 217.669327 -79.875686 
L 218.309262 -79.875686 
L 218.949196 -79.875686 
L 219.589131 -79.875686 
L 220.229066 -79.875686 
L 220.869 -79.875686 
L 221.508935 -79.875686 
L 222.14887 -79.875686 
L 222.788805 -79.875686 
L 223.428739 -79.875686 
L 224.068674 -79.875686 
L 224.708609 -79.875686 
L 225.348543 -79.875686 
L 225.988478 -79.875686 
L 226.628413 -79.875686 
L 227.268347 -79.875686 
L 227.908282 -79.875686 
L 228.548217 -79.875686 
L 229.188152 -79.875686 
L 229.828086 -79.875686 
L 230.468021 -79.875686 
L 231.107956 -79.875686 
L 231.74789 -79.875686 
L 232.387825 -79.875686 
L 233.02776 -79.875686 
L 233.667694 -79.875686 
L 234.307629 -79.875686 
L 234.947564 -79.875686 
L 235.587499 -79.875686 
L 236.227433 -79.875686 
L 236.867368 -79.875686 
L 237.507303 -79.875686 
L 238.147237 -82.30363 
L 238.787172 -79.875686 
L 239.427107 -79.875686 
L 240.067042 -79.875686 
L 240.706976 -79.875686 
L 241.346911 -79.875686 
L 241.986846 -82.365228 
L 242.62678 -79.875686 
L 243.266715 -79.875686 
L 243.90665 -79.875686 
L 243.90665 -100.862656 
L 243.90665 -100.862656 
L 243.266715 -100.862656 
L 242.62678 -100.862656 
L 241.986846 -100.862656 
L 241.346911 -100.862656 
L 240.706976 -100.862656 
L 240.067042 -96.480336 
L 239.427107 -100.862656 
L 238.787172 -100.862656 
L 238.147237 -100.862656 
L 237.507303 -96.480336 
L 236.867368 -100.862656 
L 236.227433 -100.862656 
L 235.587499 -96.591916 
L 234.947564 -100.862656 
L 234.307629 -100.862656 
L 233.667694 -100.862656 
L 233.02776 -100.862656 
L 232.387825 -100.862656 
L 231.74789 -100.862656 
L 231.107956 -100.862656 
L 230.468021 -100.862656 
L 229.828086 -100.862656 
L 229.188152 -100.862656 
L 228.548217 -100.862656 
L 227.908282 -100.862656 
L 227.268347 -100.862656 
L 226.628413 -100.862656 
L 225.988478 -100.862656 
L 225.348543 -100.862656 
L 224.708609 -100.862656 
L 224.068674 -100.862656 
L 223.428739 -100.862656 
L 222.788805 -100.862656 
L 222.14887 -100.862656 
L 221.508935 -100.862656 
L 220.869 -100.862656 
L 220.229066 -100.862656 
L 219.589131 -100.862656 
L 218.949196 -100.862656 
L 218.309262 -100.862656 
L 217.669327 -100.862656 
L 217.029392 -100.862656 
L 216.389458 -100.862656 
L 215.749523 -100.862656 
L 215.109588 -100.862656 
L 214.469653 -100.862656 
L 213.829719 -100.862656 
L 213.189784 -114.418091 
L 212.549849 -114.418091 
L 211.909915 -106.026277 
L 211.26998 -114.418091 
L 210.630045 -114.418091 
L 209.990111 -114.418091 
L 209.350176 -114.418091 
L 208.710241 -114.418091 
L 208.070306 -114.418091 
L 207.430372 -114.418091 
L 206.790437 -114.418091 
L 206.150502 -114.418091 
L 205.510568 -114.418091 
L 204.870633 -114.418091 
L 204.230698 -114.418091 
L 203.590763 -114.418091 
L 202.950829 -114.418091 
L 202.310894 -114.418091 
L 201.670959 -114.418091 
L 201.031025 -114.418091 
L 200.39109 -114.418091 
L 199.751155 -114.418091 
L 199.111221 -114.856399 
L 198.471286 -114.856399 
L 197.831351 -114.856399 
L 197.191416 -114.856399 
L 196.551482 -114.856399 
L 195.911547 -114.856399 
L 195.271612 -114.856399 
L 194.631678 -114.856399 
L 193.991743 -114.856399 
L 193.351808 -114.856399 
L 192.711874 -114.856399 
L 192.071939 -114.856399 
L 191.432004 -114.856399 
L 190.792069 -114.856399 
L 190.152135 -114.856399 
L 189.5122 -114.856399 
L 188.872265 -114.856399 
L 188.232331 -114.856399 
L 187.592396 -114.856399 
L 186.952461 -114.856399 
L 186.312527 -114.856399 
L 185.672592 -114.856399 
L 185.032657 -114.856399 
L 184.392722 -114.856399 
L 183.752788 -114.856399 
L 183.112853 -114.856399 
L 182.472918 -114.856399 
L 181.832984 -114.856399 
L 181.193049 -114.856399 
L 180.553114 -114.856399 
L 179.91318 -114.856399 
L 179.273245 -114.856399 
L 178.63331 -114.856399 
L 177.993375 -114.856399 
L 177.353441 -114.856399 
L 176.713506 -114.856399 
L 176.073571 -114.856399 
L 175.433637 -114.856399 
L 174.793702 -114.856399 
L 174.153767 -114.856399 
L 173.513832 -114.856399 
L 172.873898 -114.856399 
L 172.233963 -114.856399 
L 171.594028 -114.856399 
L 170.954094 -114.856399 
L 170.314159 -114.856399 
L 169.674224 -114.856399 
L 169.03429 -114.856399 
L 168.394355 -114.856399 
L 167.75442 -114.856399 
L 167.114485 -114.856399 
L 166.474551 -114.856399 
L 165.834616 -114.856399 
L 165.194681 -114.856399 
L 164.554747 -114.856399 
L 163.914812 -114.856399 
L 163.274877 -114.856399 
L 162.634943 -114.856399 
L 161.995008 -114.856399 
L 161.355073 -114.856399 
L 160.715138 -114.856399 
L 160.075204 -114.856399 
L 159.435269 -114.856399 
L 158.795334 -114.856399 
L 158.1554 -114.856399 
L 157.515465 -114.856399 
L 156.87553 -114.856399 
L 156.235596 -114.856399 
L 155.595661 -114.856399 
L 154.955726 -114.856399 
L 154.315791 -114.856399 
L 153.675857 -114.856399 
L 153.035922 -114.856399 
L 152.395987 -119.854115 
L 151.756053 -119.854115 
L 151.116118 -119.854115 
L 150.476183 -119.854115 
L 149.836249 -119.854115 
L 149.196314 -119.854115 
L 148.556379 -119.854115 
L 147.916444 -119.854115 
L 147.27651 -119.854115 
L 146.636575 -119.854115 
L 145.99664 -119.854115 
L 145.356706 -119.854115 
L 144.716771 -119.854115 
L 144.076836 -119.854115 
L 143.436902 -119.854115 
L 142.796967 -119.854115 
L 142.157032 -119.854115 
L 141.517097 -119.854115 
L 140.877163 -119.854115 
L 140.237228 -119.854115 
L 139.597293 -119.854115 
L 138.957359 -119.854115 
L 138.317424 -119.854115 
L 137.677489 -131.048256 
L 137.037554 -131.048256 
L 136.39762 -131.048256 
L 135.757685 -131.048256 
L 135.11775 -131.048256 
L 134.477816 -131.048256 
L 133.837881 -135.586504 
L 133.197946 -135.586504 
L 132.558012 -135.586504 
L 131.918077 -135.586504 
L 131.278142 -141.407729 
L 130.638207 -141.407729 
L 129.998273 -141.407729 
L 129.358338 -141.407729 
L 128.718403 -141.407729 
L 128.078469 -141.407729 
L 127.438534 -141.407729 
L 126.798599 -141.407729 
L 126.158665 -141.407729 
L 125.51873 -141.407729 
L 124.878795 -154.674709 
L 124.23886 -154.674709 
L 123.598926 -204.213925 
L 122.958991 -204.213925 
L 122.319056 -204.213925 
L 121.679122 -204.213925 
L 121.039187 -204.213925 
L 120.399252 -204.213925 
L 119.759318 -229.191912 
L 119.119383 -229.191912 
L 118.479448 -229.191912 
L 117.839513 -251.689561 
L 117.199579 -251.689561 
L 116.559644 -281.971127 
z
" style="stroke: #55a868; stroke-opacity: 0.2; stroke-width: 0.8"/>
    </defs>
    <g clip-path="url(#p593d1feac5)">
     <use xlink:href="#ma5952f3023" x="0" y="345.6" style="fill: #55a868; fill-opacity: 0.2; stroke: #55a868; stroke-opacity: 0.2; stroke-width: 0.8"/>
    </g>
   </g>
   <g id="PolyCollection_4">
    <defs>
     <path id="mdb099fcb54" d="M 116.559644 -296.042537 
L 116.559644 -256.320285 
L 117.199579 -188.995718 
L 117.839513 -188.995718 
L 118.479448 -188.995718 
L 119.119383 -157.522968 
L 119.759318 -157.522968 
L 120.399252 -157.522968 
L 121.039187 -168.979209 
L 121.679122 -149.613542 
L 122.319056 -130.626733 
L 122.958991 -116.552427 
L 123.598926 -116.552427 
L 124.23886 -116.552427 
L 124.878795 -116.552427 
L 125.51873 -116.552427 
L 126.158665 -116.552427 
L 126.798599 -116.552427 
L 127.438534 -116.552427 
L 128.078469 -116.552427 
L 128.718403 -116.552427 
L 129.358338 -116.552427 
L 129.998273 -116.552427 
L 130.638207 -116.552427 
L 131.278142 -116.552427 
L 131.918077 -116.552427 
L 132.558012 -116.552427 
L 133.197946 -116.552427 
L 133.837881 -114.226465 
L 134.477816 -112.628099 
L 135.11775 -109.321157 
L 135.757685 -109.321157 
L 136.39762 -109.321157 
L 137.037554 -109.321157 
L 137.677489 -109.321157 
L 138.317424 -109.321157 
L 138.957359 -109.321157 
L 139.597293 -109.321157 
L 140.237228 -109.321157 
L 140.877163 -109.321157 
L 141.517097 -109.321157 
L 142.157032 -109.321157 
L 142.796967 -109.321157 
L 143.436902 -109.321157 
L 144.076836 -90.502913 
L 144.716771 -90.502913 
L 145.356706 -90.502913 
L 145.99664 -90.502913 
L 146.636575 -90.502913 
L 147.27651 -90.502913 
L 147.916444 -90.502913 
L 148.556379 -90.502913 
L 149.196314 -90.502913 
L 149.836249 -90.502913 
L 150.476183 -90.502913 
L 151.116118 -90.502913 
L 151.756053 -90.502913 
L 152.395987 -90.502913 
L 153.035922 -90.502913 
L 153.675857 -90.502913 
L 154.315791 -90.502913 
L 154.955726 -90.502913 
L 155.595661 -90.502913 
L 156.235596 -90.502913 
L 156.87553 -90.502913 
L 157.515465 -90.502913 
L 158.1554 -92.146516 
L 158.795334 -90.502913 
L 159.435269 -90.502913 
L 160.075204 -90.502913 
L 160.715138 -90.502913 
L 161.355073 -90.502913 
L 161.995008 -90.502913 
L 162.634943 -89.7141 
L 163.274877 -89.7141 
L 163.914812 -89.7141 
L 164.554747 -89.7141 
L 165.194681 -89.7141 
L 165.834616 -89.7141 
L 166.474551 -89.7141 
L 167.114485 -89.7141 
L 167.75442 -89.7141 
L 168.394355 -89.7141 
L 169.03429 -89.7141 
L 169.674224 -89.7141 
L 170.314159 -88.604134 
L 170.954094 -88.604134 
L 171.594028 -88.604134 
L 172.233963 -88.604134 
L 172.873898 -88.604134 
L 173.513832 -90.501064 
L 174.153767 -88.604134 
L 174.793702 -88.604134 
L 175.433637 -88.604134 
L 176.073571 -88.604134 
L 176.713506 -88.604134 
L 177.353441 -88.604134 
L 177.993375 -88.604134 
L 178.63331 -88.604134 
L 179.273245 -88.604134 
L 179.91318 -88.604134 
L 180.553114 -88.604134 
L 181.193049 -88.604134 
L 181.832984 -88.604134 
L 182.472918 -88.604134 
L 183.112853 -88.604134 
L 183.752788 -88.604134 
L 184.392722 -88.604134 
L 185.032657 -88.604134 
L 185.672592 -88.604134 
L 186.312527 -88.604134 
L 186.952461 -87.600568 
L 187.592396 -87.600568 
L 188.232331 -87.600568 
L 188.872265 -87.600568 
L 189.5122 -87.600568 
L 190.152135 -87.600568 
L 190.792069 -87.600568 
L 191.432004 -87.600568 
L 192.071939 -87.600568 
L 192.711874 -87.600568 
L 193.351808 -87.600568 
L 193.991743 -87.600568 
L 194.631678 -83.400326 
L 195.271612 -83.400326 
L 195.911547 -83.400326 
L 196.551482 -83.400326 
L 197.191416 -83.400326 
L 197.831351 -83.048158 
L 198.471286 -83.048158 
L 199.111221 -83.048158 
L 199.751155 -83.048158 
L 200.39109 -83.048158 
L 201.031025 -83.048158 
L 201.670959 -83.048158 
L 202.310894 -83.048158 
L 202.950829 -83.048158 
L 203.590763 -83.048158 
L 204.230698 -83.048158 
L 204.870633 -83.048158 
L 205.510568 -83.048158 
L 206.150502 -83.048158 
L 206.790437 -83.048158 
L 207.430372 -83.048158 
L 208.070306 -83.048158 
L 208.710241 -83.048158 
L 209.350176 -83.048158 
L 209.990111 -83.048158 
L 210.630045 -83.048158 
L 211.26998 -83.048158 
L 211.909915 -83.048158 
L 212.549849 -83.048158 
L 213.189784 -83.048158 
L 213.829719 -83.048158 
L 214.469653 -83.048158 
L 215.109588 -83.048158 
L 215.749523 -83.048158 
L 216.389458 -82.773158 
L 217.029392 -82.773158 
L 217.669327 -82.773158 
L 218.309262 -84.014383 
L 218.949196 -82.773158 
L 219.589131 -82.773158 
L 220.229066 -82.773158 
L 220.869 -82.773158 
L 221.508935 -82.773158 
L 222.14887 -82.773158 
L 222.788805 -82.773158 
L 223.428739 -82.773158 
L 224.068674 -82.490193 
L 224.708609 -82.490193 
L 225.348543 -82.490193 
L 225.988478 -82.490193 
L 226.628413 -82.490193 
L 227.268347 -82.490193 
L 227.908282 -82.490193 
L 228.548217 -82.490193 
L 229.188152 -82.490193 
L 229.828086 -82.190223 
L 230.468021 -82.190223 
L 231.107956 -82.190223 
L 231.74789 -82.190223 
L 232.387825 -82.190223 
L 233.02776 -82.190223 
L 233.667694 -81.742888 
L 234.307629 -81.742888 
L 234.947564 -81.742888 
L 235.587499 -81.742888 
L 236.227433 -81.742888 
L 236.867368 -81.742888 
L 237.507303 -81.742888 
L 238.147237 -81.742888 
L 238.787172 -81.742888 
L 239.427107 -81.742888 
L 240.067042 -81.742888 
L 240.706976 -81.742888 
L 241.346911 -81.742888 
L 241.986846 -81.742888 
L 242.62678 -81.742888 
L 243.266715 -81.742888 
L 243.90665 -81.742888 
L 243.90665 -96.094171 
L 243.90665 -96.094171 
L 243.266715 -96.094171 
L 242.62678 -96.844998 
L 241.986846 -92.280236 
L 241.346911 -96.844998 
L 240.706976 -98.558204 
L 240.067042 -98.558204 
L 239.427107 -98.558204 
L 238.787172 -98.558204 
L 238.147237 -98.558204 
L 237.507303 -93.485208 
L 236.867368 -98.558204 
L 236.227433 -98.558204 
L 235.587499 -98.558204 
L 234.947564 -98.558204 
L 234.307629 -98.558204 
L 233.667694 -98.558204 
L 233.02776 -98.558204 
L 232.387825 -93.995424 
L 231.74789 -98.558204 
L 231.107956 -98.558204 
L 230.468021 -98.558204 
L 229.828086 -98.558204 
L 229.188152 -98.558204 
L 228.548217 -98.558204 
L 227.908282 -98.558204 
L 227.268347 -98.558204 
L 226.628413 -98.558204 
L 225.988478 -98.558204 
L 225.348543 -98.558204 
L 224.708609 -102.997456 
L 224.068674 -102.997456 
L 223.428739 -97.873899 
L 222.788805 -102.997456 
L 222.14887 -102.997456 
L 221.508935 -102.997456 
L 220.869 -102.997456 
L 220.229066 -102.997456 
L 219.589131 -102.997456 
L 218.949196 -102.997456 
L 218.309262 -102.997456 
L 217.669327 -102.997456 
L 217.029392 -102.997456 
L 216.389458 -97.873899 
L 215.749523 -102.997456 
L 215.109588 -102.997456 
L 214.469653 -102.997456 
L 213.829719 -102.997456 
L 213.189784 -108.008114 
L 212.549849 -108.008114 
L 211.909915 -108.008114 
L 211.26998 -108.008114 
L 210.630045 -101.255778 
L 209.990111 -108.008114 
L 209.350176 -108.008114 
L 208.710241 -108.008114 
L 208.070306 -108.008114 
L 207.430372 -108.008114 
L 206.790437 -108.008114 
L 206.150502 -108.008114 
L 205.510568 -108.008114 
L 204.870633 -108.008114 
L 204.230698 -108.008114 
L 203.590763 -108.008114 
L 202.950829 -101.54179 
L 202.310894 -108.008114 
L 201.670959 -108.008114 
L 201.031025 -108.008114 
L 200.39109 -108.008114 
L 199.751155 -108.008114 
L 199.111221 -108.008114 
L 198.471286 -108.008114 
L 197.831351 -108.008114 
L 197.191416 -108.008114 
L 196.551482 -108.008114 
L 195.911547 -108.008114 
L 195.271612 -108.008114 
L 194.631678 -108.008114 
L 193.991743 -108.008114 
L 193.351808 -132.312242 
L 192.711874 -132.312242 
L 192.071939 -132.312242 
L 191.432004 -132.312242 
L 190.792069 -132.312242 
L 190.152135 -132.799128 
L 189.5122 -133.924478 
L 188.872265 -133.924478 
L 188.232331 -133.924478 
L 187.592396 -133.924478 
L 186.952461 -133.924478 
L 186.312527 -133.924478 
L 185.672592 -122.430293 
L 185.032657 -133.924478 
L 184.392722 -133.924478 
L 183.752788 -133.924478 
L 183.112853 -133.924478 
L 182.472918 -133.924478 
L 181.832984 -133.924478 
L 181.193049 -133.924478 
L 180.553114 -133.924478 
L 179.91318 -133.924478 
L 179.273245 -133.924478 
L 178.63331 -133.924478 
L 177.993375 -133.924478 
L 177.353441 -133.924478 
L 176.713506 -133.924478 
L 176.073571 -133.924478 
L 175.433637 -133.924478 
L 174.793702 -133.924478 
L 174.153767 -133.924478 
L 173.513832 -133.924478 
L 172.873898 -133.924478 
L 172.233963 -133.924478 
L 171.594028 -133.924478 
L 170.954094 -133.924478 
L 170.314159 -133.924478 
L 169.674224 -134.710613 
L 169.03429 -134.710613 
L 168.394355 -134.710613 
L 167.75442 -134.710613 
L 167.114485 -134.710613 
L 166.474551 -134.710613 
L 165.834616 -135.349121 
L 165.194681 -135.349121 
L 164.554747 -138.242881 
L 163.914812 -138.242881 
L 163.274877 -138.242881 
L 162.634943 -138.242881 
L 161.995008 -138.242881 
L 161.355073 -138.242881 
L 160.715138 -138.242881 
L 160.075204 -138.242881 
L 159.435269 -138.242881 
L 158.795334 -138.242881 
L 158.1554 -138.242881 
L 157.515465 -138.242881 
L 156.87553 -138.242881 
L 156.235596 -138.242881 
L 155.595661 -138.242881 
L 154.955726 -138.242881 
L 154.315791 -138.242881 
L 153.675857 -138.242881 
L 153.035922 -138.242881 
L 152.395987 -143.781015 
L 151.756053 -143.781015 
L 151.116118 -143.781015 
L 150.476183 -135.652238 
L 149.836249 -143.781015 
L 149.196314 -143.781015 
L 148.556379 -143.781015 
L 147.916444 -143.781015 
L 147.27651 -143.781015 
L 146.636575 -143.781015 
L 145.99664 -135.862484 
L 145.356706 -143.781015 
L 144.716771 -143.781015 
L 144.076836 -143.781015 
L 143.436902 -143.781015 
L 142.796967 -143.781015 
L 142.157032 -135.862484 
L 141.517097 -143.781015 
L 140.877163 -143.781015 
L 140.237228 -143.781015 
L 139.597293 -143.781015 
L 138.957359 -143.781015 
L 138.317424 -143.781015 
L 137.677489 -143.781015 
L 137.037554 -143.781015 
L 136.39762 -143.781015 
L 135.757685 -143.781015 
L 135.11775 -143.781015 
L 134.477816 -143.781015 
L 133.837881 -143.781015 
L 133.197946 -143.781015 
L 132.558012 -143.781015 
L 131.918077 -143.781015 
L 131.278142 -157.522968 
L 130.638207 -157.522968 
L 129.998273 -157.522968 
L 129.358338 -157.522968 
L 128.718403 -157.522968 
L 128.078469 -149.225149 
L 127.438534 -157.522968 
L 126.798599 -157.522968 
L 126.158665 -157.522968 
L 125.51873 -157.522968 
L 124.878795 -157.522968 
L 124.23886 -157.522968 
L 123.598926 -157.522968 
L 122.958991 -157.522968 
L 122.319056 -157.522968 
L 121.679122 -212.996952 
L 121.039187 -212.996952 
L 120.399252 -212.996952 
L 119.759318 -212.996952 
L 119.119383 -212.996952 
L 118.479448 -253.406044 
L 117.839513 -256.320285 
L 117.199579 -288.415754 
L 116.559644 -296.042537 
z
" style="stroke: #c44e52; stroke-opacity: 0.2; stroke-width: 0.8"/>
    </defs>
    <g clip-path="url(#p593d1feac5)">
     <use xlink:href="#mdb099fcb54" x="0" y="345.6" style="fill: #c44e52; fill-opacity: 0.2; stroke: #c44e52; stroke-opacity: 0.2; stroke-width: 0.8"/>
    </g>
   </g>
   <g id="PolyCollection_5">
    <defs>
     <path id="m5230312680" d="M 116.559644 -305.619331 
L 116.559644 -305.619331 
L 117.199579 -257.462116 
L 117.839513 -222.320064 
L 118.479448 -169.82529 
L 119.119383 -169.82529 
L 119.759318 -169.82529 
L 120.399252 -169.82529 
L 121.039187 -169.82529 
L 121.679122 -169.82529 
L 122.319056 -169.82529 
L 122.958991 -169.82529 
L 123.598926 -169.82529 
L 124.23886 -169.82529 
L 124.878795 -169.82529 
L 125.51873 -169.82529 
L 126.158665 -169.82529 
L 126.798599 -169.82529 
L 127.438534 -169.82529 
L 128.078469 -169.82529 
L 128.718403 -169.82529 
L 129.358338 -169.82529 
L 129.998273 -169.82529 
L 130.638207 -169.82529 
L 131.278142 -169.82529 
L 131.918077 -169.82529 
L 132.558012 -169.82529 
L 133.197946 -169.82529 
L 133.837881 -169.82529 
L 134.477816 -169.82529 
L 135.11775 -169.82529 
L 135.757685 -169.82529 
L 136.39762 -169.82529 
L 137.037554 -169.82529 
L 137.677489 -169.82529 
L 138.317424 -169.82529 
L 138.957359 -169.82529 
L 139.597293 -169.82529 
L 140.237228 -169.82529 
L 140.877163 -169.82529 
L 141.517097 -169.82529 
L 142.157032 -169.82529 
L 142.796967 -169.82529 
L 143.436902 -169.82529 
L 144.076836 -169.82529 
L 144.716771 -169.82529 
L 145.356706 -137.776722 
L 145.99664 -137.776722 
L 146.636575 -137.776722 
L 147.27651 -137.776722 
L 147.916444 -137.776722 
L 148.556379 -137.776722 
L 149.196314 -137.776722 
L 149.836249 -137.776722 
L 150.476183 -137.776722 
L 151.116118 -91.532317 
L 151.756053 -91.532317 
L 152.395987 -91.532317 
L 153.035922 -91.532317 
L 153.675857 -91.532317 
L 154.315791 -91.532317 
L 154.955726 -91.532317 
L 155.595661 -91.532317 
L 156.235596 -91.532317 
L 156.87553 -91.532317 
L 157.515465 -91.532317 
L 158.1554 -91.532317 
L 158.795334 -91.532317 
L 159.435269 -91.532317 
L 160.075204 -91.532317 
L 160.715138 -91.532317 
L 161.355073 -91.532317 
L 161.995008 -91.532317 
L 162.634943 -91.532317 
L 163.274877 -91.532317 
L 163.914812 -91.532317 
L 164.554747 -91.532317 
L 165.194681 -91.532317 
L 165.834616 -91.532317 
L 166.474551 -91.532317 
L 167.114485 -91.532317 
L 167.75442 -91.532317 
L 168.394355 -91.532317 
L 169.03429 -91.532317 
L 169.674224 -91.532317 
L 170.314159 -90.766501 
L 170.954094 -90.766501 
L 171.594028 -90.766501 
L 172.233963 -90.766501 
L 172.873898 -90.766501 
L 173.513832 -90.766501 
L 174.153767 -90.766501 
L 174.793702 -90.766501 
L 175.433637 -90.766501 
L 176.073571 -90.766501 
L 176.713506 -90.766501 
L 177.353441 -90.766501 
L 177.993375 -90.766501 
L 178.63331 -90.766501 
L 179.273245 -90.766501 
L 179.91318 -90.766501 
L 180.553114 -90.766501 
L 181.193049 -90.766501 
L 181.832984 -90.766501 
L 182.472918 -90.766501 
L 183.112853 -90.766501 
L 183.752788 -90.766501 
L 184.392722 -90.766501 
L 185.032657 -90.766501 
L 185.672592 -90.766501 
L 186.312527 -90.766501 
L 186.952461 -90.766501 
L 187.592396 -90.766501 
L 188.232331 -90.766501 
L 188.872265 -90.766501 
L 189.5122 -90.766501 
L 190.152135 -90.766501 
L 190.792069 -90.766501 
L 191.432004 -90.766501 
L 192.071939 -90.766499 
L 192.711874 -90.766499 
L 193.351808 -90.504048 
L 193.991743 -90.504048 
L 194.631678 -90.504048 
L 195.271612 -90.504048 
L 195.911547 -90.504048 
L 196.551482 -90.504048 
L 197.191416 -90.504048 
L 197.831351 -90.504048 
L 198.471286 -90.504048 
L 199.111221 -90.504048 
L 199.751155 -90.504048 
L 200.39109 -90.504048 
L 201.031025 -90.504048 
L 201.670959 -90.504048 
L 202.310894 -90.504048 
L 202.950829 -90.504048 
L 203.590763 -90.504048 
L 204.230698 -90.504048 
L 204.870633 -90.504048 
L 205.510568 -90.504048 
L 206.150502 -90.504048 
L 206.790437 -90.504048 
L 207.430372 -90.504048 
L 208.070306 -90.504048 
L 208.710241 -90.504048 
L 209.350176 -90.504048 
L 209.990111 -90.504048 
L 210.630045 -90.504048 
L 211.26998 -90.504048 
L 211.909915 -90.504048 
L 212.549849 -90.504048 
L 213.189784 -90.504048 
L 213.829719 -90.504048 
L 214.469653 -90.504048 
L 215.109588 -90.504048 
L 215.749523 -90.504048 
L 216.389458 -90.504048 
L 217.029392 -90.504048 
L 217.669327 -90.504048 
L 218.309262 -90.504048 
L 218.949196 -90.504048 
L 219.589131 -90.504048 
L 220.229066 -90.504048 
L 220.869 -90.504048 
L 221.508935 -90.504048 
L 222.14887 -90.504048 
L 222.788805 -90.504048 
L 223.428739 -90.504048 
L 224.068674 -90.504048 
L 224.708609 -90.504048 
L 225.348543 -90.504048 
L 225.988478 -90.504048 
L 226.628413 -90.504048 
L 227.268347 -90.504048 
L 227.908282 -90.504048 
L 228.548217 -90.504048 
L 229.188152 -90.504048 
L 229.828086 -90.504048 
L 230.468021 -90.504048 
L 231.107956 -90.504048 
L 231.74789 -90.504048 
L 232.387825 -90.504048 
L 233.02776 -90.504048 
L 233.667694 -90.504048 
L 234.307629 -90.504048 
L 234.947564 -90.504048 
L 235.587499 -90.504048 
L 236.227433 -90.504048 
L 236.867368 -90.504048 
L 237.507303 -90.504048 
L 238.147237 -90.504048 
L 238.787172 -90.504048 
L 239.427107 -90.504048 
L 240.067042 -90.504048 
L 240.706976 -90.504048 
L 241.346911 -90.504048 
L 241.986846 -90.504048 
L 242.62678 -90.504048 
L 243.266715 -90.504048 
L 243.90665 -90.504048 
L 243.90665 -122.344869 
L 243.90665 -122.344869 
L 243.266715 -122.344869 
L 242.62678 -122.344869 
L 241.986846 -122.344869 
L 241.346911 -122.344869 
L 240.706976 -122.344869 
L 240.067042 -122.344869 
L 239.427107 -122.344869 
L 238.787172 -122.344869 
L 238.147237 -122.344869 
L 237.507303 -122.344869 
L 236.867368 -122.344869 
L 236.227433 -122.344869 
L 235.587499 -122.344869 
L 234.947564 -122.344869 
L 234.307629 -122.344869 
L 233.667694 -122.344869 
L 233.02776 -122.344869 
L 232.387825 -122.344869 
L 231.74789 -122.344869 
L 231.107956 -122.344869 
L 230.468021 -122.344869 
L 229.828086 -122.344869 
L 229.188152 -122.344869 
L 228.548217 -122.344869 
L 227.908282 -122.344869 
L 227.268347 -122.344869 
L 226.628413 -122.344869 
L 225.988478 -122.344869 
L 225.348543 -122.344869 
L 224.708609 -122.344869 
L 224.068674 -122.344869 
L 223.428739 -122.344869 
L 222.788805 -122.344869 
L 222.14887 -122.344869 
L 221.508935 -122.344869 
L 220.869 -122.344869 
L 220.229066 -122.344869 
L 219.589131 -122.344869 
L 218.949196 -122.344869 
L 218.309262 -122.344869 
L 217.669327 -122.344869 
L 217.029392 -122.344869 
L 216.389458 -122.344869 
L 215.749523 -122.344869 
L 215.109588 -122.344869 
L 214.469653 -122.344869 
L 213.829719 -122.344869 
L 213.189784 -122.344869 
L 212.549849 -122.344869 
L 211.909915 -122.344869 
L 211.26998 -122.344869 
L 210.630045 -122.344869 
L 209.990111 -122.344869 
L 209.350176 -122.344869 
L 208.710241 -122.344869 
L 208.070306 -122.344869 
L 207.430372 -122.344869 
L 206.790437 -122.344869 
L 206.150502 -122.344869 
L 205.510568 -122.344869 
L 204.870633 -122.344869 
L 204.230698 -122.344869 
L 203.590763 -122.344869 
L 202.950829 -122.344869 
L 202.310894 -122.344869 
L 201.670959 -122.344869 
L 201.031025 -122.344869 
L 200.39109 -122.344869 
L 199.751155 -122.344869 
L 199.111221 -122.344869 
L 198.471286 -122.344869 
L 197.831351 -122.344869 
L 197.191416 -122.344869 
L 196.551482 -122.344869 
L 195.911547 -122.344869 
L 195.271612 -122.344869 
L 194.631678 -122.344869 
L 193.991743 -122.344869 
L 193.351808 -122.344869 
L 192.711874 -122.344869 
L 192.071939 -122.344869 
L 191.432004 -122.344869 
L 190.792069 -122.344869 
L 190.152135 -122.344869 
L 189.5122 -122.344869 
L 188.872265 -122.344869 
L 188.232331 -122.344869 
L 187.592396 -122.344869 
L 186.952461 -122.344869 
L 186.312527 -122.344869 
L 185.672592 -122.344869 
L 185.032657 -122.344869 
L 184.392722 -122.344869 
L 183.752788 -122.344869 
L 183.112853 -122.749063 
L 182.472918 -122.749063 
L 181.832984 -122.785116 
L 181.193049 -122.785116 
L 180.553114 -122.785116 
L 179.91318 -122.785116 
L 179.273245 -122.785116 
L 178.63331 -122.785116 
L 177.993375 -122.785116 
L 177.353441 -122.785116 
L 176.713506 -122.785116 
L 176.073571 -122.785116 
L 175.433637 -122.785116 
L 174.793702 -122.785116 
L 174.153767 -122.785116 
L 173.513832 -122.785116 
L 172.873898 -122.785116 
L 172.233963 -122.785116 
L 171.594028 -122.785116 
L 170.954094 -122.785116 
L 170.314159 -122.785116 
L 169.674224 -122.785116 
L 169.03429 -122.785116 
L 168.394355 -122.785116 
L 167.75442 -122.785116 
L 167.114485 -122.785116 
L 166.474551 -122.785116 
L 165.834616 -122.785116 
L 165.194681 -122.785116 
L 164.554747 -122.785116 
L 163.914812 -122.785116 
L 163.274877 -122.785116 
L 162.634943 -122.785116 
L 161.995008 -122.785116 
L 161.355073 -122.785116 
L 160.715138 -122.785116 
L 160.075204 -122.785116 
L 159.435269 -122.785116 
L 158.795334 -134.197568 
L 158.1554 -134.197568 
L 157.515465 -134.197568 
L 156.87553 -134.197568 
L 156.235596 -134.197568 
L 155.595661 -134.197568 
L 154.955726 -137.776722 
L 154.315791 -137.776722 
L 153.675857 -137.776722 
L 153.035922 -137.776722 
L 152.395987 -137.776722 
L 151.756053 -137.776722 
L 151.116118 -137.776722 
L 150.476183 -169.82529 
L 149.836249 -169.82529 
L 149.196314 -169.82529 
L 148.556379 -169.82529 
L 147.916444 -169.82529 
L 147.27651 -169.82529 
L 146.636575 -169.82529 
L 145.99664 -169.82529 
L 145.356706 -169.82529 
L 144.716771 -180.508491 
L 144.076836 -180.508491 
L 143.436902 -180.508491 
L 142.796967 -180.508491 
L 142.157032 -180.508491 
L 141.517097 -180.508491 
L 140.877163 -180.508491 
L 140.237228 -180.508491 
L 139.597293 -180.508491 
L 138.957359 -180.508491 
L 138.317424 -180.508491 
L 137.677489 -180.508491 
L 137.037554 -180.508491 
L 136.39762 -180.508491 
L 135.757685 -180.508491 
L 135.11775 -180.508491 
L 134.477816 -180.508491 
L 133.837881 -180.508491 
L 133.197946 -180.508491 
L 132.558012 -180.508491 
L 131.918077 -180.508491 
L 131.278142 -180.508491 
L 130.638207 -180.508491 
L 129.998273 -180.508491 
L 129.358338 -180.508491 
L 128.718403 -180.508491 
L 128.078469 -180.508491 
L 127.438534 -180.508491 
L 126.798599 -180.508491 
L 126.158665 -180.508491 
L 125.51873 -180.508491 
L 124.878795 -180.508491 
L 124.23886 -180.508491 
L 123.598926 -180.508491 
L 122.958991 -180.508491 
L 122.319056 -180.508491 
L 121.679122 -180.508491 
L 121.039187 -215.810801 
L 120.399252 -241.679025 
L 119.759318 -303.858683 
L 119.119383 -303.858683 
L 118.479448 -305.619331 
L 117.839513 -305.619331 
L 117.199579 -305.619331 
L 116.559644 -305.619331 
z
" style="stroke: #8172b3; stroke-opacity: 0.2; stroke-width: 0.8"/>
    </defs>
    <g clip-path="url(#p593d1feac5)">
     <use xlink:href="#m5230312680" x="0" y="345.6" style="fill: #8172b3; fill-opacity: 0.2; stroke: #8172b3; stroke-opacity: 0.2; stroke-width: 0.8"/>
    </g>
   </g>
   <g id="line2d_4">
    <path d="M 116.559644 86.110469 
L 117.199579 86.110469 
L 117.839513 111.269341 
L 118.479448 127.497281 
L 119.119383 127.497281 
L 119.759318 160.745597 
L 120.399252 169.647306 
L 121.039187 174.338098 
L 122.958991 174.338098 
L 123.598926 175.989149 
L 124.23886 188.542595 
L 124.878795 188.542595 
L 125.51873 191.593987 
L 126.158665 191.593987 
L 126.798599 193.936287 
L 129.358338 193.936287 
L 129.998273 203.386753 
L 138.957359 203.386753 
L 139.597293 207.262972 
L 140.237228 212.273827 
L 146.636575 212.273827 
L 147.27651 215.677576 
L 149.836249 215.677576 
L 150.476183 219.913001 
L 151.756053 219.913001 
L 152.395987 228.164382 
L 157.515465 228.164382 
L 158.1554 228.795122 
L 163.274877 228.795122 
L 163.914812 233.686198 
L 185.672592 233.686198 
L 186.312527 233.848838 
L 192.711874 233.848838 
L 193.351808 235.125351 
L 194.631678 235.125351 
L 195.271612 235.626237 
L 198.471286 235.626237 
L 199.111221 236.94556 
L 199.751155 237.105912 
L 200.39109 237.105912 
L 201.031025 237.542482 
L 204.870633 237.542482 
L 205.510568 239.949971 
L 210.630045 239.949971 
L 211.26998 244.110786 
L 211.909915 244.607142 
L 227.268347 244.69167 
L 227.908282 249.489588 
L 235.587499 249.489588 
L 236.227433 251.202721 
L 236.867368 251.202721 
L 237.507303 252.884855 
L 243.90665 252.884855 
L 243.90665 252.884855 
" clip-path="url(#p593d1feac5)" style="fill: none; stroke: #4c72b0; stroke-width: 2.5; stroke-linecap: round"/>
   </g>
   <g id="line2d_5">
    <path d="M 116.559644 61.075184 
L 117.199579 100.985477 
L 117.839513 110.982993 
L 118.479448 112.868 
L 119.119383 120.655106 
L 119.759318 155.868536 
L 120.399252 155.868536 
L 121.039187 176.059789 
L 122.319056 176.059789 
L 122.958991 204.805973 
L 124.23886 204.805973 
L 124.878795 210.879138 
L 125.51873 212.424405 
L 132.558012 212.424405 
L 133.197946 212.806151 
L 134.477816 212.806151 
L 135.11775 218.124969 
L 149.196314 218.124969 
L 149.836249 219.355298 
L 151.116118 219.416724 
L 151.756053 224.745769 
L 152.395987 227.065389 
L 153.035922 227.065389 
L 153.675857 228.886805 
L 156.235596 228.886805 
L 156.87553 231.94467 
L 158.1554 231.94467 
L 158.795334 233.398206 
L 169.03429 233.454483 
L 169.674224 234.862743 
L 173.513832 234.862743 
L 174.153767 237.377338 
L 176.073571 237.377338 
L 176.713506 240.099002 
L 177.993375 240.099002 
L 178.63331 240.794799 
L 187.592396 240.794799 
L 188.232331 242.184612 
L 195.271612 242.184612 
L 195.911547 244.189194 
L 202.950829 244.189194 
L 203.590763 248.755797 
L 209.990111 248.755797 
L 210.630045 249.199486 
L 218.309262 249.199486 
L 218.949196 252.340907 
L 243.90665 252.340907 
L 243.90665 252.340907 
" clip-path="url(#p593d1feac5)" style="fill: none; stroke: #dd8452; stroke-width: 2.5; stroke-linecap: round"/>
   </g>
   <g id="line2d_6">
    <path d="M 116.559644 104.881663 
L 117.199579 126.982886 
L 117.839513 126.982886 
L 118.479448 144.231558 
L 119.119383 144.231558 
L 119.759318 145.648881 
L 120.399252 167.827189 
L 123.598926 167.827189 
L 124.23886 201.435529 
L 124.878795 201.435529 
L 125.51873 209.508992 
L 131.278142 209.508992 
L 131.918077 216.585542 
L 133.837881 216.585542 
L 134.477816 233.363375 
L 137.677489 233.363375 
L 138.317424 239.272787 
L 149.836249 239.272787 
L 150.476183 239.594162 
L 152.395987 239.594162 
L 153.035922 241.444178 
L 199.111221 241.444178 
L 199.751155 243.314542 
L 210.630045 243.314542 
L 211.26998 250.807988 
L 213.189784 250.807988 
L 213.829719 255.964791 
L 243.90665 255.964791 
L 243.90665 255.964791 
" clip-path="url(#p593d1feac5)" style="fill: none; stroke: #55a868; stroke-width: 2.5; stroke-linecap: round"/>
   </g>
   <g id="line2d_7">
    <path d="M 116.559644 64.116818 
L 117.199579 94.142083 
L 117.839513 114.054423 
L 118.479448 120.674688 
L 119.119383 156.925983 
L 121.039187 156.925983 
L 121.679122 168.675484 
L 122.319056 199.143872 
L 122.958991 209.448308 
L 131.278142 209.448308 
L 131.918077 214.753715 
L 132.558012 214.753715 
L 133.197946 218.966706 
L 133.837881 220.153081 
L 134.477816 220.153081 
L 135.11775 221.131418 
L 143.436902 221.131418 
L 144.076836 226.337555 
L 150.476183 226.337555 
L 151.116118 227.119767 
L 151.756053 233.111859 
L 152.395987 233.111859 
L 153.035922 235.490951 
L 161.995008 235.490951 
L 162.634943 235.712837 
L 164.554747 235.712837 
L 165.194681 236.932816 
L 165.834616 236.932816 
L 166.474551 237.199659 
L 168.394355 237.199659 
L 169.03429 237.581233 
L 169.674224 237.581233 
L 170.314159 238.225972 
L 185.672592 238.225972 
L 186.952461 238.757294 
L 188.872265 238.757294 
L 189.5122 239.572511 
L 190.152135 240.047151 
L 190.792069 240.25169 
L 193.351808 240.25169 
L 193.991743 249.843359 
L 194.631678 252.095136 
L 201.670959 252.202714 
L 202.310894 252.440151 
L 204.870633 252.440151 
L 205.510568 252.563959 
L 213.189784 252.563959 
L 213.829719 254.436719 
L 223.428739 254.522183 
L 224.708609 254.609977 
L 225.348543 256.229895 
L 225.988478 256.229895 
L 226.628413 256.437367 
L 231.107956 256.531739 
L 231.74789 257.022168 
L 233.02776 257.022168 
L 233.667694 257.83775 
L 240.706976 257.83775 
L 241.346911 258.461037 
L 242.62678 258.461037 
L 243.266715 258.732373 
L 243.90665 258.732373 
L 243.90665 258.732373 
" clip-path="url(#p593d1feac5)" style="fill: none; stroke: #c44e52; stroke-width: 2.5; stroke-linecap: round"/>
   </g>
   <g id="line2d_8">
    <path d="M 116.559644 39.980669 
L 117.199579 61.602344 
L 118.479448 89.216437 
L 119.119383 90.554137 
L 119.759318 90.554137 
L 120.399252 134.423941 
L 121.039187 150.540252 
L 121.679122 170.311391 
L 144.716771 170.311391 
L 145.356706 190.706619 
L 150.476183 190.706619 
L 151.116118 228.678627 
L 154.955726 228.678627 
L 155.595661 230.803678 
L 158.795334 230.803678 
L 159.435269 237.402324 
L 169.674224 237.402324 
L 170.314159 237.733851 
L 183.112853 237.754324 
L 183.752788 237.983662 
L 192.711874 237.983663 
L 193.351808 238.097239 
L 243.90665 238.097239 
L 243.90665 238.097239 
" clip-path="url(#p593d1feac5)" style="fill: none; stroke: #8172b3; stroke-width: 2.5; stroke-linecap: round"/>
   </g>
   <g id="patch_3">
    <path d="M 110.192294 278.724 
L 110.192294 20.736 
" style="fill: none; stroke: #cccccc; stroke-linejoin: miter; stroke-linecap: square"/>
   </g>
   <g id="patch_4">
    <path d="M 250.274 278.724 
L 250.274 20.736 
" style="fill: none; stroke: #cccccc; stroke-linejoin: miter; stroke-linecap: square"/>
   </g>
   <g id="patch_5">
    <path d="M 110.192294 278.724 
L 250.274 278.724 
" style="fill: none; stroke: #cccccc; stroke-linejoin: miter; stroke-linecap: square"/>
   </g>
   <g id="patch_6">
    <path d="M 110.192294 20.736 
L 250.274 20.736 
" style="fill: none; stroke: #cccccc; stroke-linejoin: miter; stroke-linecap: square"/>
   </g>
   <g id="legend_1">
    <g id="patch_7">
     <path d="M 262.594 159.70725 
L 436.295 159.70725 
Q 439.815 159.70725 439.815 156.18725 
L 439.815 33.056 
Q 439.815 29.536 436.295 29.536 
L 262.594 29.536 
Q 259.074 29.536 259.074 33.056 
L 259.074 156.18725 
Q 259.074 159.70725 262.594 159.70725 
z
" style="fill: #ffffff; opacity: 0.8; stroke: #cccccc; stroke-width: 0.8; stroke-linejoin: miter"/>
    </g>
    <g id="line2d_9">
     <path d="M 266.114 43.01375 
L 283.714 43.01375 
L 301.314 43.01375 
" style="fill: none; stroke: #4c72b0; stroke-width: 2.5; stroke-linecap: round"/>
    </g>
    <g id="text_10">
     <!-- bayesopt -->
     <g style="fill: #262626" transform="translate(315.394 49.17375) scale(0.176 -0.176)">
      <defs>
       <path id="ArialMT-62" d="M 941 0 
L 419 0 
L 419 4581 
L 981 4581 
L 981 2947 
Q 1338 3394 1891 3394 
Q 2197 3394 2470 3270 
Q 2744 3147 2920 2923 
Q 3097 2700 3197 2384 
Q 3297 2069 3297 1709 
Q 3297 856 2875 390 
Q 2453 -75 1863 -75 
Q 1275 -75 941 416 
L 941 0 
z
M 934 1684 
Q 934 1088 1097 822 
Q 1363 388 1816 388 
Q 2184 388 2453 708 
Q 2722 1028 2722 1663 
Q 2722 2313 2464 2622 
Q 2206 2931 1841 2931 
Q 1472 2931 1203 2611 
Q 934 2291 934 1684 
z
" transform="scale(0.015625)"/>
       <path id="ArialMT-79" d="M 397 -1278 
L 334 -750 
Q 519 -800 656 -800 
Q 844 -800 956 -737 
Q 1069 -675 1141 -563 
Q 1194 -478 1313 -144 
Q 1328 -97 1363 -6 
L 103 3319 
L 709 3319 
L 1400 1397 
Q 1534 1031 1641 628 
Q 1738 1016 1872 1384 
L 2581 3319 
L 3144 3319 
L 1881 -56 
Q 1678 -603 1566 -809 
Q 1416 -1088 1222 -1217 
Q 1028 -1347 759 -1347 
Q 597 -1347 397 -1278 
z
" transform="scale(0.015625)"/>
       <path id="ArialMT-70" d="M 422 -1272 
L 422 3319 
L 934 3319 
L 934 2888 
Q 1116 3141 1344 3267 
Q 1572 3394 1897 3394 
Q 2322 3394 2647 3175 
Q 2972 2956 3137 2557 
Q 3303 2159 3303 1684 
Q 3303 1175 3120 767 
Q 2938 359 2589 142 
Q 2241 -75 1856 -75 
Q 1575 -75 1351 44 
Q 1128 163 984 344 
L 984 -1272 
L 422 -1272 
z
M 931 1641 
Q 931 1000 1190 694 
Q 1450 388 1819 388 
Q 2194 388 2461 705 
Q 2728 1022 2728 1688 
Q 2728 2322 2467 2637 
Q 2206 2953 1844 2953 
Q 1484 2953 1207 2617 
Q 931 2281 931 1641 
z
" transform="scale(0.015625)"/>
      </defs>
      <use xlink:href="#ArialMT-62"/>
      <use xlink:href="#ArialMT-61" x="55.615234"/>
      <use xlink:href="#ArialMT-79" x="111.230469"/>
      <use xlink:href="#ArialMT-65" x="161.230469"/>
      <use xlink:href="#ArialMT-73" x="216.845703"/>
      <use xlink:href="#ArialMT-6f" x="266.845703"/>
      <use xlink:href="#ArialMT-70" x="322.460938"/>
      <use xlink:href="#ArialMT-74" x="378.076172"/>
     </g>
    </g>
    <g id="line2d_10">
     <path d="M 266.114 68.11575 
L 283.714 68.11575 
L 301.314 68.11575 
" style="fill: none; stroke: #dd8452; stroke-width: 2.5; stroke-linecap: round"/>
    </g>
    <g id="text_11">
     <!-- hyperopt -->
     <g style="fill: #262626" transform="translate(315.394 74.27575) scale(0.176 -0.176)">
      <defs>
       <path id="ArialMT-68" d="M 422 0 
L 422 4581 
L 984 4581 
L 984 2938 
Q 1378 3394 1978 3394 
Q 2347 3394 2619 3248 
Q 2891 3103 3008 2847 
Q 3125 2591 3125 2103 
L 3125 0 
L 2563 0 
L 2563 2103 
Q 2563 2525 2380 2717 
Q 2197 2909 1863 2909 
Q 1613 2909 1392 2779 
Q 1172 2650 1078 2428 
Q 984 2206 984 1816 
L 984 0 
L 422 0 
z
" transform="scale(0.015625)"/>
      </defs>
      <use xlink:href="#ArialMT-68"/>
      <use xlink:href="#ArialMT-79" x="55.615234"/>
      <use xlink:href="#ArialMT-70" x="105.615234"/>
      <use xlink:href="#ArialMT-65" x="161.230469"/>
      <use xlink:href="#ArialMT-72" x="216.845703"/>
      <use xlink:href="#ArialMT-6f" x="250.146484"/>
      <use xlink:href="#ArialMT-70" x="305.761719"/>
      <use xlink:href="#ArialMT-74" x="361.376953"/>
     </g>
    </g>
    <g id="line2d_11">
     <path d="M 266.114 93.21775 
L 283.714 93.21775 
L 301.314 93.21775 
" style="fill: none; stroke: #55a868; stroke-width: 2.5; stroke-linecap: round"/>
    </g>
    <g id="text_12">
     <!-- random search -->
     <g style="fill: #262626" transform="translate(315.394 99.37775) scale(0.176 -0.176)">
      <defs>
       <path id="ArialMT-6e" d="M 422 0 
L 422 3319 
L 928 3319 
L 928 2847 
Q 1294 3394 1984 3394 
Q 2284 3394 2536 3286 
Q 2788 3178 2913 3003 
Q 3038 2828 3088 2588 
Q 3119 2431 3119 2041 
L 3119 0 
L 2556 0 
L 2556 2019 
Q 2556 2363 2490 2533 
Q 2425 2703 2258 2804 
Q 2091 2906 1866 2906 
Q 1506 2906 1245 2678 
Q 984 2450 984 1813 
L 984 0 
L 422 0 
z
" transform="scale(0.015625)"/>
       <path id="ArialMT-64" d="M 2575 0 
L 2575 419 
Q 2259 -75 1647 -75 
Q 1250 -75 917 144 
Q 584 363 401 755 
Q 219 1147 219 1656 
Q 219 2153 384 2558 
Q 550 2963 881 3178 
Q 1213 3394 1622 3394 
Q 1922 3394 2156 3267 
Q 2391 3141 2538 2938 
L 2538 4581 
L 3097 4581 
L 3097 0 
L 2575 0 
z
M 797 1656 
Q 797 1019 1065 703 
Q 1334 388 1700 388 
Q 2069 388 2326 689 
Q 2584 991 2584 1609 
Q 2584 2291 2321 2609 
Q 2059 2928 1675 2928 
Q 1300 2928 1048 2622 
Q 797 2316 797 1656 
z
" transform="scale(0.015625)"/>
       <path id="ArialMT-6d" d="M 422 0 
L 422 3319 
L 925 3319 
L 925 2853 
Q 1081 3097 1340 3245 
Q 1600 3394 1931 3394 
Q 2300 3394 2536 3241 
Q 2772 3088 2869 2813 
Q 3263 3394 3894 3394 
Q 4388 3394 4653 3120 
Q 4919 2847 4919 2278 
L 4919 0 
L 4359 0 
L 4359 2091 
Q 4359 2428 4304 2576 
Q 4250 2725 4106 2815 
Q 3963 2906 3769 2906 
Q 3419 2906 3187 2673 
Q 2956 2441 2956 1928 
L 2956 0 
L 2394 0 
L 2394 2156 
Q 2394 2531 2256 2718 
Q 2119 2906 1806 2906 
Q 1569 2906 1367 2781 
Q 1166 2656 1075 2415 
Q 984 2175 984 1722 
L 984 0 
L 422 0 
z
" transform="scale(0.015625)"/>
       <path id="ArialMT-20" transform="scale(0.015625)"/>
      </defs>
      <use xlink:href="#ArialMT-72"/>
      <use xlink:href="#ArialMT-61" x="33.300781"/>
      <use xlink:href="#ArialMT-6e" x="88.916016"/>
      <use xlink:href="#ArialMT-64" x="144.53125"/>
      <use xlink:href="#ArialMT-6f" x="200.146484"/>
      <use xlink:href="#ArialMT-6d" x="255.761719"/>
      <use xlink:href="#ArialMT-20" x="339.0625"/>
      <use xlink:href="#ArialMT-73" x="366.845703"/>
      <use xlink:href="#ArialMT-65" x="416.845703"/>
      <use xlink:href="#ArialMT-61" x="472.460938"/>
      <use xlink:href="#ArialMT-72" x="528.076172"/>
      <use xlink:href="#ArialMT-63" x="561.376953"/>
      <use xlink:href="#ArialMT-68" x="611.376953"/>
     </g>
    </g>
    <g id="line2d_12">
     <path d="M 266.114 118.1135 
L 283.714 118.1135 
L 301.314 118.1135 
" style="fill: none; stroke: #c44e52; stroke-width: 2.5; stroke-linecap: round"/>
    </g>
    <g id="text_13">
     <!-- zoopt -->
     <g style="fill: #262626" transform="translate(315.394 124.2735) scale(0.176 -0.176)">
      <defs>
       <path id="ArialMT-7a" d="M 125 0 
L 125 456 
L 2238 2881 
Q 1878 2863 1603 2863 
L 250 2863 
L 250 3319 
L 2963 3319 
L 2963 2947 
L 1166 841 
L 819 456 
Q 1197 484 1528 484 
L 3063 484 
L 3063 0 
L 125 0 
z
" transform="scale(0.015625)"/>
      </defs>
      <use xlink:href="#ArialMT-7a"/>
      <use xlink:href="#ArialMT-6f" x="50"/>
      <use xlink:href="#ArialMT-6f" x="105.615234"/>
      <use xlink:href="#ArialMT-70" x="161.230469"/>
      <use xlink:href="#ArialMT-74" x="216.845703"/>
     </g>
    </g>
    <g id="line2d_13">
     <path d="M 266.114 143.00925 
L 283.714 143.00925 
L 301.314 143.00925 
" style="fill: none; stroke: #8172b3; stroke-width: 2.5; stroke-linecap: round"/>
    </g>
    <g id="text_14">
     <!-- oneplusone -->
     <g style="fill: #262626" transform="translate(315.394 149.16925) scale(0.176 -0.176)">
      <defs>
       <path id="ArialMT-75" d="M 2597 0 
L 2597 488 
Q 2209 -75 1544 -75 
Q 1250 -75 995 37 
Q 741 150 617 320 
Q 494 491 444 738 
Q 409 903 409 1263 
L 409 3319 
L 972 3319 
L 972 1478 
Q 972 1038 1006 884 
Q 1059 663 1231 536 
Q 1403 409 1656 409 
Q 1909 409 2131 539 
Q 2353 669 2445 892 
Q 2538 1116 2538 1541 
L 2538 3319 
L 3100 3319 
L 3100 0 
L 2597 0 
z
" transform="scale(0.015625)"/>
      </defs>
      <use xlink:href="#ArialMT-6f"/>
      <use xlink:href="#ArialMT-6e" x="55.615234"/>
      <use xlink:href="#ArialMT-65" x="111.230469"/>
      <use xlink:href="#ArialMT-70" x="166.845703"/>
      <use xlink:href="#ArialMT-6c" x="222.460938"/>
      <use xlink:href="#ArialMT-75" x="244.677734"/>
      <use xlink:href="#ArialMT-73" x="300.292969"/>
      <use xlink:href="#ArialMT-6f" x="350.292969"/>
      <use xlink:href="#ArialMT-6e" x="405.908203"/>
      <use xlink:href="#ArialMT-65" x="461.523438"/>
     </g>
    </g>
   </g>
  </g>
 </g>
 <defs>
  <clipPath id="p593d1feac5">
   <rect x="110.192294" y="20.736" width="140.081706" height="257.988"/>
  </clipPath>
 </defs>
</svg>
