<?xml version="1.0" encoding="utf-8" standalone="no"?>
<!DOCTYPE svg PUBLIC "-//W3C//DTD SVG 1.1//EN"
  "http://www.w3.org/Graphics/SVG/1.1/DTD/svg11.dtd">
<svg xmlns:xlink="http://www.w3.org/1999/xlink" width="460.8pt" height="345.6pt" viewBox="0 0 460.8 345.6" xmlns="http://www.w3.org/2000/svg" version="1.1">
 <metadata>
  <rdf:RDF xmlns:dc="http://purl.org/dc/elements/1.1/" xmlns:cc="http://creativecommons.org/ns#" xmlns:rdf="http://www.w3.org/1999/02/22-rdf-syntax-ns#">
   <cc:Work>
    <dc:type rdf:resource="http://purl.org/dc/dcmitype/StillImage"/>
    <dc:date>2023-01-14T15:30:24.933308</dc:date>
    <dc:format>image/svg+xml</dc:format>
    <dc:creator>
     <cc:Agent>
      <dc:title>Matplotlib v3.6.2, https://matplotlib.org/</dc:title>
     </cc:Agent>
    </dc:creator>
   </cc:Work>
  </rdf:RDF>
 </metadata>
 <defs>
  <style type="text/css">*{stroke-linejoin: round; stroke-linecap: butt}</style>
 </defs>
 <g id="figure_1">
  <g id="patch_1">
   <path d="M 0 345.6 
L 460.8 345.6 
L 460.8 0 
L 0 0 
z
" style="fill: #ffffff"/>
  </g>
  <g id="axes_1">
   <g id="patch_2">
    <path d="M 85.124138 278.724 
L 250.274 278.724 
L 250.274 20.736 
L 85.124138 20.736 
z
" style="fill: #ffffff"/>
   </g>
   <g id="matplotlib.axis_1">
    <g id="xtick_1">
     <g id="line2d_1">
      <path d="M 92.63095 278.724 
L 92.63095 20.736 
" clip-path="url(#p33bc67cb59)" style="fill: none; stroke: #cccccc; stroke-width: 0.8; stroke-linecap: round"/>
     </g>
     <g id="text_1">
      <!-- 0 -->
      <g style="fill: #262626" transform="translate(87.737325 299.62175) scale(0.176 -0.176)">
       <defs>
        <path id="ArialMT-30" d="M 266 2259 
Q 266 3072 433 3567 
Q 600 4063 929 4331 
Q 1259 4600 1759 4600 
Q 2128 4600 2406 4451 
Q 2684 4303 2865 4023 
Q 3047 3744 3150 3342 
Q 3253 2941 3253 2259 
Q 3253 1453 3087 958 
Q 2922 463 2592 192 
Q 2263 -78 1759 -78 
Q 1097 -78 719 397 
Q 266 969 266 2259 
z
M 844 2259 
Q 844 1131 1108 757 
Q 1372 384 1759 384 
Q 2147 384 2411 759 
Q 2675 1134 2675 2259 
Q 2675 3391 2411 3762 
Q 2147 4134 1753 4134 
Q 1366 4134 1134 3806 
Q 844 3388 844 2259 
z
" transform="scale(0.015625)"/>
       </defs>
       <use xlink:href="#ArialMT-30"/>
      </g>
     </g>
    </g>
    <g id="xtick_2">
     <g id="line2d_2">
      <path d="M 168.076296 278.724 
L 168.076296 20.736 
" clip-path="url(#p33bc67cb59)" style="fill: none; stroke: #cccccc; stroke-width: 0.8; stroke-linecap: round"/>
     </g>
     <g id="text_2">
      <!-- 100 -->
      <g style="fill: #262626" transform="translate(153.395421 299.62175) scale(0.176 -0.176)">
       <defs>
        <path id="ArialMT-31" d="M 2384 0 
L 1822 0 
L 1822 3584 
Q 1619 3391 1289 3197 
Q 959 3003 697 2906 
L 697 3450 
Q 1169 3672 1522 3987 
Q 1875 4303 2022 4600 
L 2384 4600 
L 2384 0 
z
" transform="scale(0.015625)"/>
       </defs>
       <use xlink:href="#ArialMT-31"/>
       <use xlink:href="#ArialMT-30" x="55.615234"/>
       <use xlink:href="#ArialMT-30" x="111.230469"/>
      </g>
     </g>
    </g>
    <g id="xtick_3">
     <g id="line2d_3">
      <path d="M 243.521642 278.724 
L 243.521642 20.736 
" clip-path="url(#p33bc67cb59)" style="fill: none; stroke: #cccccc; stroke-width: 0.8; stroke-linecap: round"/>
     </g>
     <g id="text_3">
      <!-- 200 -->
      <g style="fill: #262626" transform="translate(228.840767 299.62175) scale(0.176 -0.176)">
       <defs>
        <path id="ArialMT-32" d="M 3222 541 
L 3222 0 
L 194 0 
Q 188 203 259 391 
Q 375 700 629 1000 
Q 884 1300 1366 1694 
Q 2113 2306 2375 2664 
Q 2638 3022 2638 3341 
Q 2638 3675 2398 3904 
Q 2159 4134 1775 4134 
Q 1369 4134 1125 3890 
Q 881 3647 878 3216 
L 300 3275 
Q 359 3922 746 4261 
Q 1134 4600 1788 4600 
Q 2447 4600 2831 4234 
Q 3216 3869 3216 3328 
Q 3216 3053 3103 2787 
Q 2991 2522 2730 2228 
Q 2469 1934 1863 1422 
Q 1356 997 1212 845 
Q 1069 694 975 541 
L 3222 541 
z
" transform="scale(0.015625)"/>
       </defs>
       <use xlink:href="#ArialMT-32"/>
       <use xlink:href="#ArialMT-30" x="55.615234"/>
       <use xlink:href="#ArialMT-30" x="111.230469"/>
      </g>
     </g>
    </g>
    <g id="text_4">
     <!-- trials -->
     <g style="fill: #262626" transform="translate(147.431069 320.86275) scale(0.192 -0.192)">
      <defs>
       <path id="ArialMT-74" d="M 1650 503 
L 1731 6 
Q 1494 -44 1306 -44 
Q 1000 -44 831 53 
Q 663 150 594 308 
Q 525 466 525 972 
L 525 2881 
L 113 2881 
L 113 3319 
L 525 3319 
L 525 4141 
L 1084 4478 
L 1084 3319 
L 1650 3319 
L 1650 2881 
L 1084 2881 
L 1084 941 
Q 1084 700 1114 631 
Q 1144 563 1211 522 
Q 1278 481 1403 481 
Q 1497 481 1650 503 
z
" transform="scale(0.015625)"/>
       <path id="ArialMT-72" d="M 416 0 
L 416 3319 
L 922 3319 
L 922 2816 
Q 1116 3169 1280 3281 
Q 1444 3394 1641 3394 
Q 1925 3394 2219 3213 
L 2025 2691 
Q 1819 2813 1613 2813 
Q 1428 2813 1281 2702 
Q 1134 2591 1072 2394 
Q 978 2094 978 1738 
L 978 0 
L 416 0 
z
" transform="scale(0.015625)"/>
       <path id="ArialMT-69" d="M 425 3934 
L 425 4581 
L 988 4581 
L 988 3934 
L 425 3934 
z
M 425 0 
L 425 3319 
L 988 3319 
L 988 0 
L 425 0 
z
" transform="scale(0.015625)"/>
       <path id="ArialMT-61" d="M 2588 409 
Q 2275 144 1986 34 
Q 1697 -75 1366 -75 
Q 819 -75 525 192 
Q 231 459 231 875 
Q 231 1119 342 1320 
Q 453 1522 633 1644 
Q 813 1766 1038 1828 
Q 1203 1872 1538 1913 
Q 2219 1994 2541 2106 
Q 2544 2222 2544 2253 
Q 2544 2597 2384 2738 
Q 2169 2928 1744 2928 
Q 1347 2928 1158 2789 
Q 969 2650 878 2297 
L 328 2372 
Q 403 2725 575 2942 
Q 747 3159 1072 3276 
Q 1397 3394 1825 3394 
Q 2250 3394 2515 3294 
Q 2781 3194 2906 3042 
Q 3031 2891 3081 2659 
Q 3109 2516 3109 2141 
L 3109 1391 
Q 3109 606 3145 398 
Q 3181 191 3288 0 
L 2700 0 
Q 2613 175 2588 409 
z
M 2541 1666 
Q 2234 1541 1622 1453 
Q 1275 1403 1131 1340 
Q 988 1278 909 1158 
Q 831 1038 831 891 
Q 831 666 1001 516 
Q 1172 366 1500 366 
Q 1825 366 2078 508 
Q 2331 650 2450 897 
Q 2541 1088 2541 1459 
L 2541 1666 
z
" transform="scale(0.015625)"/>
       <path id="ArialMT-6c" d="M 409 0 
L 409 4581 
L 972 4581 
L 972 0 
L 409 0 
z
" transform="scale(0.015625)"/>
       <path id="ArialMT-73" d="M 197 991 
L 753 1078 
Q 800 744 1014 566 
Q 1228 388 1613 388 
Q 2000 388 2187 545 
Q 2375 703 2375 916 
Q 2375 1106 2209 1216 
Q 2094 1291 1634 1406 
Q 1016 1563 777 1677 
Q 538 1791 414 1992 
Q 291 2194 291 2438 
Q 291 2659 392 2848 
Q 494 3038 669 3163 
Q 800 3259 1026 3326 
Q 1253 3394 1513 3394 
Q 1903 3394 2198 3281 
Q 2494 3169 2634 2976 
Q 2775 2784 2828 2463 
L 2278 2388 
Q 2241 2644 2061 2787 
Q 1881 2931 1553 2931 
Q 1166 2931 1000 2803 
Q 834 2675 834 2503 
Q 834 2394 903 2306 
Q 972 2216 1119 2156 
Q 1203 2125 1616 2013 
Q 2213 1853 2448 1751 
Q 2684 1650 2818 1456 
Q 2953 1263 2953 975 
Q 2953 694 2789 445 
Q 2625 197 2315 61 
Q 2006 -75 1616 -75 
Q 969 -75 630 194 
Q 291 463 197 991 
z
" transform="scale(0.015625)"/>
      </defs>
      <use xlink:href="#ArialMT-74"/>
      <use xlink:href="#ArialMT-72" x="27.783203"/>
      <use xlink:href="#ArialMT-69" x="61.083984"/>
      <use xlink:href="#ArialMT-61" x="83.300781"/>
      <use xlink:href="#ArialMT-6c" x="138.916016"/>
      <use xlink:href="#ArialMT-73" x="161.132812"/>
     </g>
    </g>
   </g>
   <g id="matplotlib.axis_2">
    <g id="ytick_1">
     <g id="line2d_4">
      <path d="M 85.124138 226.809998 
L 250.274 226.809998 
" clip-path="url(#p33bc67cb59)" style="fill: none; stroke: #cccccc; stroke-width: 0.8; stroke-linecap: round"/>
     </g>
     <g id="text_5">
      <!-- $\mathdefault{10^{-3}}$ -->
      <g style="fill: #262626" transform="translate(41.976138 235.884998) scale(0.176 -0.176)">
       <defs>
        <path id="ArialMT-2212" d="M 3381 1997 
L 356 1997 
L 356 2522 
L 3381 2522 
L 3381 1997 
z
" transform="scale(0.015625)"/>
        <path id="ArialMT-33" d="M 269 1209 
L 831 1284 
Q 928 806 1161 595 
Q 1394 384 1728 384 
Q 2125 384 2398 659 
Q 2672 934 2672 1341 
Q 2672 1728 2419 1979 
Q 2166 2231 1775 2231 
Q 1616 2231 1378 2169 
L 1441 2663 
Q 1497 2656 1531 2656 
Q 1891 2656 2178 2843 
Q 2466 3031 2466 3422 
Q 2466 3731 2256 3934 
Q 2047 4138 1716 4138 
Q 1388 4138 1169 3931 
Q 950 3725 888 3313 
L 325 3413 
Q 428 3978 793 4289 
Q 1159 4600 1703 4600 
Q 2078 4600 2393 4439 
Q 2709 4278 2876 4000 
Q 3044 3722 3044 3409 
Q 3044 3113 2884 2869 
Q 2725 2625 2413 2481 
Q 2819 2388 3044 2092 
Q 3269 1797 3269 1353 
Q 3269 753 2831 336 
Q 2394 -81 1725 -81 
Q 1122 -81 723 278 
Q 325 638 269 1209 
z
" transform="scale(0.015625)"/>
       </defs>
       <use xlink:href="#ArialMT-31" transform="translate(0 0.99375)"/>
       <use xlink:href="#ArialMT-30" transform="translate(55.615234 0.99375)"/>
       <use xlink:href="#ArialMT-2212" transform="translate(112.972813 70.6875) scale(0.7)"/>
       <use xlink:href="#ArialMT-33" transform="translate(153.851719 70.6875) scale(0.7)"/>
      </g>
     </g>
    </g>
    <g id="ytick_2">
     <g id="line2d_5">
      <path d="M 85.124138 134.693331 
L 250.274 134.693331 
" clip-path="url(#p33bc67cb59)" style="fill: none; stroke: #cccccc; stroke-width: 0.8; stroke-linecap: round"/>
     </g>
     <g id="text_6">
      <!-- $\mathdefault{10^{-2}}$ -->
      <g style="fill: #262626" transform="translate(41.976138 143.768331) scale(0.176 -0.176)">
       <use xlink:href="#ArialMT-31" transform="translate(0 0.99375)"/>
       <use xlink:href="#ArialMT-30" transform="translate(55.615234 0.99375)"/>
       <use xlink:href="#ArialMT-2212" transform="translate(112.972813 70.6875) scale(0.7)"/>
       <use xlink:href="#ArialMT-32" transform="translate(153.851719 70.6875) scale(0.7)"/>
      </g>
     </g>
    </g>
    <g id="ytick_3">
     <g id="line2d_6">
      <path d="M 85.124138 42.576665 
L 250.274 42.576665 
" clip-path="url(#p33bc67cb59)" style="fill: none; stroke: #cccccc; stroke-width: 0.8; stroke-linecap: round"/>
     </g>
     <g id="text_7">
      <!-- $\mathdefault{10^{-1}}$ -->
      <g style="fill: #262626" transform="translate(41.976138 51.651665) scale(0.176 -0.176)">
       <use xlink:href="#ArialMT-31" transform="translate(0 0.99375)"/>
       <use xlink:href="#ArialMT-30" transform="translate(55.615234 0.99375)"/>
       <use xlink:href="#ArialMT-2212" transform="translate(112.972813 70.6875) scale(0.7)"/>
       <use xlink:href="#ArialMT-31" transform="translate(153.851719 70.6875) scale(0.7)"/>
      </g>
     </g>
    </g>
    <g id="ytick_4"/>
    <g id="ytick_5"/>
    <g id="ytick_6"/>
    <g id="ytick_7"/>
    <g id="ytick_8"/>
    <g id="ytick_9"/>
    <g id="ytick_10"/>
    <g id="ytick_11"/>
    <g id="ytick_12"/>
    <g id="ytick_13"/>
    <g id="ytick_14"/>
    <g id="ytick_15"/>
    <g id="ytick_16"/>
    <g id="ytick_17"/>
    <g id="ytick_18"/>
    <g id="ytick_19"/>
    <g id="ytick_20"/>
    <g id="ytick_21"/>
    <g id="ytick_22"/>
    <g id="ytick_23"/>
    <g id="ytick_24"/>
    <g id="ytick_25"/>
    <g id="ytick_26"/>
    <g id="text_8">
     <!-- scores -->
     <g style="fill: #262626" transform="translate(34.160138 178.0035) rotate(-90) scale(0.192 -0.192)">
      <defs>
       <path id="ArialMT-63" d="M 2588 1216 
L 3141 1144 
Q 3050 572 2676 248 
Q 2303 -75 1759 -75 
Q 1078 -75 664 370 
Q 250 816 250 1647 
Q 250 2184 428 2587 
Q 606 2991 970 3192 
Q 1334 3394 1763 3394 
Q 2303 3394 2647 3120 
Q 2991 2847 3088 2344 
L 2541 2259 
Q 2463 2594 2264 2762 
Q 2066 2931 1784 2931 
Q 1359 2931 1093 2626 
Q 828 2322 828 1663 
Q 828 994 1084 691 
Q 1341 388 1753 388 
Q 2084 388 2306 591 
Q 2528 794 2588 1216 
z
" transform="scale(0.015625)"/>
       <path id="ArialMT-6f" d="M 213 1659 
Q 213 2581 725 3025 
Q 1153 3394 1769 3394 
Q 2453 3394 2887 2945 
Q 3322 2497 3322 1706 
Q 3322 1066 3130 698 
Q 2938 331 2570 128 
Q 2203 -75 1769 -75 
Q 1072 -75 642 372 
Q 213 819 213 1659 
z
M 791 1659 
Q 791 1022 1069 705 
Q 1347 388 1769 388 
Q 2188 388 2466 706 
Q 2744 1025 2744 1678 
Q 2744 2294 2464 2611 
Q 2184 2928 1769 2928 
Q 1347 2928 1069 2612 
Q 791 2297 791 1659 
z
" transform="scale(0.015625)"/>
       <path id="ArialMT-65" d="M 2694 1069 
L 3275 997 
Q 3138 488 2766 206 
Q 2394 -75 1816 -75 
Q 1088 -75 661 373 
Q 234 822 234 1631 
Q 234 2469 665 2931 
Q 1097 3394 1784 3394 
Q 2450 3394 2872 2941 
Q 3294 2488 3294 1666 
Q 3294 1616 3291 1516 
L 816 1516 
Q 847 969 1125 678 
Q 1403 388 1819 388 
Q 2128 388 2347 550 
Q 2566 713 2694 1069 
z
M 847 1978 
L 2700 1978 
Q 2663 2397 2488 2606 
Q 2219 2931 1791 2931 
Q 1403 2931 1139 2672 
Q 875 2413 847 1978 
z
" transform="scale(0.015625)"/>
      </defs>
      <use xlink:href="#ArialMT-73"/>
      <use xlink:href="#ArialMT-63" x="50"/>
      <use xlink:href="#ArialMT-6f" x="100"/>
      <use xlink:href="#ArialMT-72" x="155.615234"/>
      <use xlink:href="#ArialMT-65" x="188.916016"/>
      <use xlink:href="#ArialMT-73" x="244.53125"/>
     </g>
    </g>
   </g>
   <g id="PolyCollection_1">
    <defs>
     <path id="m388a0f44c5" d="M 92.63095 -313.137273 
L 92.63095 -250.726548 
L 93.385404 -217.421795 
L 94.139857 -163.069399 
L 94.89431 -163.069399 
L 95.648764 -162.326103 
L 96.403217 -162.326103 
L 97.157671 -162.326103 
L 97.912124 -161.460108 
L 98.666578 -157.87709 
L 99.421031 -161.460108 
L 100.175485 -165.415884 
L 100.929938 -161.460108 
L 101.684392 -161.460108 
L 102.438845 -161.460108 
L 103.193299 -161.374335 
L 103.947752 -161.460108 
L 104.702205 -161.460108 
L 105.456659 -157.87709 
L 106.211112 -161.460108 
L 106.965566 -161.460108 
L 107.720019 -162.156742 
L 108.474473 -156.347063 
L 109.228926 -161.460108 
L 109.98338 -164.685648 
L 110.737833 -161.460108 
L 111.492287 -157.87709 
L 112.24674 -137.702378 
L 113.001193 -140.264004 
L 113.755647 -143.003884 
L 114.5101 -118.395488 
L 115.264554 -119.064481 
L 116.019007 -120.419557 
L 116.773461 -119.047891 
L 117.527914 -120.453706 
L 118.282368 -111.667829 
L 119.036821 -111.221417 
L 119.791275 -108.46141 
L 120.545728 -108.46141 
L 121.300181 -108.46141 
L 122.054635 -111.289742 
L 122.809088 -111.289742 
L 123.563542 -108.46141 
L 124.317995 -108.46141 
L 125.072449 -108.46141 
L 125.826902 -108.46141 
L 126.581356 -108.46141 
L 127.335809 -108.46141 
L 128.090263 -108.46141 
L 128.844716 -108.46141 
L 129.59917 -108.46141 
L 130.353623 -108.46141 
L 131.108076 -108.46141 
L 131.86253 -108.46141 
L 132.616983 -111.677476 
L 133.371437 -108.46141 
L 134.12589 -108.46141 
L 134.880344 -108.46141 
L 135.634797 -105.417804 
L 136.389251 -108.46141 
L 137.143704 -111.289742 
L 137.898158 -111.289742 
L 138.652611 -108.46141 
L 139.407064 -108.46141 
L 140.161518 -108.46141 
L 140.915971 -108.46141 
L 141.670425 -105.417804 
L 142.424878 -108.46141 
L 143.179332 -108.46141 
L 143.933785 -93.666587 
L 144.688239 -93.984775 
L 145.442692 -93.337589 
L 146.197146 -93.666587 
L 146.951599 -93.337589 
L 147.706052 -93.666587 
L 148.460506 -93.992901 
L 149.214959 -93.666587 
L 149.969413 -93.666587 
L 150.723866 -93.337589 
L 151.47832 -93.337589 
L 152.232773 -93.337589 
L 152.987227 -93.666587 
L 153.74168 -93.337589 
L 154.496134 -93.666587 
L 155.250587 -93.666587 
L 156.005041 -93.337589 
L 156.759494 -93.337589 
L 157.513947 -93.337589 
L 158.268401 -93.337589 
L 159.022854 -93.337589 
L 159.777308 -93.666587 
L 160.531761 -93.337589 
L 161.286215 -93.666587 
L 162.040668 -93.337589 
L 162.795122 -93.337589 
L 163.549575 -93.337589 
L 164.304029 -93.666587 
L 165.058482 -93.337589 
L 165.812935 -93.337589 
L 166.567389 -93.337589 
L 167.321842 -93.337589 
L 168.076296 -93.337589 
L 168.830749 -93.337589 
L 169.585203 -93.337589 
L 170.339656 -93.337589 
L 171.09411 -93.337589 
L 171.848563 -93.337589 
L 172.603017 -93.337589 
L 173.35747 -93.337589 
L 174.111923 -93.337589 
L 174.866377 -93.658395 
L 175.62083 -93.658395 
L 176.375284 -93.337589 
L 177.129737 -93.658395 
L 177.884191 -93.992901 
L 178.638644 -93.337589 
L 179.393098 -93.984775 
L 180.147551 -93.337589 
L 180.902005 -93.666587 
L 181.656458 -93.337589 
L 182.410912 -93.337589 
L 183.165365 -93.337589 
L 183.919818 -93.337589 
L 184.674272 -93.666587 
L 185.428725 -93.658395 
L 186.183179 -93.337589 
L 186.937632 -93.666587 
L 187.692086 -93.337589 
L 188.446539 -93.992901 
L 189.200993 -97.101619 
L 189.955446 -93.337589 
L 190.7099 -93.337589 
L 191.464353 -93.337589 
L 192.218806 -93.337589 
L 192.97326 -93.337589 
L 193.727713 -93.337589 
L 194.482167 -93.337589 
L 195.23662 -93.337589 
L 195.991074 -93.337589 
L 196.745527 -93.337589 
L 197.499981 -93.337589 
L 198.254434 -93.666587 
L 199.008888 -93.337589 
L 199.763341 -93.005863 
L 200.517794 -93.666587 
L 201.272248 -93.666587 
L 202.026701 -93.329329 
L 202.781155 -93.337589 
L 203.535608 -93.666587 
L 204.290062 -93.337589 
L 205.044515 -93.005863 
L 205.798969 -93.337589 
L 206.553422 -93.337589 
L 207.307876 -93.658395 
L 208.062329 -93.337589 
L 208.816783 -93.005863 
L 209.571236 -93.337589 
L 210.325689 -93.337589 
L 211.080143 -93.666587 
L 211.834596 -93.337589 
L 212.58905 -93.337589 
L 213.343503 -93.337589 
L 214.097957 -93.337589 
L 214.85241 -93.337589 
L 215.606864 -93.337589 
L 216.361317 -93.337589 
L 217.115771 -93.337589 
L 217.870224 -93.337589 
L 218.624677 -93.337589 
L 219.379131 -93.337589 
L 220.133584 -93.337589 
L 220.888038 -93.337589 
L 221.642491 -93.337589 
L 222.396945 -93.337589 
L 223.151398 -93.337589 
L 223.905852 -93.337589 
L 224.660305 -93.337589 
L 225.414759 -93.337589 
L 226.169212 -93.337589 
L 226.923665 -93.337589 
L 227.678119 -93.337589 
L 228.432572 -93.337589 
L 229.187026 -93.337589 
L 229.941479 -93.337589 
L 230.695933 -93.666587 
L 231.450386 -93.666587 
L 232.20484 -93.337589 
L 232.959293 -93.329329 
L 233.713747 -93.337589 
L 234.4682 -93.658395 
L 235.222654 -93.337589 
L 235.977107 -93.337589 
L 236.73156 -93.666587 
L 237.486014 -93.337589 
L 238.240467 -93.337589 
L 238.994921 -93.337589 
L 239.749374 -93.337589 
L 240.503828 -93.337589 
L 241.258281 -93.337589 
L 242.012735 -93.337589 
L 242.767188 -93.666587 
L 242.767188 -138.918254 
L 242.767188 -138.918254 
L 242.012735 -138.918254 
L 241.258281 -138.206333 
L 240.503828 -139.023837 
L 239.749374 -137.844118 
L 238.994921 -138.187911 
L 238.240467 -138.918254 
L 237.486014 -138.918254 
L 236.73156 -138.187911 
L 235.977107 -138.918254 
L 235.222654 -138.918254 
L 234.4682 -139.023837 
L 233.713747 -138.918254 
L 232.959293 -138.918254 
L 232.20484 -139.023837 
L 231.450386 -138.918254 
L 230.695933 -138.918254 
L 229.941479 -138.920897 
L 229.187026 -138.920897 
L 228.432572 -138.187911 
L 227.678119 -137.852749 
L 226.923665 -138.918254 
L 226.169212 -138.920897 
L 225.414759 -137.852749 
L 224.660305 -139.023837 
L 223.905852 -138.187911 
L 223.151398 -138.918254 
L 222.396945 -138.918254 
L 221.642491 -138.920897 
L 220.888038 -137.852749 
L 220.133584 -139.023837 
L 219.379131 -138.206333 
L 218.624677 -139.023837 
L 217.870224 -138.918254 
L 217.115771 -138.918254 
L 216.361317 -140.366251 
L 215.606864 -138.918254 
L 214.85241 -139.023837 
L 214.097957 -136.769028 
L 213.343503 -139.023837 
L 212.58905 -138.918254 
L 211.834596 -138.187911 
L 211.080143 -138.918254 
L 210.325689 -139.023837 
L 209.571236 -138.187911 
L 208.816783 -138.918254 
L 208.062329 -139.023837 
L 207.307876 -139.023837 
L 206.553422 -139.023837 
L 205.798969 -137.844118 
L 205.044515 -139.023837 
L 204.290062 -138.187911 
L 203.535608 -137.852749 
L 202.781155 -138.206333 
L 202.026701 -136.769028 
L 201.272248 -138.918254 
L 200.517794 -138.918254 
L 199.763341 -138.918254 
L 199.008888 -138.918254 
L 198.254434 -139.023837 
L 197.499981 -138.206333 
L 196.745527 -138.918254 
L 195.991074 -139.023837 
L 195.23662 -138.918254 
L 194.482167 -136.657315 
L 193.727713 -138.187911 
L 192.97326 -139.023837 
L 192.218806 -139.023837 
L 191.464353 -138.206333 
L 190.7099 -137.852749 
L 189.955446 -138.918254 
L 189.200993 -138.918254 
L 188.446539 -136.79626 
L 187.692086 -138.918254 
L 186.937632 -139.023837 
L 186.183179 -138.918254 
L 185.428725 -138.187911 
L 184.674272 -138.918254 
L 183.919818 -139.023837 
L 183.165365 -138.918254 
L 182.410912 -138.918254 
L 181.656458 -152.337595 
L 180.902005 -152.337595 
L 180.147551 -153.806499 
L 179.393098 -153.806499 
L 178.638644 -153.806499 
L 177.884191 -153.879302 
L 177.129737 -153.304542 
L 176.375284 -153.808321 
L 175.62083 -153.806499 
L 174.866377 -153.879302 
L 174.111923 -153.808321 
L 173.35747 -153.879302 
L 172.603017 -153.806499 
L 171.848563 -153.806499 
L 171.09411 -153.317168 
L 170.339656 -153.806499 
L 169.585203 -153.806499 
L 168.830749 -153.304542 
L 168.076296 -153.806499 
L 167.321842 -153.806499 
L 166.567389 -153.806499 
L 165.812935 -153.317168 
L 165.058482 -152.26193 
L 164.304029 -153.879302 
L 163.549575 -153.304542 
L 162.795122 -152.374983 
L 162.040668 -153.806499 
L 161.286215 -153.806499 
L 160.531761 -152.337595 
L 159.777308 -153.879302 
L 159.022854 -153.806499 
L 158.268401 -153.879302 
L 157.513947 -153.879302 
L 156.759494 -152.337595 
L 156.005041 -153.902838 
L 155.250587 -153.806499 
L 154.496134 -153.317168 
L 153.74168 -153.806499 
L 152.987227 -153.879302 
L 152.232773 -153.806499 
L 151.47832 -153.879302 
L 150.723866 -152.337595 
L 149.969413 -153.806499 
L 149.214959 -153.879302 
L 148.460506 -153.806499 
L 147.706052 -157.670888 
L 146.951599 -157.649468 
L 146.197146 -155.309793 
L 145.442692 -155.358659 
L 144.688239 -157.649468 
L 143.933785 -157.649468 
L 143.179332 -157.649468 
L 142.424878 -158.497449 
L 141.670425 -158.497449 
L 140.915971 -158.497449 
L 140.161518 -160.256057 
L 139.407064 -160.256057 
L 138.652611 -157.649468 
L 137.898158 -158.497449 
L 137.143704 -157.670888 
L 136.389251 -160.256057 
L 135.634797 -158.497449 
L 134.880344 -160.389329 
L 134.12589 -188.36408 
L 133.371437 -186.578733 
L 132.616983 -188.36408 
L 131.86253 -187.974422 
L 131.108076 -184.891803 
L 130.353623 -191.061052 
L 129.59917 -191.061052 
L 128.844716 -191.431116 
L 128.090263 -191.061052 
L 127.335809 -191.061052 
L 126.581356 -191.061052 
L 125.826902 -189.050821 
L 125.072449 -188.741311 
L 124.317995 -191.450843 
L 123.563542 -191.070345 
L 122.809088 -191.431116 
L 122.054635 -191.061052 
L 121.300181 -191.061052 
L 120.545728 -191.061052 
L 119.791275 -191.061052 
L 119.036821 -191.431116 
L 118.282368 -189.102328 
L 117.527914 -191.431116 
L 116.773461 -188.741311 
L 116.019007 -191.439623 
L 115.264554 -191.769968 
L 114.5101 -191.769968 
L 113.755647 -194.378268 
L 113.001193 -193.638245 
L 112.24674 -194.378268 
L 111.492287 -222.630391 
L 110.737833 -222.652763 
L 109.98338 -222.630391 
L 109.228926 -222.630391 
L 108.474473 -223.515674 
L 107.720019 -222.630391 
L 106.965566 -221.732374 
L 106.211112 -222.652763 
L 105.456659 -221.732374 
L 104.702205 -223.515674 
L 103.947752 -222.630391 
L 103.193299 -234.724379 
L 102.438845 -233.947976 
L 101.684392 -234.724379 
L 100.929938 -234.624436 
L 100.175485 -235.924341 
L 99.421031 -234.624436 
L 98.666578 -234.724379 
L 97.912124 -234.624436 
L 97.157671 -234.624436 
L 96.403217 -235.312854 
L 95.648764 -235.312854 
L 94.89431 -236.590931 
L 94.139857 -235.345308 
L 93.385404 -273.996047 
L 92.63095 -313.137273 
z
" style="stroke: #4c72b0; stroke-opacity: 0.2; stroke-width: 0.8"/>
    </defs>
    <g clip-path="url(#p33bc67cb59)">
     <use xlink:href="#m388a0f44c5" x="0" y="345.6" style="fill: #4c72b0; fill-opacity: 0.2; stroke: #4c72b0; stroke-opacity: 0.2; stroke-width: 0.8"/>
    </g>
   </g>
   <g id="PolyCollection_2">
    <defs>
     <path id="m7f87db4987" d="M 92.63095 -280.438756 
L 92.63095 -244.972731 
L 93.385404 -241.619377 
L 94.139857 -226.756491 
L 94.89431 -222.580431 
L 95.648764 -209.423369 
L 96.403217 -209.184633 
L 97.157671 -204.44135 
L 97.912124 -203.659831 
L 98.666578 -204.06456 
L 99.421031 -203.717359 
L 100.175485 -203.659831 
L 100.929938 -203.715921 
L 101.684392 -203.659831 
L 102.438845 -204.149346 
L 103.193299 -204.055917 
L 103.947752 -204.149346 
L 104.702205 -204.149346 
L 105.456659 -204.149346 
L 106.211112 -201.805069 
L 106.965566 -202.270344 
L 107.720019 -201.930284 
L 108.474473 -201.930284 
L 109.228926 -201.930284 
L 109.98338 -201.930284 
L 110.737833 -202.261878 
L 111.492287 -201.930284 
L 112.24674 -201.930284 
L 113.001193 -201.930284 
L 113.755647 -201.840657 
L 114.5101 -201.930284 
L 115.264554 -196.431587 
L 116.019007 -195.846924 
L 116.773461 -196.665906 
L 117.527914 -193.443921 
L 118.282368 -193.002895 
L 119.036821 -193.443921 
L 119.791275 -193.443921 
L 120.545728 -193.443921 
L 121.300181 -193.443921 
L 122.054635 -193.002895 
L 122.809088 -193.432955 
L 123.563542 -193.002895 
L 124.317995 -193.002895 
L 125.072449 -193.002895 
L 125.826902 -193.002895 
L 126.581356 -193.002895 
L 127.335809 -193.432955 
L 128.090263 -193.002895 
L 128.844716 -185.043946 
L 129.59917 -182.829685 
L 130.353623 -183.145188 
L 131.108076 -169.204586 
L 131.86253 -150.433914 
L 132.616983 -150.433914 
L 133.371437 -150.433914 
L 134.12589 -150.433914 
L 134.880344 -150.433914 
L 135.634797 -150.433914 
L 136.389251 -150.433914 
L 137.143704 -150.925636 
L 137.898158 -150.433914 
L 138.652611 -146.421017 
L 139.407064 -148.154568 
L 140.161518 -148.154568 
L 140.915971 -149.81611 
L 141.670425 -149.775402 
L 142.424878 -148.154568 
L 143.179332 -148.154568 
L 143.933785 -148.154568 
L 144.688239 -149.81611 
L 145.442692 -148.154568 
L 146.197146 -147.517134 
L 146.951599 -147.517134 
L 147.706052 -149.204807 
L 148.460506 -145.755118 
L 149.214959 -149.204807 
L 149.969413 -149.204807 
L 150.723866 -147.517134 
L 151.47832 -149.204807 
L 152.232773 -149.204807 
L 152.987227 -147.517134 
L 153.74168 -147.517134 
L 154.496134 -145.755118 
L 155.250587 -136.834192 
L 156.005041 -137.007588 
L 156.759494 -136.829847 
L 157.513947 -136.834192 
L 158.268401 -137.003262 
L 159.022854 -136.834192 
L 159.777308 -136.834192 
L 160.531761 -136.834192 
L 161.286215 -137.007588 
L 162.040668 -136.834192 
L 162.795122 -136.834192 
L 163.549575 -137.003262 
L 164.304029 -136.834192 
L 165.058482 -137.175929 
L 165.812935 -136.834192 
L 166.567389 -136.834192 
L 167.321842 -137.007588 
L 168.076296 -136.834192 
L 168.830749 -132.71622 
L 169.585203 -132.759383 
L 170.339656 -132.90837 
L 171.09411 -132.90837 
L 171.848563 -132.759383 
L 172.603017 -132.90837 
L 173.35747 -133.553621 
L 174.111923 -132.90837 
L 174.866377 -132.90837 
L 175.62083 -133.553621 
L 176.375284 -133.553621 
L 177.129737 -133.553621 
L 177.884191 -132.90837 
L 178.638644 -133.553621 
L 179.393098 -132.90837 
L 180.147551 -132.758304 
L 180.902005 -133.737107 
L 181.656458 -133.553621 
L 182.410912 -133.553621 
L 183.165365 -132.90837 
L 183.919818 -133.553621 
L 184.674272 -132.90837 
L 185.428725 -132.904652 
L 186.183179 -132.90837 
L 186.937632 -132.90837 
L 187.692086 -133.553621 
L 188.446539 -132.90837 
L 189.200993 -133.553621 
L 189.955446 -111.994738 
L 190.7099 -107.714614 
L 191.464353 -112.745464 
L 192.218806 -108.477535 
L 192.97326 -107.353156 
L 193.727713 -107.353156 
L 194.482167 -108.477535 
L 195.23662 -111.994738 
L 195.991074 -107.274858 
L 196.745527 -108.477535 
L 197.499981 -108.477535 
L 198.254434 -107.353156 
L 199.008888 -107.353156 
L 199.763341 -107.353156 
L 200.517794 -108.449807 
L 201.272248 -107.353156 
L 202.026701 -111.994738 
L 202.781155 -107.353156 
L 203.535608 -102.838553 
L 204.290062 -101.49046 
L 205.044515 -99.460215 
L 205.798969 -102.806626 
L 206.553422 -103.390316 
L 207.307876 -98.046489 
L 208.062329 -102.806626 
L 208.816783 -101.49046 
L 209.571236 -102.838553 
L 210.325689 -101.541187 
L 211.080143 -104.078039 
L 211.834596 -102.838553 
L 212.58905 -94.017336 
L 213.343503 -98.325818 
L 214.097957 -94.017336 
L 214.85241 -94.017336 
L 215.606864 -95.368212 
L 216.361317 -94.017336 
L 217.115771 -95.402257 
L 217.870224 -93.97753 
L 218.624677 -94.017336 
L 219.379131 -96.215218 
L 220.133584 -92.915226 
L 220.888038 -96.215218 
L 221.642491 -92.956103 
L 222.396945 -92.956103 
L 223.151398 -96.215218 
L 223.905852 -92.956103 
L 224.660305 -92.956103 
L 225.414759 -91.287524 
L 226.169212 -96.215218 
L 226.923665 -92.956103 
L 227.678119 -96.215218 
L 228.432572 -90.923714 
L 229.187026 -90.923714 
L 229.941479 -90.923714 
L 230.695933 -90.923714 
L 231.450386 -90.636165 
L 232.20484 -91.202099 
L 232.959293 -82.967197 
L 233.713747 -82.933481 
L 234.4682 -82.967197 
L 235.222654 -82.967197 
L 235.977107 -82.967197 
L 236.73156 -82.967197 
L 237.486014 -82.967197 
L 238.240467 -82.967197 
L 238.994921 -82.967197 
L 239.749374 -82.967197 
L 240.503828 -78.602727 
L 241.258281 -82.967197 
L 242.012735 -82.967197 
L 242.767188 -83.953418 
L 242.767188 -128.383831 
L 242.767188 -128.383831 
L 242.012735 -130.29959 
L 241.258281 -128.383831 
L 240.503828 -129.884518 
L 239.749374 -128.383831 
L 238.994921 -128.27416 
L 238.240467 -128.383831 
L 237.486014 -128.271344 
L 236.73156 -128.383831 
L 235.977107 -128.271344 
L 235.222654 -130.29959 
L 234.4682 -129.884518 
L 233.713747 -128.271344 
L 232.959293 -128.383831 
L 232.20484 -132.380592 
L 231.450386 -132.63181 
L 230.695933 -132.925506 
L 229.941479 -132.639178 
L 229.187026 -132.380592 
L 228.432572 -132.639178 
L 227.678119 -135.175926 
L 226.923665 -134.416346 
L 226.169212 -134.99193 
L 225.414759 -134.416346 
L 224.660305 -134.416346 
L 223.905852 -133.832358 
L 223.151398 -134.416346 
L 222.396945 -134.416346 
L 221.642491 -134.416346 
L 220.888038 -133.832358 
L 220.133584 -134.416346 
L 219.379131 -133.832358 
L 218.624677 -135.155193 
L 217.870224 -133.832358 
L 217.115771 -134.416346 
L 216.361317 -134.416346 
L 215.606864 -133.832358 
L 214.85241 -133.847062 
L 214.097957 -134.416346 
L 213.343503 -134.430837 
L 212.58905 -134.416346 
L 211.834596 -134.416346 
L 211.080143 -135.109499 
L 210.325689 -135.109499 
L 209.571236 -135.109499 
L 208.816783 -135.131398 
L 208.062329 -134.99193 
L 207.307876 -135.109499 
L 206.553422 -135.109499 
L 205.798969 -134.535615 
L 205.044515 -135.109499 
L 204.290062 -135.109499 
L 203.535608 -134.535615 
L 202.781155 -155.585319 
L 202.026701 -155.60874 
L 201.272248 -155.250932 
L 200.517794 -155.250932 
L 199.763341 -155.250932 
L 199.008888 -155.585319 
L 198.254434 -155.242321 
L 197.499981 -154.896356 
L 196.745527 -155.242321 
L 195.991074 -155.585319 
L 195.23662 -156.511615 
L 194.482167 -155.250932 
L 193.727713 -156.843946 
L 192.97326 -156.511615 
L 192.218806 -155.242321 
L 191.464353 -156.617733 
L 190.7099 -154.937543 
L 189.955446 -156.511615 
L 189.200993 -157.283605 
L 188.446539 -157.17924 
L 187.692086 -158.064179 
L 186.937632 -157.181853 
L 186.183179 -157.17924 
L 185.428725 -157.181853 
L 184.674272 -156.823045 
L 183.919818 -157.283605 
L 183.165365 -157.17924 
L 182.410912 -158.064179 
L 181.656458 -157.283605 
L 180.902005 -157.283605 
L 180.147551 -157.17924 
L 179.393098 -157.283605 
L 178.638644 -156.823045 
L 177.884191 -157.17924 
L 177.129737 -157.283605 
L 176.375284 -157.181853 
L 175.62083 -157.283605 
L 174.866377 -157.283605 
L 174.111923 -157.17924 
L 173.35747 -175.087429 
L 172.603017 -174.792911 
L 171.848563 -175.087429 
L 171.09411 -175.154163 
L 170.339656 -174.865836 
L 169.585203 -175.089099 
L 168.830749 -175.154163 
L 168.076296 -185.449539 
L 167.321842 -185.397956 
L 166.567389 -185.449539 
L 165.812935 -184.723568 
L 165.058482 -185.399247 
L 164.304029 -184.723568 
L 163.549575 -184.723568 
L 162.795122 -205.070965 
L 162.040668 -201.696652 
L 161.286215 -201.696652 
L 160.531761 -207.351854 
L 159.777308 -207.736303 
L 159.022854 -207.36151 
L 158.268401 -207.737041 
L 157.513947 -207.736303 
L 156.759494 -207.351854 
L 156.005041 -207.351854 
L 155.250587 -207.736303 
L 154.496134 -207.351854 
L 153.74168 -208.481308 
L 152.987227 -207.736303 
L 152.232773 -207.736303 
L 151.47832 -207.351854 
L 150.723866 -207.736303 
L 149.969413 -207.351854 
L 149.214959 -207.736303 
L 148.460506 -207.351854 
L 147.706052 -207.736303 
L 146.951599 -207.36151 
L 146.197146 -206.379425 
L 145.442692 -207.351854 
L 144.688239 -207.351854 
L 143.933785 -207.736303 
L 143.179332 -207.736303 
L 142.424878 -213.320317 
L 141.670425 -213.328635 
L 140.915971 -213.651704 
L 140.161518 -213.651704 
L 139.407064 -213.320317 
L 138.652611 -213.320317 
L 137.898158 -213.549688 
L 137.143704 -213.549688 
L 136.389251 -213.651704 
L 135.634797 -213.549688 
L 134.880344 -214.536499 
L 134.12589 -213.552242 
L 133.371437 -213.549688 
L 132.616983 -213.549688 
L 131.86253 -212.613235 
L 131.108076 -216.545395 
L 130.353623 -216.40067 
L 129.59917 -216.40067 
L 128.844716 -216.859956 
L 128.090263 -219.502993 
L 127.335809 -219.508709 
L 126.581356 -219.042291 
L 125.826902 -219.730998 
L 125.072449 -219.053874 
L 124.317995 -219.042291 
L 123.563542 -219.053874 
L 122.809088 -219.042291 
L 122.054635 -219.042291 
L 121.300181 -219.042291 
L 120.545728 -219.508709 
L 119.791275 -219.042291 
L 119.036821 -219.042291 
L 118.282368 -219.042291 
L 117.527914 -217.959527 
L 116.773461 -220.298939 
L 116.019007 -220.298939 
L 115.264554 -220.734371 
L 114.5101 -221.072736 
L 113.755647 -222.135598 
L 113.001193 -221.214306 
L 112.24674 -220.94724 
L 111.492287 -220.94724 
L 110.737833 -221.237599 
L 109.98338 -222.1421 
L 109.228926 -221.076281 
L 108.474473 -221.072736 
L 107.720019 -221.237599 
L 106.965566 -222.135598 
L 106.211112 -221.072736 
L 105.456659 -224.230753 
L 104.702205 -223.188678 
L 103.947752 -223.205532 
L 103.193299 -223.205532 
L 102.438845 -223.205532 
L 101.684392 -223.205532 
L 100.929938 -223.223564 
L 100.175485 -223.223564 
L 99.421031 -223.205532 
L 98.666578 -223.387133 
L 97.912124 -223.387133 
L 97.157671 -223.387133 
L 96.403217 -229.333851 
L 95.648764 -229.333851 
L 94.89431 -269.358781 
L 94.139857 -269.30219 
L 93.385404 -277.323954 
L 92.63095 -280.438756 
z
" style="stroke: #dd8452; stroke-opacity: 0.2; stroke-width: 0.8"/>
    </defs>
    <g clip-path="url(#p33bc67cb59)">
     <use xlink:href="#m7f87db4987" x="0" y="345.6" style="fill: #dd8452; fill-opacity: 0.2; stroke: #dd8452; stroke-opacity: 0.2; stroke-width: 0.8"/>
    </g>
   </g>
   <g id="PolyCollection_3">
    <defs>
     <path id="m5e8e0401b8" d="M 92.63095 -287.4885 
L 92.63095 -234.315583 
L 93.385404 -210.506311 
L 94.139857 -199.044721 
L 94.89431 -194.974457 
L 95.648764 -193.933368 
L 96.403217 -193.933368 
L 97.157671 -193.933368 
L 97.912124 -189.848237 
L 98.666578 -189.269198 
L 99.421031 -189.269198 
L 100.175485 -185.807709 
L 100.929938 -189.833863 
L 101.684392 -189.848237 
L 102.438845 -168.596643 
L 103.193299 -168.596643 
L 103.947752 -168.596643 
L 104.702205 -173.886775 
L 105.456659 -168.596643 
L 106.211112 -168.596643 
L 106.965566 -140.410262 
L 107.720019 -140.662727 
L 108.474473 -140.662727 
L 109.228926 -140.662727 
L 109.98338 -140.662727 
L 110.737833 -140.913609 
L 111.492287 -140.907356 
L 112.24674 -140.913609 
L 113.001193 -140.662727 
L 113.755647 -140.662727 
L 114.5101 -140.662727 
L 115.264554 -140.662727 
L 116.019007 -140.662727 
L 116.773461 -141.067041 
L 117.527914 -140.662727 
L 118.282368 -141.063212 
L 119.036821 -140.913609 
L 119.791275 -140.662727 
L 120.545728 -140.662727 
L 121.300181 -140.656435 
L 122.054635 -140.662727 
L 122.809088 -140.410262 
L 123.563542 -140.662727 
L 124.317995 -140.662727 
L 125.072449 -140.662727 
L 125.826902 -140.662727 
L 126.581356 -140.662727 
L 127.335809 -140.907356 
L 128.090263 -140.662727 
L 128.844716 -140.662727 
L 129.59917 -140.662727 
L 130.353623 -140.662727 
L 131.108076 -140.913609 
L 131.86253 -140.662727 
L 132.616983 -140.913609 
L 133.371437 -140.662727 
L 134.12589 -140.662727 
L 134.880344 -140.662727 
L 135.634797 -140.662727 
L 136.389251 -140.662727 
L 137.143704 -140.410262 
L 137.898158 -141.311602 
L 138.652611 -140.907356 
L 139.407064 -140.662727 
L 140.161518 -140.907356 
L 140.915971 -140.662727 
L 141.670425 -140.913609 
L 142.424878 -140.662727 
L 143.179332 -140.662727 
L 143.933785 -140.662727 
L 144.688239 -140.662727 
L 145.442692 -140.662727 
L 146.197146 -140.913609 
L 146.951599 -140.913609 
L 147.706052 -140.662727 
L 148.460506 -140.656435 
L 149.214959 -141.063212 
L 149.969413 -140.913609 
L 150.723866 -140.662727 
L 151.47832 -134.785715 
L 152.232773 -134.500493 
L 152.987227 -134.500493 
L 153.74168 -134.500493 
L 154.496134 -134.793001 
L 155.250587 -134.793001 
L 156.005041 -134.20583 
L 156.759494 -134.500493 
L 157.513947 -134.500493 
L 158.268401 -134.793001 
L 159.022854 -123.879666 
L 159.777308 -123.846484 
L 160.531761 -123.846484 
L 161.286215 -123.879666 
L 162.040668 -121.260413 
L 162.795122 -122.530439 
L 163.549575 -123.879666 
L 164.304029 -122.530439 
L 165.058482 -123.879666 
L 165.812935 -123.879666 
L 166.567389 -121.265211 
L 167.321842 -123.879666 
L 168.076296 -126.333692 
L 168.830749 -121.072874 
L 169.585203 -123.879666 
L 170.339656 -123.879666 
L 171.09411 -123.879666 
L 171.848563 -123.879666 
L 172.603017 -123.879666 
L 173.35747 -123.879666 
L 174.111923 -123.879666 
L 174.866377 -122.499291 
L 175.62083 -122.499291 
L 176.375284 -122.530439 
L 177.129737 -123.879666 
L 177.884191 -121.265211 
L 178.638644 -120.578785 
L 179.393098 -123.879666 
L 180.147551 -123.879666 
L 180.902005 -123.816344 
L 181.656458 -123.846484 
L 182.410912 -123.879666 
L 183.165365 -126.274141 
L 183.919818 -123.879666 
L 184.674272 -123.879666 
L 185.428725 -123.879666 
L 186.183179 -123.879666 
L 186.937632 -123.879666 
L 187.692086 -118.439867 
L 188.446539 -116.1801 
L 189.200993 -118.439867 
L 189.955446 -118.439867 
L 190.7099 -118.439867 
L 191.464353 -118.439867 
L 192.218806 -118.439867 
L 192.97326 -118.439867 
L 193.727713 -118.439867 
L 194.482167 -118.439867 
L 195.23662 -118.439867 
L 195.991074 -118.439867 
L 196.745527 -118.439867 
L 197.499981 -118.439867 
L 198.254434 -118.384901 
L 199.008888 -115.591684 
L 199.763341 -118.439867 
L 200.517794 -115.591684 
L 201.272248 -115.591684 
L 202.026701 -115.591684 
L 202.781155 -115.591684 
L 203.535608 -118.439867 
L 204.290062 -116.165495 
L 205.044515 -115.591684 
L 205.798969 -115.591684 
L 206.553422 -118.439867 
L 207.307876 -115.591684 
L 208.062329 -115.591684 
L 208.816783 -116.165495 
L 209.571236 -115.591684 
L 210.325689 -118.439867 
L 211.080143 -115.591684 
L 211.834596 -118.439867 
L 212.58905 -118.384901 
L 213.343503 -114.650047 
L 214.097957 -114.650047 
L 214.85241 -118.439867 
L 215.606864 -118.439867 
L 216.361317 -115.591684 
L 217.115771 -118.439867 
L 217.870224 -118.439867 
L 218.624677 -115.591684 
L 219.379131 -118.439867 
L 220.133584 -115.591684 
L 220.888038 -115.591684 
L 221.642491 -115.568412 
L 222.396945 -115.591684 
L 223.151398 -116.1801 
L 223.905852 -118.439867 
L 224.660305 -118.439867 
L 225.414759 -118.439867 
L 226.169212 -118.439867 
L 226.923665 -118.439867 
L 227.678119 -116.165495 
L 228.432572 -118.439867 
L 229.187026 -115.591684 
L 229.941479 -118.439867 
L 230.695933 -118.439867 
L 231.450386 -118.439867 
L 232.20484 -118.439867 
L 232.959293 -115.591684 
L 233.713747 -118.384901 
L 234.4682 -118.439867 
L 235.222654 -115.591684 
L 235.977107 -118.439867 
L 236.73156 -115.591684 
L 237.486014 -118.439867 
L 238.240467 -115.591684 
L 238.994921 -118.439867 
L 239.749374 -115.591684 
L 240.503828 -118.439867 
L 241.258281 -116.1801 
L 242.012735 -118.439867 
L 242.767188 -115.591684 
L 242.767188 -155.154659 
L 242.767188 -155.154659 
L 242.012735 -155.154659 
L 241.258281 -154.806979 
L 240.503828 -154.806979 
L 239.749374 -154.806979 
L 238.994921 -157.08308 
L 238.240467 -155.20402 
L 237.486014 -157.08308 
L 236.73156 -153.683697 
L 235.977107 -154.815708 
L 235.222654 -155.154659 
L 234.4682 -157.091326 
L 233.713747 -153.683697 
L 232.959293 -153.712167 
L 232.20484 -157.08308 
L 231.450386 -155.154659 
L 230.695933 -154.806979 
L 229.941479 -154.815708 
L 229.187026 -157.08308 
L 228.432572 -155.154659 
L 227.678119 -154.806979 
L 226.923665 -155.154659 
L 226.169212 -155.154659 
L 225.414759 -154.815708 
L 224.660305 -154.806979 
L 223.905852 -153.683697 
L 223.151398 -154.806979 
L 222.396945 -154.806979 
L 221.642491 -155.154659 
L 220.888038 -155.154659 
L 220.133584 -155.154659 
L 219.379131 -154.815708 
L 218.624677 -155.154659 
L 217.870224 -155.154659 
L 217.115771 -155.154659 
L 216.361317 -154.806979 
L 215.606864 -154.806979 
L 214.85241 -153.683697 
L 214.097957 -155.154659 
L 213.343503 -155.154659 
L 212.58905 -154.815708 
L 211.834596 -155.154659 
L 211.080143 -154.806979 
L 210.325689 -154.806979 
L 209.571236 -154.806979 
L 208.816783 -154.806979 
L 208.062329 -155.154659 
L 207.307876 -154.806979 
L 206.553422 -154.806979 
L 205.798969 -155.154659 
L 205.044515 -155.154659 
L 204.290062 -154.806979 
L 203.535608 -154.815708 
L 202.781155 -154.806979 
L 202.026701 -155.154659 
L 201.272248 -155.20402 
L 200.517794 -155.154659 
L 199.763341 -154.815708 
L 199.008888 -157.08308 
L 198.254434 -153.712167 
L 197.499981 -154.806979 
L 196.745527 -154.806979 
L 195.991074 -159.275511 
L 195.23662 -159.94464 
L 194.482167 -159.961226 
L 193.727713 -159.292376 
L 192.97326 -159.94464 
L 192.218806 -159.275511 
L 191.464353 -159.94464 
L 190.7099 -159.292376 
L 189.955446 -159.275511 
L 189.200993 -159.292376 
L 188.446539 -160.147659 
L 187.692086 -159.214681 
L 186.937632 -160.147659 
L 186.183179 -159.681676 
L 185.428725 -160.147659 
L 184.674272 -159.693392 
L 183.919818 -160.147659 
L 183.165365 -159.693392 
L 182.410912 -160.147659 
L 181.656458 -159.584764 
L 180.902005 -159.681676 
L 180.147551 -160.147659 
L 179.393098 -160.702743 
L 178.638644 -159.681676 
L 177.884191 -160.147659 
L 177.129737 -159.693392 
L 176.375284 -159.681676 
L 175.62083 -160.147659 
L 174.866377 -160.147659 
L 174.111923 -160.147659 
L 173.35747 -159.681676 
L 172.603017 -160.147659 
L 171.848563 -160.147659 
L 171.09411 -160.147659 
L 170.339656 -160.147659 
L 169.585203 -160.147659 
L 168.830749 -160.147659 
L 168.076296 -159.681676 
L 167.321842 -159.693392 
L 166.567389 -159.681676 
L 165.812935 -160.15005 
L 165.058482 -160.16163 
L 164.304029 -160.147659 
L 163.549575 -160.702743 
L 162.795122 -160.15005 
L 162.040668 -160.147659 
L 161.286215 -160.147659 
L 160.531761 -160.147659 
L 159.777308 -160.147659 
L 159.022854 -160.147659 
L 158.268401 -160.147659 
L 157.513947 -160.147659 
L 156.759494 -160.147659 
L 156.005041 -160.147659 
L 155.250587 -160.147659 
L 154.496134 -160.147659 
L 153.74168 -159.837818 
L 152.987227 -160.147659 
L 152.232773 -160.15005 
L 151.47832 -160.15005 
L 150.723866 -189.488458 
L 149.969413 -187.61158 
L 149.214959 -187.533671 
L 148.460506 -187.533671 
L 147.706052 -187.535621 
L 146.951599 -187.329246 
L 146.197146 -187.61158 
L 145.442692 -187.533671 
L 144.688239 -187.533671 
L 143.933785 -189.488458 
L 143.179332 -187.798128 
L 142.424878 -188.119618 
L 141.670425 -188.072156 
L 140.915971 -187.997067 
L 140.161518 -187.995139 
L 139.407064 -187.995139 
L 138.652611 -188.072156 
L 137.898158 -188.072156 
L 137.143704 -189.92804 
L 136.389251 -188.072156 
L 135.634797 -187.997067 
L 134.880344 -187.997067 
L 134.12589 -188.072156 
L 133.371437 -188.072156 
L 132.616983 -188.072156 
L 131.86253 -187.995139 
L 131.108076 -187.995139 
L 130.353623 -189.92804 
L 129.59917 -188.072156 
L 128.844716 -187.995139 
L 128.090263 -188.072156 
L 127.335809 -187.793064 
L 126.581356 -187.793064 
L 125.826902 -187.995139 
L 125.072449 -189.92804 
L 124.317995 -191.071468 
L 123.563542 -191.142788 
L 122.809088 -191.142788 
L 122.054635 -191.142788 
L 121.300181 -191.142788 
L 120.545728 -191.142788 
L 119.791275 -191.071468 
L 119.036821 -191.073252 
L 118.282368 -191.073252 
L 117.527914 -191.142788 
L 116.773461 -191.071468 
L 116.019007 -191.142788 
L 115.264554 -191.142788 
L 114.5101 -191.142788 
L 113.755647 -191.142788 
L 113.001193 -190.884384 
L 112.24674 -192.864461 
L 111.492287 -191.186746 
L 110.737833 -191.142788 
L 109.98338 -191.142788 
L 109.228926 -190.889072 
L 108.474473 -191.071468 
L 107.720019 -192.864461 
L 106.965566 -193.791929 
L 106.211112 -220.467142 
L 105.456659 -221.75709 
L 104.702205 -219.262225 
L 103.947752 -220.525172 
L 103.193299 -220.525172 
L 102.438845 -220.525172 
L 101.684392 -220.525172 
L 100.929938 -221.102468 
L 100.175485 -220.525172 
L 99.421031 -220.525172 
L 98.666578 -221.938024 
L 97.912124 -251.964709 
L 97.157671 -250.792808 
L 96.403217 -252.814364 
L 95.648764 -284.898712 
L 94.89431 -285.283705 
L 94.139857 -284.442025 
L 93.385404 -286.720152 
L 92.63095 -287.4885 
z
" style="stroke: #55a868; stroke-opacity: 0.2; stroke-width: 0.8"/>
    </defs>
    <g clip-path="url(#p33bc67cb59)">
     <use xlink:href="#m5e8e0401b8" x="0" y="345.6" style="fill: #55a868; fill-opacity: 0.2; stroke: #55a868; stroke-opacity: 0.2; stroke-width: 0.8"/>
    </g>
   </g>
   <g id="PolyCollection_4">
    <defs>
     <path id="m1ea506f75e" d="M 92.63095 -296.301264 
L 92.63095 -248.415765 
L 93.385404 -202.46835 
L 94.139857 -202.46835 
L 94.89431 -194.777911 
L 95.648764 -191.54461 
L 96.403217 -191.54461 
L 97.157671 -191.368551 
L 97.912124 -191.54461 
L 98.666578 -191.54461 
L 99.421031 -179.394968 
L 100.175485 -177.071374 
L 100.929938 -172.93248 
L 101.684392 -170.477449 
L 102.438845 -174.01288 
L 103.193299 -173.807081 
L 103.947752 -166.599025 
L 104.702205 -170.477449 
L 105.456659 -172.93248 
L 106.211112 -172.993491 
L 106.965566 -170.477449 
L 107.720019 -166.599025 
L 108.474473 -168.653957 
L 109.228926 -166.599025 
L 109.98338 -168.603849 
L 110.737833 -168.653957 
L 111.492287 -168.603849 
L 112.24674 -168.653957 
L 113.001193 -161.201224 
L 113.755647 -143.666332 
L 114.5101 -143.666332 
L 115.264554 -143.666332 
L 116.019007 -143.666332 
L 116.773461 -130.109553 
L 117.527914 -127.837411 
L 118.282368 -128.782647 
L 119.036821 -128.782647 
L 119.791275 -128.782647 
L 120.545728 -128.759287 
L 121.300181 -128.782647 
L 122.054635 -127.837411 
L 122.809088 -127.837411 
L 123.563542 -123.154113 
L 124.317995 -120.435545 
L 125.072449 -120.435545 
L 125.826902 -120.435545 
L 126.581356 -120.435545 
L 127.335809 -122.769387 
L 128.090263 -123.154113 
L 128.844716 -123.14454 
L 129.59917 -123.14454 
L 130.353623 -120.435545 
L 131.108076 -120.435545 
L 131.86253 -120.435545 
L 132.616983 -120.435545 
L 133.371437 -120.435545 
L 134.12589 -120.435545 
L 134.880344 -111.353703 
L 135.634797 -106.390838 
L 136.389251 -105.721635 
L 137.143704 -105.721635 
L 137.898158 -105.721635 
L 138.652611 -106.390838 
L 139.407064 -105.721635 
L 140.161518 -105.721635 
L 140.915971 -106.390838 
L 141.670425 -105.721635 
L 142.424878 -106.390838 
L 143.179332 -105.721635 
L 143.933785 -105.041047 
L 144.688239 -105.721635 
L 145.442692 -105.721635 
L 146.197146 -106.390838 
L 146.951599 -105.721635 
L 147.706052 -105.041047 
L 148.460506 -107.032707 
L 149.214959 -106.390838 
L 149.969413 -105.721635 
L 150.723866 -105.70476 
L 151.47832 -105.721635 
L 152.232773 -106.374243 
L 152.987227 -105.721635 
L 153.74168 -102.445242 
L 154.496134 -103.171043 
L 155.250587 -102.208797 
L 156.005041 -100.460467 
L 156.759494 -102.822352 
L 157.513947 -100.460467 
L 158.268401 -100.460467 
L 159.022854 -102.208797 
L 159.777308 -100.460467 
L 160.531761 -100.460467 
L 161.286215 -100.460467 
L 162.040668 -100.460467 
L 162.795122 -102.822352 
L 163.549575 -96.71192 
L 164.304029 -96.707424 
L 165.058482 -96.707424 
L 165.812935 -96.707424 
L 166.567389 -96.711808 
L 167.321842 -96.707424 
L 168.076296 -96.702926 
L 168.830749 -96.71192 
L 169.585203 -95.842093 
L 170.339656 -95.842093 
L 171.09411 -95.842093 
L 171.848563 -96.281643 
L 172.603017 -95.842093 
L 173.35747 -96.281643 
L 174.111923 -95.842093 
L 174.866377 -95.842093 
L 175.62083 -96.270713 
L 176.375284 -95.842093 
L 177.129737 -96.705605 
L 177.884191 -96.270713 
L 178.638644 -95.842093 
L 179.393098 -95.842093 
L 180.147551 -95.842093 
L 180.902005 -96.705605 
L 181.656458 -96.281637 
L 182.410912 -95.842072 
L 183.165365 -95.397638 
L 183.919818 -95.338648 
L 184.674272 -95.338648 
L 185.428725 -95.338648 
L 186.183179 -95.783732 
L 186.937632 -95.338646 
L 187.692086 -96.212974 
L 188.446539 -95.338646 
L 189.200993 -95.783731 
L 189.955446 -95.783731 
L 190.7099 -95.338646 
L 191.464353 -95.338646 
L 192.218806 -95.338646 
L 192.97326 -96.212973 
L 193.727713 -95.338645 
L 194.482167 -95.338644 
L 195.23662 -95.338644 
L 195.991074 -95.338644 
L 196.745527 -95.772663 
L 197.499981 -95.338644 
L 198.254434 -95.338644 
L 199.008888 -95.338644 
L 199.763341 -95.338644 
L 200.517794 -95.78373 
L 201.272248 -95.338644 
L 202.026701 -95.338644 
L 202.781155 -95.78373 
L 203.535608 -95.338644 
L 204.290062 -95.78373 
L 205.044515 -100.835414 
L 205.798969 -95.338644 
L 206.553422 -95.78373 
L 207.307876 -95.338644 
L 208.062329 -95.338644 
L 208.816783 -95.338644 
L 209.571236 -95.338644 
L 210.325689 -95.338644 
L 211.080143 -95.78373 
L 211.834596 -95.338644 
L 212.58905 -95.338644 
L 213.343503 -95.327453 
L 214.097957 -95.338644 
L 214.85241 -95.772663 
L 215.606864 -95.772663 
L 216.361317 -96.223919 
L 217.115771 -95.338644 
L 217.870224 -95.338644 
L 218.624677 -95.338644 
L 219.379131 -95.338644 
L 220.133584 -95.338644 
L 220.888038 -95.78373 
L 221.642491 -95.338644 
L 222.396945 -95.338644 
L 223.151398 -95.338644 
L 223.905852 -95.338644 
L 224.660305 -95.772663 
L 225.414759 -95.338644 
L 226.169212 -95.338644 
L 226.923665 -95.338644 
L 227.678119 -95.78373 
L 228.432572 -94.888551 
L 229.187026 -95.338644 
L 229.941479 -95.338644 
L 230.695933 -95.78373 
L 231.450386 -95.78373 
L 232.20484 -95.338644 
L 232.959293 -95.78373 
L 233.713747 -95.772663 
L 234.4682 -95.78373 
L 235.222654 -95.78373 
L 235.977107 -95.338644 
L 236.73156 -95.338644 
L 237.486014 -95.338644 
L 238.240467 -95.772663 
L 238.994921 -95.338644 
L 239.749374 -95.338644 
L 240.503828 -95.338644 
L 241.258281 -95.338644 
L 242.012735 -95.338644 
L 242.767188 -95.772663 
L 242.767188 -172.242434 
L 242.767188 -172.242434 
L 242.012735 -171.256936 
L 241.258281 -172.244071 
L 240.503828 -171.281872 
L 239.749374 -172.242434 
L 238.994921 -172.242434 
L 238.240467 -170.295019 
L 237.486014 -171.256936 
L 236.73156 -171.256936 
L 235.977107 -172.242434 
L 235.222654 -171.256936 
L 234.4682 -170.295019 
L 233.713747 -172.244071 
L 232.959293 -170.295019 
L 232.20484 -172.307846 
L 231.450386 -172.307846 
L 230.695933 -171.256936 
L 229.941479 -172.242434 
L 229.187026 -172.307846 
L 228.432572 -170.319351 
L 227.678119 -172.307846 
L 226.923665 -172.307846 
L 226.169212 -172.242434 
L 225.414759 -172.242434 
L 224.660305 -172.242434 
L 223.905852 -172.242434 
L 223.151398 -172.307846 
L 222.396945 -172.242434 
L 221.642491 -172.242434 
L 220.888038 -171.256936 
L 220.133584 -172.307846 
L 219.379131 -172.307846 
L 218.624677 -172.242434 
L 217.870224 -171.256936 
L 217.115771 -172.307846 
L 216.361317 -172.242434 
L 215.606864 -172.307846 
L 214.85241 -170.319351 
L 214.097957 -170.295019 
L 213.343503 -172.242434 
L 212.58905 -172.242434 
L 211.834596 -172.242434 
L 211.080143 -172.307846 
L 210.325689 -171.256936 
L 209.571236 -171.281872 
L 208.816783 -172.242434 
L 208.062329 -172.307846 
L 207.307876 -170.319351 
L 206.553422 -171.256936 
L 205.798969 -172.307846 
L 205.044515 -171.256936 
L 204.290062 -170.319351 
L 203.535608 -172.307846 
L 202.781155 -171.256936 
L 202.026701 -171.256936 
L 201.272248 -172.242434 
L 200.517794 -172.242434 
L 199.763341 -171.256936 
L 199.008888 -172.307846 
L 198.254434 -170.295019 
L 197.499981 -172.242434 
L 196.745527 -173.223099 
L 195.991074 -172.242434 
L 195.23662 -170.226229 
L 194.482167 -171.281872 
L 193.727713 -172.307846 
L 192.97326 -172.244071 
L 192.218806 -170.295019 
L 191.464353 -173.223099 
L 190.7099 -172.242435 
L 189.955446 -170.319351 
L 189.200993 -172.242435 
L 188.446539 -172.307846 
L 187.692086 -172.242435 
L 186.937632 -173.223099 
L 186.183179 -172.242435 
L 185.428725 -172.330985 
L 184.674272 -170.295019 
L 183.919818 -172.307846 
L 183.165365 -172.242435 
L 182.410912 -172.307846 
L 181.656458 -172.242435 
L 180.902005 -172.242435 
L 180.147551 -171.429611 
L 179.393098 -173.295342 
L 178.638644 -172.244071 
L 177.884191 -172.307848 
L 177.129737 -172.242436 
L 176.375284 -172.242436 
L 175.62083 -172.307848 
L 174.866377 -172.242436 
L 174.111923 -171.429612 
L 173.35747 -172.307848 
L 172.603017 -172.242436 
L 171.848563 -173.295344 
L 171.09411 -170.398969 
L 170.339656 -170.398969 
L 169.585203 -171.408552 
L 168.830749 -172.307185 
L 168.076296 -172.307848 
L 167.321842 -171.431265 
L 166.567389 -171.431265 
L 165.812935 -170.398969 
L 165.058482 -170.398969 
L 164.304029 -172.307187 
L 163.549575 -172.30785 
L 162.795122 -172.315264 
L 162.040668 -172.30785 
L 161.286215 -171.408552 
L 160.531761 -172.603366 
L 159.777308 -170.68285 
L 159.022854 -172.603366 
L 158.268401 -172.30785 
L 157.513947 -172.30785 
L 156.759494 -171.408552 
L 156.005041 -172.30785 
L 155.250587 -170.68285 
L 154.496134 -172.603366 
L 153.74168 -170.68285 
L 152.987227 -172.476359 
L 152.232773 -172.603366 
L 151.47832 -171.298286 
L 150.723866 -172.476359 
L 149.969413 -172.603366 
L 149.214959 -171.328165 
L 148.460506 -172.476359 
L 147.706052 -171.298286 
L 146.951599 -172.603366 
L 146.197146 -174.206555 
L 145.442692 -174.084544 
L 144.688239 -174.206555 
L 143.933785 -174.084544 
L 143.179332 -172.827653 
L 142.424878 -172.953552 
L 141.670425 -174.206555 
L 140.915971 -174.084544 
L 140.161518 -174.211454 
L 139.407064 -174.211353 
L 138.652611 -175.548888 
L 137.898158 -174.211454 
L 137.143704 -179.395892 
L 136.389251 -182.280324 
L 135.634797 -180.098104 
L 134.880344 -182.086661 
L 134.12589 -182.367649 
L 133.371437 -181.764916 
L 132.616983 -183.685017 
L 131.86253 -183.243572 
L 131.108076 -184.965832 
L 130.353623 -181.780096 
L 129.59917 -183.912557 
L 128.844716 -184.965832 
L 128.090263 -183.912557 
L 127.335809 -184.965832 
L 126.581356 -183.260434 
L 125.826902 -183.912557 
L 125.072449 -183.912557 
L 124.317995 -183.260434 
L 123.563542 -184.965832 
L 122.809088 -184.735818 
L 122.054635 -183.281565 
L 121.300181 -184.735818 
L 120.545728 -184.735818 
L 119.791275 -184.735818 
L 119.036821 -184.965832 
L 118.282368 -182.367649 
L 117.527914 -184.979844 
L 116.773461 -184.735818 
L 116.019007 -205.447363 
L 115.264554 -205.447363 
L 114.5101 -205.447363 
L 113.755647 -204.104065 
L 113.001193 -206.532406 
L 112.24674 -206.532406 
L 111.492287 -206.550497 
L 110.737833 -208.844951 
L 109.98338 -206.532406 
L 109.228926 -207.249769 
L 108.474473 -206.309444 
L 107.720019 -207.249769 
L 106.965566 -211.047936 
L 106.211112 -212.760637 
L 105.456659 -211.768036 
L 104.702205 -210.75018 
L 103.947752 -211.768036 
L 103.193299 -211.768036 
L 102.438845 -212.760637 
L 101.684392 -211.768036 
L 100.929938 -211.768036 
L 100.175485 -223.165283 
L 99.421031 -228.012401 
L 98.666578 -229.073289 
L 97.912124 -229.204272 
L 97.157671 -229.073289 
L 96.403217 -229.204272 
L 95.648764 -245.638441 
L 94.89431 -245.638441 
L 94.139857 -253.497555 
L 93.385404 -265.096118 
L 92.63095 -296.301264 
z
" style="stroke: #8172b3; stroke-opacity: 0.2; stroke-width: 0.8"/>
    </defs>
    <g clip-path="url(#p33bc67cb59)">
     <use xlink:href="#m1ea506f75e" x="0" y="345.6" style="fill: #8172b3; fill-opacity: 0.2; stroke: #8172b3; stroke-opacity: 0.2; stroke-width: 0.8"/>
    </g>
   </g>
   <g id="PolyCollection_5">
    <defs>
     <path id="ma6d525bfc6" d="M 92.63095 -284.101873 
L 92.63095 -240.733803 
L 93.385404 -209.786049 
L 94.139857 -178.891287 
L 94.89431 -168.357612 
L 95.648764 -167.97301 
L 96.403217 -167.97301 
L 97.157671 -164.841932 
L 97.912124 -164.841932 
L 98.666578 -161.444829 
L 99.421031 -164.841932 
L 100.175485 -168.357612 
L 100.929938 -164.841932 
L 101.684392 -152.121064 
L 102.438845 -144.222711 
L 103.193299 -143.622899 
L 103.947752 -143.622899 
L 104.702205 -146.053374 
L 105.456659 -146.113793 
L 106.211112 -146.113793 
L 106.965566 -143.622899 
L 107.720019 -140.112862 
L 108.474473 -146.053374 
L 109.228926 -140.112862 
L 109.98338 -143.622899 
L 110.737833 -143.622899 
L 111.492287 -132.682418 
L 112.24674 -132.682418 
L 113.001193 -132.682418 
L 113.755647 -132.682418 
L 114.5101 -132.682418 
L 115.264554 -132.682418 
L 116.019007 -132.682418 
L 116.773461 -132.682418 
L 117.527914 -132.682418 
L 118.282368 -132.682418 
L 119.036821 -132.682418 
L 119.791275 -132.635529 
L 120.545728 -130.762604 
L 121.300181 -132.682418 
L 122.054635 -132.682418 
L 122.809088 -132.682418 
L 123.563542 -136.569904 
L 124.317995 -132.682418 
L 125.072449 -132.682418 
L 125.826902 -132.682418 
L 126.581356 -132.682418 
L 127.335809 -130.762604 
L 128.090263 -132.682418 
L 128.844716 -128.441005 
L 129.59917 -128.441005 
L 130.353623 -125.505122 
L 131.108076 -128.376111 
L 131.86253 -126.465968 
L 132.616983 -130.218278 
L 133.371437 -126.465968 
L 134.12589 -130.262786 
L 134.880344 -126.465968 
L 135.634797 -125.574479 
L 136.389251 -125.574479 
L 137.143704 -129.677923 
L 137.898158 -123.600336 
L 138.652611 -123.559569 
L 139.407064 -123.992211 
L 140.161518 -121.936343 
L 140.915971 -123.559569 
L 141.670425 -120.101847 
L 142.424878 -123.027901 
L 143.179332 -123.615227 
L 143.933785 -120.910032 
L 144.688239 -118.833878 
L 145.442692 -120.910032 
L 146.197146 -118.833878 
L 146.951599 -120.910032 
L 147.706052 -120.910032 
L 148.460506 -120.910032 
L 149.214959 -114.870088 
L 149.969413 -118.68485 
L 150.723866 -118.68485 
L 151.47832 -120.85942 
L 152.232773 -118.593783 
L 152.987227 -118.833878 
L 153.74168 -118.833878 
L 154.496134 -120.910032 
L 155.250587 -118.087217 
L 156.005041 -118.087217 
L 156.759494 -117.372142 
L 157.513947 -117.31146 
L 158.268401 -117.372142 
L 159.022854 -117.0289 
L 159.777308 -104.730333 
L 160.531761 -104.730333 
L 161.286215 -104.730333 
L 162.040668 -104.730333 
L 162.795122 -104.730333 
L 163.549575 -104.730333 
L 164.304029 -104.670226 
L 165.058482 -104.730333 
L 165.812935 -99.597769 
L 166.567389 -99.58478 
L 167.321842 -109.413093 
L 168.076296 -99.58478 
L 168.830749 -99.598101 
L 169.585203 -99.598101 
L 170.339656 -99.58478 
L 171.09411 -99.598101 
L 171.848563 -99.598101 
L 172.603017 -99.58478 
L 173.35747 -99.58478 
L 174.111923 -85.945789 
L 174.866377 -85.927048 
L 175.62083 -85.964521 
L 176.375284 -85.945789 
L 177.129737 -85.945789 
L 177.884191 -85.945789 
L 178.638644 -85.927048 
L 179.393098 -85.945789 
L 180.147551 -85.945789 
L 180.902005 -85.945789 
L 181.656458 -85.964521 
L 182.410912 -85.945789 
L 183.165365 -90.724491 
L 183.919818 -85.945789 
L 184.674272 -85.964053 
L 185.428725 -85.945789 
L 186.183179 -85.964521 
L 186.937632 -85.945789 
L 187.692086 -85.945789 
L 188.446539 -85.964053 
L 189.200993 -85.964521 
L 189.955446 -85.964521 
L 190.7099 -85.945789 
L 191.464353 -85.945789 
L 192.218806 -85.945789 
L 192.97326 -85.945789 
L 193.727713 -85.945789 
L 194.482167 -85.945789 
L 195.23662 -85.945789 
L 195.991074 -85.982776 
L 196.745527 -85.945789 
L 197.499981 -85.945789 
L 198.254434 -85.945789 
L 199.008888 -84.891976 
L 199.763341 -83.900664 
L 200.517794 -84.917074 
L 201.272248 -83.900664 
L 202.026701 -88.154315 
L 202.781155 -84.917074 
L 203.535608 -83.900664 
L 204.290062 -83.900664 
L 205.044515 -83.900664 
L 205.798969 -83.900664 
L 206.553422 -83.900664 
L 207.307876 -83.900664 
L 208.062329 -84.604248 
L 208.816783 -84.604248 
L 209.571236 -84.604248 
L 210.325689 -83.579756 
L 211.080143 -84.578953 
L 211.834596 -84.604248 
L 212.58905 -84.599479 
L 213.343503 -83.579756 
L 214.097957 -83.579756 
L 214.85241 -82.61351 
L 215.606864 -84.136255 
L 216.361317 -82.985364 
L 217.115771 -81.40767 
L 217.870224 -82.61351 
L 218.624677 -82.61351 
L 219.379131 -82.61351 
L 220.133584 -81.030504 
L 220.888038 -82.61351 
L 221.642491 -82.474514 
L 222.396945 -82.052025 
L 223.151398 -83.502125 
L 223.905852 -82.474514 
L 224.660305 -82.474514 
L 225.414759 -82.052025 
L 226.169212 -81.551291 
L 226.923665 -82.052025 
L 227.678119 -81.551291 
L 228.432572 -81.551291 
L 229.187026 -81.551291 
L 229.941479 -81.551291 
L 230.695933 -81.551291 
L 231.450386 -80.519362 
L 232.20484 -81.525815 
L 232.959293 -81.551291 
L 233.713747 -82.052025 
L 234.4682 -81.551291 
L 235.222654 -81.551291 
L 235.977107 -81.551291 
L 236.73156 -80.506434 
L 237.486014 -81.3083 
L 238.240467 -81.551291 
L 238.994921 -79.998944 
L 239.749374 -81.3083 
L 240.503828 -81.3083 
L 241.258281 -79.746309 
L 242.012735 -80.689702 
L 242.767188 -81.293436 
L 242.767188 -116.48355 
L 242.767188 -116.48355 
L 242.012735 -116.48355 
L 241.258281 -116.48355 
L 240.503828 -115.94524 
L 239.749374 -115.94524 
L 238.994921 -117.866397 
L 238.240467 -115.94524 
L 237.486014 -115.958786 
L 236.73156 -116.793945 
L 235.977107 -116.793945 
L 235.222654 -116.793945 
L 234.4682 -116.793945 
L 233.713747 -117.866397 
L 232.959293 -116.157955 
L 232.20484 -116.793945 
L 231.450386 -118.675709 
L 230.695933 -116.793945 
L 229.941479 -116.157955 
L 229.187026 -116.82111 
L 228.432572 -116.793945 
L 227.678119 -116.793945 
L 226.923665 -116.157955 
L 226.169212 -116.793945 
L 225.414759 -116.338624 
L 224.660305 -116.793945 
L 223.905852 -116.793945 
L 223.151398 -116.793945 
L 222.396945 -116.162482 
L 221.642491 -116.338624 
L 220.888038 -116.157955 
L 220.133584 -116.163232 
L 219.379131 -121.925112 
L 218.624677 -122.501912 
L 217.870224 -121.939634 
L 217.115771 -122.501912 
L 216.361317 -121.925112 
L 215.606864 -121.785026 
L 214.85241 -122.501912 
L 214.097957 -122.107738 
L 213.343503 -122.501912 
L 212.58905 -122.501912 
L 211.834596 -129.474448 
L 211.080143 -129.474448 
L 210.325689 -129.474448 
L 209.571236 -129.474448 
L 208.816783 -129.474448 
L 208.062329 -129.474448 
L 207.307876 -129.353503 
L 206.553422 -128.041424 
L 205.798969 -129.798505 
L 205.044515 -129.576623 
L 204.290062 -129.353503 
L 203.535608 -129.576623 
L 202.781155 -130.934911 
L 202.026701 -131.368461 
L 201.272248 -130.923733 
L 200.517794 -130.474004 
L 199.763341 -130.021353 
L 199.008888 -130.923733 
L 198.254434 -130.923733 
L 197.499981 -130.485309 
L 196.745527 -130.923733 
L 195.991074 -130.923733 
L 195.23662 -130.923733 
L 194.482167 -130.923733 
L 193.727713 -130.923733 
L 192.97326 -130.485309 
L 192.218806 -130.923733 
L 191.464353 -130.923733 
L 190.7099 -130.923733 
L 189.955446 -130.923733 
L 189.200993 -130.923733 
L 188.446539 -130.474004 
L 187.692086 -131.368461 
L 186.937632 -130.923733 
L 186.183179 -130.923733 
L 185.428725 -130.474004 
L 184.674272 -130.932794 
L 183.919818 -130.932794 
L 183.165365 -130.932794 
L 182.410912 -130.932794 
L 181.656458 -130.932794 
L 180.902005 -130.478586 
L 180.147551 -131.381902 
L 179.393098 -130.478586 
L 178.638644 -130.932794 
L 177.884191 -170.324153 
L 177.129737 -170.426315 
L 176.375284 -171.053607 
L 175.62083 -168.409282 
L 174.866377 -169.068745 
L 174.111923 -170.426315 
L 173.35747 -171.792706 
L 172.603017 -171.884102 
L 171.848563 -171.884102 
L 171.09411 -171.884047 
L 170.339656 -172.944628 
L 169.585203 -171.884047 
L 168.830749 -171.886234 
L 168.076296 -172.329578 
L 167.321842 -170.424048 
L 166.567389 -172.944628 
L 165.812935 -172.327415 
L 165.058482 -172.774919 
L 164.304029 -172.770558 
L 163.549575 -170.888659 
L 162.795122 -172.329578 
L 162.040668 -172.770558 
L 161.286215 -172.329578 
L 160.531761 -172.329578 
L 159.777308 -172.944628 
L 159.022854 -172.944628 
L 158.268401 -174.063623 
L 157.513947 -173.486205 
L 156.759494 -172.511817 
L 156.005041 -174.063623 
L 155.250587 -172.511817 
L 154.496134 -175.361298 
L 153.74168 -173.859962 
L 152.987227 -175.361298 
L 152.232773 -173.874363 
L 151.47832 -173.874363 
L 150.723866 -173.3314 
L 149.969413 -173.859962 
L 149.214959 -175.361298 
L 148.460506 -175.361298 
L 147.706052 -174.431995 
L 146.951599 -174.455492 
L 146.197146 -174.431995 
L 145.442692 -175.361298 
L 144.688239 -173.874363 
L 143.933785 -173.859962 
L 143.179332 -173.859962 
L 142.424878 -173.859962 
L 141.670425 -175.361298 
L 140.915971 -173.859962 
L 140.161518 -173.859962 
L 139.407064 -173.859962 
L 138.652611 -173.859962 
L 137.898158 -174.431995 
L 137.143704 -175.912406 
L 136.389251 -174.431995 
L 135.634797 -175.912406 
L 134.880344 -173.852685 
L 134.12589 -175.038325 
L 133.371437 -175.912406 
L 132.616983 -175.038325 
L 131.86253 -174.431995 
L 131.108076 -175.642547 
L 130.353623 -175.038325 
L 129.59917 -175.912406 
L 128.844716 -175.053366 
L 128.090263 -176.895585 
L 127.335809 -177.209051 
L 126.581356 -206.376354 
L 125.826902 -205.740459 
L 125.072449 -207.593194 
L 124.317995 -205.72402 
L 123.563542 -207.593194 
L 122.809088 -207.593194 
L 122.054635 -207.593194 
L 121.300181 -208.498708 
L 120.545728 -207.616083 
L 119.791275 -205.72402 
L 119.036821 -207.593194 
L 118.282368 -207.593194 
L 117.527914 -208.498708 
L 116.773461 -207.593194 
L 116.019007 -206.407231 
L 115.264554 -207.593194 
L 114.5101 -205.72402 
L 113.755647 -205.740459 
L 113.001193 -208.498708 
L 112.24674 -208.498708 
L 111.492287 -207.593194 
L 110.737833 -207.597187 
L 109.98338 -207.752608 
L 109.228926 -207.593194 
L 108.474473 -209.107662 
L 107.720019 -207.752608 
L 106.965566 -209.107662 
L 106.211112 -207.597187 
L 105.456659 -206.376354 
L 104.702205 -209.107662 
L 103.947752 -233.124364 
L 103.193299 -233.124364 
L 102.438845 -232.849049 
L 101.684392 -236.680047 
L 100.929938 -238.406707 
L 100.175485 -235.672968 
L 99.421031 -236.680155 
L 98.666578 -237.28736 
L 97.912124 -235.646806 
L 97.157671 -235.646806 
L 96.403217 -235.646806 
L 95.648764 -237.28736 
L 94.89431 -237.28736 
L 94.139857 -257.064461 
L 93.385404 -283.626749 
L 92.63095 -284.101873 
z
" style="stroke: #c44e52; stroke-opacity: 0.2; stroke-width: 0.8"/>
    </defs>
    <g clip-path="url(#p33bc67cb59)">
     <use xlink:href="#ma6d525bfc6" x="0" y="345.6" style="fill: #c44e52; fill-opacity: 0.2; stroke: #c44e52; stroke-opacity: 0.2; stroke-width: 0.8"/>
    </g>
   </g>
   <g id="line2d_7">
    <path d="M 92.63095 57.407624 
L 94.139857 135.713341 
L 94.89431 135.713341 
L 95.648764 135.9425 
L 96.403217 135.9425 
L 97.157671 137.260035 
L 97.912124 137.532168 
L 100.929938 137.532168 
L 101.684392 138.095475 
L 102.438845 138.095475 
L 103.193299 138.630693 
L 103.947752 146.279913 
L 111.492287 146.279913 
L 112.24674 171.112284 
L 113.755647 171.112284 
L 114.5101 181.161526 
L 117.527914 181.161526 
L 118.282368 182.57772 
L 130.353623 182.57772 
L 131.108076 184.631515 
L 134.12589 184.631515 
L 134.880344 204.308171 
L 135.634797 205.756872 
L 143.179332 205.756872 
L 143.933785 210.313487 
L 147.706052 210.313487 
L 148.460506 217.15979 
L 181.656458 217.15979 
L 182.410912 225.851582 
L 242.767188 225.851582 
L 242.767188 225.851582 
" clip-path="url(#p33bc67cb59)" style="fill: none; stroke: #4c72b0; stroke-width: 2.5; stroke-linecap: round"/>
   </g>
   <g id="line2d_8">
    <path d="M 92.63095 83.007514 
L 93.385404 86.255213 
L 94.139857 96.604817 
L 94.89431 98.773234 
L 95.648764 124.648725 
L 96.403217 124.648725 
L 97.157671 130.57455 
L 98.666578 130.57455 
L 99.421031 130.798485 
L 105.456659 130.798485 
L 106.211112 133.580725 
L 114.5101 133.580725 
L 115.264554 135.976487 
L 116.773461 135.976487 
L 117.527914 139.689946 
L 128.090263 139.689946 
L 128.844716 145.032718 
L 129.59917 146.521403 
L 130.353623 146.521403 
L 131.108076 150.842794 
L 131.86253 156.783068 
L 137.898158 156.783068 
L 138.652611 157.209748 
L 142.424878 157.209748 
L 143.179332 160.81387 
L 145.442692 160.81387 
L 146.197146 161.067788 
L 154.496134 161.067788 
L 155.250587 164.968717 
L 160.531761 164.968717 
L 161.286215 166.436552 
L 162.795122 166.436552 
L 163.549575 178.156466 
L 168.076296 178.156466 
L 168.830749 191.770021 
L 173.35747 191.770021 
L 174.111923 200.92976 
L 189.200993 200.92976 
L 189.955446 206.554708 
L 191.464353 206.554708 
L 192.218806 208.709448 
L 202.781155 208.709448 
L 203.535608 222.762166 
L 211.834596 222.762166 
L 212.58905 225.704628 
L 218.624677 225.704628 
L 219.379131 225.887864 
L 227.678119 225.943721 
L 228.432572 228.802136 
L 232.20484 228.802136 
L 232.959293 236.50142 
L 242.767188 236.50142 
L 242.767188 236.50142 
" clip-path="url(#p33bc67cb59)" style="fill: none; stroke: #dd8452; stroke-width: 2.5; stroke-linecap: round"/>
   </g>
   <g id="line2d_9">
    <path d="M 92.63095 79.629667 
L 93.385404 86.142945 
L 94.139857 90.993681 
L 94.89431 92.208464 
L 95.648764 93.067946 
L 96.403217 114.373228 
L 97.157671 114.373228 
L 97.912124 119.234747 
L 98.666578 136.743007 
L 99.421031 137.542199 
L 101.684392 137.542199 
L 102.438845 143.146058 
L 106.211112 143.146058 
L 106.965566 171.83693 
L 107.720019 176.429756 
L 124.317995 176.429756 
L 125.072449 178.173596 
L 143.179332 178.173596 
L 143.933785 178.430162 
L 150.723866 178.430162 
L 151.47832 196.254927 
L 158.268401 196.254927 
L 159.022854 199.609889 
L 186.937632 199.609889 
L 187.692086 201.100624 
L 188.446539 201.100624 
L 189.200993 201.250625 
L 195.991074 201.250625 
L 196.745527 206.142396 
L 242.767188 206.142396 
L 242.767188 206.142396 
" clip-path="url(#p33bc67cb59)" style="fill: none; stroke: #55a868; stroke-width: 2.5; stroke-linecap: round"/>
   </g>
   <g id="line2d_10">
    <path d="M 92.63095 66.473417 
L 93.385404 102.700607 
L 94.139857 109.979062 
L 94.89431 119.684915 
L 95.648764 120.389702 
L 96.403217 130.948726 
L 98.666578 130.948726 
L 99.421031 134.925158 
L 100.175485 139.759319 
L 100.929938 149.371078 
L 106.965566 149.371078 
L 107.720019 154.37362 
L 112.24674 154.37362 
L 113.001193 155.293562 
L 113.755647 162.105157 
L 116.019007 162.105157 
L 116.773461 183.803256 
L 122.809088 183.803256 
L 123.563542 185.275794 
L 131.86253 185.275794 
L 132.616983 187.6804 
L 133.371437 188.631312 
L 134.12589 188.631312 
L 134.880344 191.786817 
L 135.634797 193.703184 
L 136.389251 193.703184 
L 137.143704 194.911857 
L 137.898158 198.379841 
L 139.407064 198.379841 
L 140.161518 198.629201 
L 146.197146 198.629201 
L 146.951599 199.677619 
L 152.987227 199.677619 
L 153.74168 200.846175 
L 154.496134 200.846175 
L 155.250587 201.183844 
L 162.795122 201.183844 
L 163.549575 201.785334 
L 168.830749 201.785338 
L 169.585203 201.917405 
L 183.165365 201.917412 
L 183.919818 202.069006 
L 242.767188 202.069006 
L 242.767188 202.069006 
" clip-path="url(#p33bc67cb59)" style="fill: none; stroke: #8172b3; stroke-width: 2.5; stroke-linecap: round"/>
   </g>
   <g id="line2d_11">
    <path d="M 92.63095 78.169326 
L 93.385404 85.782912 
L 94.139857 115.827266 
L 94.89431 134.362933 
L 100.929938 134.362933 
L 101.684392 137.262704 
L 102.438845 139.021359 
L 103.193299 144.847973 
L 103.947752 144.847973 
L 104.702205 162.279128 
L 110.737833 162.279128 
L 111.492287 164.751127 
L 126.581356 164.751127 
L 127.335809 184.996842 
L 128.090263 184.996842 
L 128.844716 190.641149 
L 134.880344 190.641149 
L 135.634797 190.785572 
L 137.143704 190.785572 
L 137.898158 192.758495 
L 143.179332 192.849814 
L 143.933785 193.48622 
L 154.496134 193.48622 
L 155.250587 194.68138 
L 158.268401 194.68138 
L 159.022854 195.14374 
L 159.777308 197.507842 
L 165.058482 197.507842 
L 165.812935 198.332959 
L 168.076296 198.332959 
L 168.830749 199.1665 
L 172.603017 199.1665 
L 173.35747 199.339344 
L 174.111923 206.011904 
L 177.884191 206.083852 
L 178.638644 231.144687 
L 198.254434 231.151527 
L 199.008888 231.643435 
L 202.781155 231.643435 
L 203.535608 232.668678 
L 207.307876 232.668678 
L 208.062329 232.823677 
L 211.834596 232.823677 
L 212.58905 240.335977 
L 214.097957 240.335977 
L 214.85241 240.614547 
L 219.379131 240.614547 
L 220.133584 243.800588 
L 225.414759 243.843559 
L 226.169212 244.411184 
L 236.73156 244.411184 
L 237.486014 244.870517 
L 241.258281 244.870517 
L 242.012735 245.389696 
L 242.767188 245.389696 
L 242.767188 245.389696 
" clip-path="url(#p33bc67cb59)" style="fill: none; stroke: #c44e52; stroke-width: 2.5; stroke-linecap: round"/>
   </g>
   <g id="patch_3">
    <path d="M 85.124138 278.724 
L 85.124138 20.736 
" style="fill: none; stroke: #cccccc; stroke-linejoin: miter; stroke-linecap: square"/>
   </g>
   <g id="patch_4">
    <path d="M 250.274 278.724 
L 250.274 20.736 
" style="fill: none; stroke: #cccccc; stroke-linejoin: miter; stroke-linecap: square"/>
   </g>
   <g id="patch_5">
    <path d="M 85.124138 278.724 
L 250.274 278.724 
" style="fill: none; stroke: #cccccc; stroke-linejoin: miter; stroke-linecap: square"/>
   </g>
   <g id="patch_6">
    <path d="M 85.124138 20.736 
L 250.274 20.736 
" style="fill: none; stroke: #cccccc; stroke-linejoin: miter; stroke-linecap: square"/>
   </g>
   <g id="legend_1">
    <g id="patch_7">
     <path d="M 262.594 159.70725 
L 436.295 159.70725 
Q 439.815 159.70725 439.815 156.18725 
L 439.815 33.056 
Q 439.815 29.536 436.295 29.536 
L 262.594 29.536 
Q 259.074 29.536 259.074 33.056 
L 259.074 156.18725 
Q 259.074 159.70725 262.594 159.70725 
z
" style="fill: #ffffff; opacity: 0.8; stroke: #cccccc; stroke-width: 0.8; stroke-linejoin: miter"/>
    </g>
    <g id="line2d_12">
     <path d="M 266.114 43.01375 
L 283.714 43.01375 
L 301.314 43.01375 
" style="fill: none; stroke: #4c72b0; stroke-width: 2.5; stroke-linecap: round"/>
    </g>
    <g id="text_9">
     <!-- bayesopt -->
     <g style="fill: #262626" transform="translate(315.394 49.17375) scale(0.176 -0.176)">
      <defs>
       <path id="ArialMT-62" d="M 941 0 
L 419 0 
L 419 4581 
L 981 4581 
L 981 2947 
Q 1338 3394 1891 3394 
Q 2197 3394 2470 3270 
Q 2744 3147 2920 2923 
Q 3097 2700 3197 2384 
Q 3297 2069 3297 1709 
Q 3297 856 2875 390 
Q 2453 -75 1863 -75 
Q 1275 -75 941 416 
L 941 0 
z
M 934 1684 
Q 934 1088 1097 822 
Q 1363 388 1816 388 
Q 2184 388 2453 708 
Q 2722 1028 2722 1663 
Q 2722 2313 2464 2622 
Q 2206 2931 1841 2931 
Q 1472 2931 1203 2611 
Q 934 2291 934 1684 
z
" transform="scale(0.015625)"/>
       <path id="ArialMT-79" d="M 397 -1278 
L 334 -750 
Q 519 -800 656 -800 
Q 844 -800 956 -737 
Q 1069 -675 1141 -563 
Q 1194 -478 1313 -144 
Q 1328 -97 1363 -6 
L 103 3319 
L 709 3319 
L 1400 1397 
Q 1534 1031 1641 628 
Q 1738 1016 1872 1384 
L 2581 3319 
L 3144 3319 
L 1881 -56 
Q 1678 -603 1566 -809 
Q 1416 -1088 1222 -1217 
Q 1028 -1347 759 -1347 
Q 597 -1347 397 -1278 
z
" transform="scale(0.015625)"/>
       <path id="ArialMT-70" d="M 422 -1272 
L 422 3319 
L 934 3319 
L 934 2888 
Q 1116 3141 1344 3267 
Q 1572 3394 1897 3394 
Q 2322 3394 2647 3175 
Q 2972 2956 3137 2557 
Q 3303 2159 3303 1684 
Q 3303 1175 3120 767 
Q 2938 359 2589 142 
Q 2241 -75 1856 -75 
Q 1575 -75 1351 44 
Q 1128 163 984 344 
L 984 -1272 
L 422 -1272 
z
M 931 1641 
Q 931 1000 1190 694 
Q 1450 388 1819 388 
Q 2194 388 2461 705 
Q 2728 1022 2728 1688 
Q 2728 2322 2467 2637 
Q 2206 2953 1844 2953 
Q 1484 2953 1207 2617 
Q 931 2281 931 1641 
z
" transform="scale(0.015625)"/>
      </defs>
      <use xlink:href="#ArialMT-62"/>
      <use xlink:href="#ArialMT-61" x="55.615234"/>
      <use xlink:href="#ArialMT-79" x="111.230469"/>
      <use xlink:href="#ArialMT-65" x="161.230469"/>
      <use xlink:href="#ArialMT-73" x="216.845703"/>
      <use xlink:href="#ArialMT-6f" x="266.845703"/>
      <use xlink:href="#ArialMT-70" x="322.460938"/>
      <use xlink:href="#ArialMT-74" x="378.076172"/>
     </g>
    </g>
    <g id="line2d_13">
     <path d="M 266.114 68.11575 
L 283.714 68.11575 
L 301.314 68.11575 
" style="fill: none; stroke: #dd8452; stroke-width: 2.5; stroke-linecap: round"/>
    </g>
    <g id="text_10">
     <!-- hyperopt -->
     <g style="fill: #262626" transform="translate(315.394 74.27575) scale(0.176 -0.176)">
      <defs>
       <path id="ArialMT-68" d="M 422 0 
L 422 4581 
L 984 4581 
L 984 2938 
Q 1378 3394 1978 3394 
Q 2347 3394 2619 3248 
Q 2891 3103 3008 2847 
Q 3125 2591 3125 2103 
L 3125 0 
L 2563 0 
L 2563 2103 
Q 2563 2525 2380 2717 
Q 2197 2909 1863 2909 
Q 1613 2909 1392 2779 
Q 1172 2650 1078 2428 
Q 984 2206 984 1816 
L 984 0 
L 422 0 
z
" transform="scale(0.015625)"/>
      </defs>
      <use xlink:href="#ArialMT-68"/>
      <use xlink:href="#ArialMT-79" x="55.615234"/>
      <use xlink:href="#ArialMT-70" x="105.615234"/>
      <use xlink:href="#ArialMT-65" x="161.230469"/>
      <use xlink:href="#ArialMT-72" x="216.845703"/>
      <use xlink:href="#ArialMT-6f" x="250.146484"/>
      <use xlink:href="#ArialMT-70" x="305.761719"/>
      <use xlink:href="#ArialMT-74" x="361.376953"/>
     </g>
    </g>
    <g id="line2d_14">
     <path d="M 266.114 93.21775 
L 283.714 93.21775 
L 301.314 93.21775 
" style="fill: none; stroke: #55a868; stroke-width: 2.5; stroke-linecap: round"/>
    </g>
    <g id="text_11">
     <!-- random search -->
     <g style="fill: #262626" transform="translate(315.394 99.37775) scale(0.176 -0.176)">
      <defs>
       <path id="ArialMT-6e" d="M 422 0 
L 422 3319 
L 928 3319 
L 928 2847 
Q 1294 3394 1984 3394 
Q 2284 3394 2536 3286 
Q 2788 3178 2913 3003 
Q 3038 2828 3088 2588 
Q 3119 2431 3119 2041 
L 3119 0 
L 2556 0 
L 2556 2019 
Q 2556 2363 2490 2533 
Q 2425 2703 2258 2804 
Q 2091 2906 1866 2906 
Q 1506 2906 1245 2678 
Q 984 2450 984 1813 
L 984 0 
L 422 0 
z
" transform="scale(0.015625)"/>
       <path id="ArialMT-64" d="M 2575 0 
L 2575 419 
Q 2259 -75 1647 -75 
Q 1250 -75 917 144 
Q 584 363 401 755 
Q 219 1147 219 1656 
Q 219 2153 384 2558 
Q 550 2963 881 3178 
Q 1213 3394 1622 3394 
Q 1922 3394 2156 3267 
Q 2391 3141 2538 2938 
L 2538 4581 
L 3097 4581 
L 3097 0 
L 2575 0 
z
M 797 1656 
Q 797 1019 1065 703 
Q 1334 388 1700 388 
Q 2069 388 2326 689 
Q 2584 991 2584 1609 
Q 2584 2291 2321 2609 
Q 2059 2928 1675 2928 
Q 1300 2928 1048 2622 
Q 797 2316 797 1656 
z
" transform="scale(0.015625)"/>
       <path id="ArialMT-6d" d="M 422 0 
L 422 3319 
L 925 3319 
L 925 2853 
Q 1081 3097 1340 3245 
Q 1600 3394 1931 3394 
Q 2300 3394 2536 3241 
Q 2772 3088 2869 2813 
Q 3263 3394 3894 3394 
Q 4388 3394 4653 3120 
Q 4919 2847 4919 2278 
L 4919 0 
L 4359 0 
L 4359 2091 
Q 4359 2428 4304 2576 
Q 4250 2725 4106 2815 
Q 3963 2906 3769 2906 
Q 3419 2906 3187 2673 
Q 2956 2441 2956 1928 
L 2956 0 
L 2394 0 
L 2394 2156 
Q 2394 2531 2256 2718 
Q 2119 2906 1806 2906 
Q 1569 2906 1367 2781 
Q 1166 2656 1075 2415 
Q 984 2175 984 1722 
L 984 0 
L 422 0 
z
" transform="scale(0.015625)"/>
       <path id="ArialMT-20" transform="scale(0.015625)"/>
      </defs>
      <use xlink:href="#ArialMT-72"/>
      <use xlink:href="#ArialMT-61" x="33.300781"/>
      <use xlink:href="#ArialMT-6e" x="88.916016"/>
      <use xlink:href="#ArialMT-64" x="144.53125"/>
      <use xlink:href="#ArialMT-6f" x="200.146484"/>
      <use xlink:href="#ArialMT-6d" x="255.761719"/>
      <use xlink:href="#ArialMT-20" x="339.0625"/>
      <use xlink:href="#ArialMT-73" x="366.845703"/>
      <use xlink:href="#ArialMT-65" x="416.845703"/>
      <use xlink:href="#ArialMT-61" x="472.460938"/>
      <use xlink:href="#ArialMT-72" x="528.076172"/>
      <use xlink:href="#ArialMT-63" x="561.376953"/>
      <use xlink:href="#ArialMT-68" x="611.376953"/>
     </g>
    </g>
    <g id="line2d_15">
     <path d="M 266.114 118.1135 
L 283.714 118.1135 
L 301.314 118.1135 
" style="fill: none; stroke: #8172b3; stroke-width: 2.5; stroke-linecap: round"/>
    </g>
    <g id="text_12">
     <!-- oneplusone -->
     <g style="fill: #262626" transform="translate(315.394 124.2735) scale(0.176 -0.176)">
      <defs>
       <path id="ArialMT-75" d="M 2597 0 
L 2597 488 
Q 2209 -75 1544 -75 
Q 1250 -75 995 37 
Q 741 150 617 320 
Q 494 491 444 738 
Q 409 903 409 1263 
L 409 3319 
L 972 3319 
L 972 1478 
Q 972 1038 1006 884 
Q 1059 663 1231 536 
Q 1403 409 1656 409 
Q 1909 409 2131 539 
Q 2353 669 2445 892 
Q 2538 1116 2538 1541 
L 2538 3319 
L 3100 3319 
L 3100 0 
L 2597 0 
z
" transform="scale(0.015625)"/>
      </defs>
      <use xlink:href="#ArialMT-6f"/>
      <use xlink:href="#ArialMT-6e" x="55.615234"/>
      <use xlink:href="#ArialMT-65" x="111.230469"/>
      <use xlink:href="#ArialMT-70" x="166.845703"/>
      <use xlink:href="#ArialMT-6c" x="222.460938"/>
      <use xlink:href="#ArialMT-75" x="244.677734"/>
      <use xlink:href="#ArialMT-73" x="300.292969"/>
      <use xlink:href="#ArialMT-6f" x="350.292969"/>
      <use xlink:href="#ArialMT-6e" x="405.908203"/>
      <use xlink:href="#ArialMT-65" x="461.523438"/>
     </g>
    </g>
    <g id="line2d_16">
     <path d="M 266.114 143.00925 
L 283.714 143.00925 
L 301.314 143.00925 
" style="fill: none; stroke: #c44e52; stroke-width: 2.5; stroke-linecap: round"/>
    </g>
    <g id="text_13">
     <!-- zoopt -->
     <g style="fill: #262626" transform="translate(315.394 149.16925) scale(0.176 -0.176)">
      <defs>
       <path id="ArialMT-7a" d="M 125 0 
L 125 456 
L 2238 2881 
Q 1878 2863 1603 2863 
L 250 2863 
L 250 3319 
L 2963 3319 
L 2963 2947 
L 1166 841 
L 819 456 
Q 1197 484 1528 484 
L 3063 484 
L 3063 0 
L 125 0 
z
" transform="scale(0.015625)"/>
      </defs>
      <use xlink:href="#ArialMT-7a"/>
      <use xlink:href="#ArialMT-6f" x="50"/>
      <use xlink:href="#ArialMT-6f" x="105.615234"/>
      <use xlink:href="#ArialMT-70" x="161.230469"/>
      <use xlink:href="#ArialMT-74" x="216.845703"/>
     </g>
    </g>
   </g>
  </g>
 </g>
 <defs>
  <clipPath id="p33bc67cb59">
   <rect x="85.124138" y="20.736" width="165.149862" height="257.988"/>
  </clipPath>
 </defs>
</svg>
